  0
SECTION
  2
HEADER
  9
$ACADVER
  1
AC1032
  9
$ACADMAINTVER
 90
       55
  9
$DWGCODEPAGE
  3
ANSI_1252
  9
$LASTSAVEDBY
  1
Mtek
  9
$REQUIREDVERSIONS
160
                 0
  9
$INSBASE
 10
0.0
 20
0.0
 30
0.0
  9
$EXTMIN
 10
268.255
 20
-9563.6549
 30
0.0
  9
$EXTMAX
 10
316.0455
 20
-9528.5113
 30
0.0
  9
$LIMMIN
 10
0.0
 20
0.0
  9
$LIMMAX
 10
12.0
 20
9.0
  9
$ORTHOMODE
 70
     0
  9
$REGENMODE
 70
     1
  9
$FILLMODE
 70
     1
  9
$QTEXTMODE
 70
     0
  9
$MIRRTEXT
 70
     1
  9
$LTSCALE
 40
1.0
  9
$ATTMODE
 70
     1
  9
$TEXTSIZE
 40
0.2
  9
$TRACEWID
 40
0.05
  9
$TEXTSTYLE
  7
Standard
  9
$CLAYER
  8
0
  9
$CELTYPE
  6
ByLayer
  9
$CECOLOR
 62
   256
  9
$CELTSCALE
 40
1.0
  9
$DISPSILH
 70
     0
  9
$DIMSCALE
 40
1.0
  9
$DIMASZ
 40
0.18
  9
$DIMEXO
 40
0.0625
  9
$DIMDLI
 40
0.38
  9
$DIMRND
 40
0.0
  9
$DIMDLE
 40
0.0
  9
$DIMEXE
 40
0.18
  9
$DIMTP
 40
0.0
  9
$DIMTM
 40
0.0
  9
$DIMTXT
 40
0.18
  9
$DIMCEN
 40
0.09
  9
$DIMTSZ
 40
0.0
  9
$DIMTOL
 70
     0
  9
$DIMLIM
 70
     0
  9
$DIMTIH
 70
     1
  9
$DIMTOH
 70
     1
  9
$DIMSE1
 70
     0
  9
$DIMSE2
 70
     0
  9
$DIMTAD
 70
     0
  9
$DIMZIN
 70
     0
  9
$DIMBLK
  1

  9
$DIMASO
 70
     1
  9
$DIMSHO
 70
     1
  9
$DIMPOST
  1

  9
$DIMAPOST
  1

  9
$DIMALT
 70
     0
  9
$DIMALTD
 70
     2
  9
$DIMALTF
 40
25.4
  9
$DIMLFAC
 40
1.0
  9
$DIMTOFL
 70
     0
  9
$DIMTVP
 40
0.0
  9
$DIMTIX
 70
     0
  9
$DIMSOXD
 70
     0
  9
$DIMSAH
 70
     0
  9
$DIMBLK1
  1

  9
$DIMBLK2
  1

  9
$DIMSTYLE
  2
Standard
  9
$DIMCLRD
 70
     0
  9
$DIMCLRE
 70
     0
  9
$DIMCLRT
 70
     0
  9
$DIMTFAC
 40
1.0
  9
$DIMGAP
 40
0.09
  9
$DIMJUST
 70
     0
  9
$DIMSD1
 70
     0
  9
$DIMSD2
 70
     0
  9
$DIMTOLJ
 70
     1
  9
$DIMTZIN
 70
     0
  9
$DIMALTZ
 70
     0
  9
$DIMALTTZ
 70
     0
  9
$DIMUPT
 70
     0
  9
$DIMDEC
 70
     4
  9
$DIMTDEC
 70
     4
  9
$DIMALTU
 70
     2
  9
$DIMALTTD
 70
     2
  9
$DIMTXSTY
  7
Standard
  9
$DIMAUNIT
 70
     0
  9
$DIMADEC
 70
     0
  9
$DIMALTRND
 40
0.0
  9
$DIMAZIN
 70
     0
  9
$DIMDSEP
 70
    46
  9
$DIMATFIT
 70
     3
  9
$DIMFRAC
 70
     0
  9
$DIMLDRBLK
  1

  9
$DIMLUNIT
 70
     2
  9
$DIMLWD
 70
    -2
  9
$DIMLWE
 70
    -2
  9
$DIMTMOVE
 70
     0
  9
$DIMFXL
 40
1.0
  9
$DIMFXLON
 70
     0
  9
$DIMJOGANG
 40
0.7853981633974483
  9
$DIMTFILL
 70
     0
  9
$DIMTFILLCLR
 70
     0
  9
$DIMARCSYM
 70
     0
  9
$DIMLTYPE
  6

  9
$DIMLTEX1
  6

  9
$DIMLTEX2
  6

  9
$DIMTXTDIRECTION
 70
     0
  9
$LUNITS
 70
     2
  9
$LUPREC
 70
     4
  9
$SKETCHINC
 40
0.1
  9
$FILLETRAD
 40
0.0
  9
$AUNITS
 70
     0
  9
$AUPREC
 70
     0
  9
$MENU
  1
.
  9
$ELEVATION
 40
0.0
  9
$PELEVATION
 40
0.0
  9
$THICKNESS
 40
0.0
  9
$LIMCHECK
 70
     0
  9
$CHAMFERA
 40
0.0
  9
$CHAMFERB
 40
0.0
  9
$CHAMFERC
 40
0.0
  9
$CHAMFERD
 40
0.0
  9
$SKPOLY
 70
     0
  9
$TDCREATE
 40
2461257.887585301
  9
$TDUCREATE
 40
2461258.012585301
  9
$TDUPDATE
 40
2461257.887585406
  9
$TDUUPDATE
 40
2461258.012585406
  9
$TDINDWG
 40
0.0000000116
  9
$TDUSRTIMER
 40
0.0000000116
  9
$USRTIMER
 70
     1
  9
$ANGBASE
 50
0.0
  9
$ANGDIR
 70
     0
  9
$PDMODE
 70
     0
  9
$PDSIZE
 40
0.0
  9
$PLINEWID
 40
0.0
  9
$SPLFRAME
 70
     0
  9
$SPLINETYPE
 70
     6
  9
$SPLINESEGS
 70
     8
  9
$HANDSEED
  5
B4
  9
$SURFTAB1
 70
     6
  9
$SURFTAB2
 70
     6
  9
$SURFTYPE
 70
     6
  9
$SURFU
 70
     6
  9
$SURFV
 70
     6
  9
$UCSBASE
  2

  9
$UCSNAME
  2

  9
$UCSORG
 10
0.0
 20
0.0
 30
0.0
  9
$UCSXDIR
 10
1.0
 20
0.0
 30
0.0
  9
$UCSYDIR
 10
0.0
 20
1.0
 30
0.0
  9
$UCSORTHOREF
  2

  9
$UCSORTHOVIEW
 70
     0
  9
$UCSORGTOP
 10
0.0
 20
0.0
 30
0.0
  9
$UCSORGBOTTOM
 10
0.0
 20
0.0
 30
0.0
  9
$UCSORGLEFT
 10
0.0
 20
0.0
 30
0.0
  9
$UCSORGRIGHT
 10
0.0
 20
0.0
 30
0.0
  9
$UCSORGFRONT
 10
0.0
 20
0.0
 30
0.0
  9
$UCSORGBACK
 10
0.0
 20
0.0
 30
0.0
  9
$PUCSBASE
  2

  9
$PUCSNAME
  2

  9
$PUCSORG
 10
0.0
 20
0.0
 30
0.0
  9
$PUCSXDIR
 10
1.0
 20
0.0
 30
0.0
  9
$PUCSYDIR
 10
0.0
 20
1.0
 30
0.0
  9
$PUCSORTHOREF
  2

  9
$PUCSORTHOVIEW
 70
     0
  9
$PUCSORGTOP
 10
0.0
 20
0.0
 30
0.0
  9
$PUCSORGBOTTOM
 10
0.0
 20
0.0
 30
0.0
  9
$PUCSORGLEFT
 10
0.0
 20
0.0
 30
0.0
  9
$PUCSORGRIGHT
 10
0.0
 20
0.0
 30
0.0
  9
$PUCSORGFRONT
 10
0.0
 20
0.0
 30
0.0
  9
$PUCSORGBACK
 10
0.0
 20
0.0
 30
0.0
  9
$USERI1
 70
     0
  9
$USERI2
 70
     0
  9
$USERI3
 70
     0
  9
$USERI4
 70
     0
  9
$USERI5
 70
     0
  9
$USERR1
 40
0.0
  9
$USERR2
 40
0.0
  9
$USERR3
 40
0.0
  9
$USERR4
 40
0.0
  9
$USERR5
 40
0.0
  9
$WORLDVIEW
 70
     1
  9
$SHADEDGE
 70
     3
  9
$SHADEDIF
 70
    70
  9
$TILEMODE
 70
     1
  9
$MAXACTVP
 70
    64
  9
$PINSBASE
 10
0.0
 20
0.0
 30
0.0
  9
$PLIMCHECK
 70
     0
  9
$PEXTMIN
 10
1.000000000000000E+20
 20
1.000000000000000E+20
 30
1.000000000000000E+20
  9
$PEXTMAX
 10
-1.000000000000000E+20
 20
-1.000000000000000E+20
 30
-1.000000000000000E+20
  9
$PLIMMIN
 10
0.0
 20
0.0
  9
$PLIMMAX
 10
12.0
 20
9.0
  9
$UNITMODE
 70
     0
  9
$VISRETAIN
 70
     1
  9
$PLINEGEN
 70
     0
  9
$PSLTSCALE
 70
     1
  9
$TREEDEPTH
 70
  3020
  9
$CMLSTYLE
  2
Standard
  9
$CMLJUST
 70
     0
  9
$CMLSCALE
 40
1.0
  9
$PROXYGRAPHICS
 70
     1
  9
$MEASUREMENT
 70
     0
  9
$CELWEIGHT
370
    -1
  9
$ENDCAPS
280
     0
  9
$JOINSTYLE
280
     0
  9
$LWDISPLAY
290
     0
  9
$INSUNITS
 70
     4
  9
$HYPERLINKBASE
  1

  9
$STYLESHEET
  1

  9
$XEDIT
290
     1
  9
$CEPSNTYPE
380
     0
  9
$PSTYLEMODE
290
     1
  9
$FINGERPRINTGUID
  2
{24baa261-88ba-48b5-ad51-dbc5a4509d03}
  9
$VERSIONGUID
  2
{FAEB1C32-E019-11D5-929B-00C0DF256EC4}
  9
$EXTNAMES
290
     1
  9
$PSVPSCALE
 40
0.0
  9
$OLESTARTUP
290
     0
  9
$SORTENTS
280
   127
  9
$INDEXCTL
280
     0
  9
$HIDETEXT
280
     1
  9
$XCLIPFRAME
280
     2
  9
$HALOGAP
280
     0
  9
$OBSCOLOR
 70
   257
  9
$OBSLTYPE
280
     0
  9
$INTERSECTIONDISPLAY
280
     0
  9
$INTERSECTIONCOLOR
 70
   257
  9
$DIMASSOC
280
     2
  9
$PROJECTNAME
  1

  9
$CAMERADISPLAY
290
     0
  9
$LENSLENGTH
 40
50.0
  9
$CAMERAHEIGHT
 40
0.0
  9
$STEPSPERSEC
 40
2.0
  9
$STEPSIZE
 40
6.0
  9
$3DDWFPREC
 40
2.0
  9
$PSOLWIDTH
 40
0.25
  9
$PSOLHEIGHT
 40
4.0
  9
$LOFTANG1
 40
1.570796326794897
  9
$LOFTANG2
 40
1.570796326794897
  9
$LOFTMAG1
 40
0.0
  9
$LOFTMAG2
 40
0.0
  9
$LOFTPARAM
 70
     7
  9
$LOFTNORMALS
280
     1
  9
$LATITUDE
 40
37.795
  9
$LONGITUDE
 40
-122.394
  9
$NORTHDIRECTION
 40
0.0
  9
$TIMEZONE
 70
 -8000
  9
$LIGHTGLYPHDISPLAY
280
     1
  9
$TILEMODELIGHTSYNCH
280
     1
  9
$CMATERIAL
347
44
  9
$SOLIDHIST
280
     0
  9
$SHOWHIST
280
     1
  9
$DWFFRAME
280
     2
  9
$DGNFRAME
280
     2
  9
$REALWORLDSCALE
290
     1
  9
$INTERFERECOLOR
 62
   256
  9
$CSHADOW
280
     0
  9
$SHADOWPLANELOCATION
 40
0.0
  0
ENDSEC
  0
SECTION
  2
CLASSES
  0
CLASS
  1
ACDBDICTIONARYWDFLT
  2
AcDbDictionaryWithDefault
  3
ObjectDBX Classes
 90
        0
 91
        3
280
     0
281
     0
  0
CLASS
  1
VISUALSTYLE
  2
AcDbVisualStyle
  3
ObjectDBX Classes
 90
     4095
 91
        3
280
     0
281
     0
  0
CLASS
  1
MATERIAL
  2
AcDbMaterial
  3
ObjectDBX Classes
 90
     1153
 91
        3
280
     0
281
     0
  0
CLASS
  1
SCALE
  2
AcDbScale
  3
ObjectDBX Classes
 90
     1153
 91
        3
280
     0
281
     0
  0
CLASS
  1
TABLESTYLE
  2
AcDbTableStyle
  3
ObjectDBX Classes
 90
     4095
 91
        3
280
     0
281
     0
  0
CLASS
  1
MLEADERSTYLE
  2
AcDbMLeaderStyle
  3
ACDB_MLEADERSTYLE_CLASS
 90
     4095
 91
        3
280
     0
281
     0
  0
CLASS
  1
SUN
  2
AcDbSun
  3
SCENEOE
 90
     1153
 91
        3
280
     0
281
     0
  0
CLASS
  1
DICTIONARYVAR
  2
AcDbDictionaryVar
  3
ObjectDBX Classes
 90
        0
 91
        3
280
     0
281
     0
  0
CLASS
  1
CELLSTYLEMAP
  2
AcDbCellStyleMap
  3
ObjectDBX Classes
 90
     1152
 91
        3
280
     0
281
     0
  0
ENDSEC
  0
SECTION
  2
TABLES
  0
TABLE
  2
VPORT
  5
8
330
0
100
AcDbSymbolTable
 70
     1
  0
VPORT
  5
29
330
8
100
AcDbSymbolTableRecord
100
AcDbViewportTableRecord
  2
*Active
 70
     0
 10
0.0
 20
0.0
 11
1.0
 21
1.0
 12
10.42990654205607
 22
4.5
 13
0.0
 23
0.0
 14
0.5
 24
0.5
 15
0.5
 25
0.5
 16
0.0
 26
0.0
 36
1.0
 17
0.0
 27
0.0
 37
0.0
 40
9.0
 41
1.972972972850329
 42
50.0
 43
0.0
 44
0.0
 50
0.0
 51
0.0
 71
     0
 72
   100
 73
     1
 74
     3
 75
     0
 76
     0
 77
     0
 78
     0
281
     0
 65
     1
110
0.0
120
0.0
130
0.0
111
1.0
121
0.0
131
0.0
112
0.0
122
1.0
132
0.0
 79
     0
146
0.0
348
2F
 60
     3
 61
     5
292
     1
282
     1
141
0.0
142
0.0
 63
   250
361
5D
  0
ENDTAB
  0
TABLE
  2
LTYPE
  5
5
330
0
100
AcDbSymbolTable
 70
     1
  0
LTYPE
  5
14
330
5
100
AcDbSymbolTableRecord
100
AcDbLinetypeTableRecord
  2
ByBlock
 70
     0
  3

 72
    65
 73
     0
 40
0.0
  0
LTYPE
  5
15
330
5
100
AcDbSymbolTableRecord
100
AcDbLinetypeTableRecord
  2
ByLayer
 70
     0
  3

 72
    65
 73
     0
 40
0.0
  0
LTYPE
  5
16
330
5
100
AcDbSymbolTableRecord
100
AcDbLinetypeTableRecord
  2
Continuous
 70
     0
  3
Solid line
 72
    65
 73
     0
 40
0.0
  0
ENDTAB
  0
TABLE
  2
LAYER
  5
2
330
0
100
AcDbSymbolTable
 70
     2
  0
LAYER
  5
10
330
2
100
AcDbSymbolTableRecord
100
AcDbLayerTableRecord
  2
0
 70
     0
 62
     7
  6
Continuous
370
    -3
390
F
347
46
348
0
  0
LAYER
  5
5F
330
2
100
AcDbSymbolTableRecord
100
AcDbLayerTableRecord
  2
Capa 1
 70
     0
 62
     7
  6
Continuous
370
    -3
390
F
347
46
348
0
  0
ENDTAB
  0
TABLE
  2
STYLE
  5
3
330
0
100
AcDbSymbolTable
 70
     1
  0
STYLE
  5
11
330
3
100
AcDbSymbolTableRecord
100
AcDbTextStyleTableRecord
  2
Standard
 70
     0
 40
0.0
 41
1.0
 50
0.0
 71
     0
 42
0.2
  3
txt
  4

  0
ENDTAB
  0
TABLE
  2
VIEW
  5
6
330
0
100
AcDbSymbolTable
 70
     0
  0
ENDTAB
  0
TABLE
  2
UCS
  5
7
330
0
100
AcDbSymbolTable
 70
     0
  0
ENDTAB
  0
TABLE
  2
APPID
  5
9
330
0
100
AcDbSymbolTable
 70
     2
  0
APPID
  5
12
330
9
100
AcDbSymbolTableRecord
100
AcDbRegAppTableRecord
  2
ACAD
 70
     0
  0
APPID
  5
5E
330
9
100
AcDbSymbolTableRecord
100
AcDbRegAppTableRecord
  2
ODA
 70
     0
  0
ENDTAB
  0
TABLE
  2
DIMSTYLE
  5
A
330
0
100
AcDbSymbolTable
 70
     1
100
AcDbDimStyleTable
  0
DIMSTYLE
105
27
330
A
100
AcDbSymbolTableRecord
100
AcDbDimStyleTableRecord
  2
Standard
 70
     0
178
     0
340
11
  0
ENDTAB
  0
TABLE
  2
BLOCK_RECORD
  5
1
330
0
100
AcDbSymbolTable
 70
     1
  0
BLOCK_RECORD
  5
1F
330
1
100
AcDbSymbolTableRecord
100
AcDbBlockTableRecord
  2
*Model_Space
340
22
 70
     0
280
     1
281
     0
  0
BLOCK_RECORD
  5
1B
330
1
100
AcDbSymbolTableRecord
100
AcDbBlockTableRecord
  2
*Paper_Space
340
1E
 70
     0
280
     1
281
     0
  0
BLOCK_RECORD
  5
23
330
1
100
AcDbSymbolTableRecord
100
AcDbBlockTableRecord
  2
*Paper_Space0
340
26
 70
     0
280
     1
281
     0
  0
ENDTAB
  0
ENDSEC
  0
SECTION
  2
BLOCKS
  0
BLOCK
  5
20
330
1F
100
AcDbEntity
  8
0
100
AcDbBlockBegin
  2
*Model_Space
 70
     0
 10
0.0
 20
0.0
 30
0.0
  3
*Model_Space
  1

  0
ENDBLK
  5
21
330
1F
100
AcDbEntity
  8
0
100
AcDbBlockEnd
  0
BLOCK
  5
1C
330
1B
100
AcDbEntity
 67
     1
  8
0
100
AcDbBlockBegin
  2
*Paper_Space
 70
     0
 10
0.0
 20
0.0
 30
0.0
  3
*Paper_Space
  1

  0
ENDBLK
  5
1D
330
1B
100
AcDbEntity
 67
     1
  8
0
100
AcDbBlockEnd
  0
BLOCK
  5
24
330
23
100
AcDbEntity
  8
0
100
AcDbBlockBegin
  2
*Paper_Space0
 70
     0
 10
0.0
 20
0.0
 30
0.0
  3
*Paper_Space0
  1

  0
ENDBLK
  5
25
330
23
100
AcDbEntity
  8
0
100
AcDbBlockEnd
  0
ENDSEC
  0
SECTION
  2
ENTITIES
  0
LWPOLYLINE
  5
60
330
1F
100
AcDbEntity
  8
Capa 1
100
AcDbPolyline
 90
      263
 70
     1
 43
0.0
 10
280.3518
 20
-9530.7614
 10
279.7847
 20
-9530.188
 10
279.3228
 20
-9529.7919
 10
278.8732
 20
-9529.4549
 10
278.389
 20
-9529.1545
 10
277.8234
 20
-9528.8682
 10
277.3711
 20
-9528.6937
 10
276.9057
 20
-9528.5782
 10
276.4341
 20
-9528.5198
 10
275.9632
 20
-9528.5167
 10
275.4998
 20
-9528.5668
 10
275.0508
 20
-9528.6685
 10
274.6229
 20
-9528.8197
 10
274.223
 20
-9529.0187
 10
273.9128
 20
-9529.2259
 10
273.6254
 20
-9529.4747
 10
273.363
 20
-9529.7632
 10
273.1279
 20
-9530.0893
 10
272.9222
 20
-9530.4512
 10
272.7484
 20
-9530.8467
 10
272.6086
 20
-9531.274
 10
272.5052
 20
-9531.731
 10
272.4403
 20
-9532.2177
 10
272.4146
 20
-9532.7214
 10
272.4262
 20
-9533.2318
 10
272.4731
 20
-9533.7386
 10
272.5534
 20
-9534.2313
 10
272.665
 20
-9534.6997
 10
272.8061
 20
-9535.1333
 10
272.9748
 20
-9535.5219
 10
273.3867
 20
-9536.2591
 10
273.4518
 20
-9536.4616
 10
273.482
 20
-9536.7106
 10
273.5007
 20
-9536.971
 10
273.5317
 20
-9537.2077
 10
273.6093
 20
-9537.5299
 10
273.6934
 20
-9537.8008
 10
273.782
 20
-9538.0264
 10
273.873
 20
-9538.2125
 10
274.0544
 20
-9538.4897
 10
274.2216
 20
-9538.6795
 10
274.449
 20
-9538.9856
 10
274.4272
 20
-9539.5076
 10
274.1728
 20
-9541.1529
 10
274.2314
 20
-9542.7894
 10
274.6076
 20
-9544.3649
 10
274.7519
 20
-9544.7431
 10
274.9163
 20
-9545.1135
 10
275.1011
 20
-9545.4752
 10
275.3062
 20
-9545.8274
 10
275.7292
 20
-9546.4269
 10
276.2792
 20
-9547.0799
 10
276.5771
 20
-9547.3927
 10
276.8771
 20
-9547.6783
 10
277.1691
 20
-9547.9232
 10
277.4434
 20
-9548.114
 10
277.2681
 20
-9549.2253
 10
277.1124
 20
-9550.2992
 10
277.0493
 20
-9550.843
 10
277.0001
 20
-9551.4027
 10
276.9675
 20
-9551.9866
 10
276.9546
 20
-9552.6032
 10
276.065
 20
-9553.1233
 10
275.6716
 20
-9553.395
 10
275.183
 20
-9553.7326
 10
274.7072
 20
-9554.0484
 10
274.3521
 20
-9554.2551
 10
273.7773
 20
-9554.5324
 10
273.2006
 20
-9554.8372
 10
272.6459
 20
-9555.1843
 10
272.1374
 20
-9555.5883
 10
271.699
 20
-9556.0639
 10
271.3549
 20
-9556.6256
 10
271.1291
 20
-9557.2882
 10
271.0457
 20
-9558.0662
 10
271.0572
 20
-9558.425
 10
271.0947
 20
-9558.7454
 10
271.1568
 20
-9559.0331
 10
271.2423
 20
-9559.2936
 10
271.3497
 20
-9559.5325
 10
271.4778
 20
-9559.7554
 10
271.6252
 20
-9559.9679
 10
271.7907
 20
-9560.1757
 10
271.9267
 20
-9560.3137
 10
272.1131
 20
-9560.4646
 10
272.3397
 20
-9560.618
 10
272.5968
 20
-9560.7638
 10
272.8743
 20
-9560.8918
 10
273.1623
 20
-9560.9916
 10
273.4509
 20
-9561.0531
 10
273.7302
 20
-9561.066
 10
273.9229
 20
-9561.0463
 10
274.0189
 20
-9561.0335
 10
274.1076
 20
-9561.0527
 10
274.2788
 20
-9561.1288
 10
274.8219
 20
-9561.2987
 10
275.1435
 20
-9561.3493
 10
275.4842
 20
-9561.3666
 10
275.8243
 20
-9561.3496
 10
276.144
 20
-9561.2976
 10
276.6752
 20
-9561.1161
 10
276.8134
 20
-9561.0958
 10
276.9441
 20
-9561.1131
 10
277.0812
 20
-9561.1469
 10
277.2385
 20
-9561.1762
 10
277.5854
 20
-9561.1955
 10
277.9114
 20
-9561.1779
 10
278.228
 20
-9561.1364
 10
278.5468
 20
-9561.084
 10
278.8338
 20
-9561.7704
 10
279.1514
 20
-9562.1927
 10
279.5213
 20
-9562.4876
 10
279.9208
 20
-9562.6801
 10
280.3272
 20
-9562.795
 10
281.0701
 20
-9562.8911
 10
281.5688
 20
-9562.9746
 10
281.9734
 20
-9563.1272
 10
282.3856
 20
-9563.2239
 10
282.8103
 20
-9563.2709
 10
283.2525
 20
-9563.2742
 10
283.7278
 20
-9563.2028
 10
284.1244
 20
-9563.1439
 10
284.5277
 20
-9563.2054
 10
285.0004
 20
-9563.2589
 10
285.3126
 20
-9563.2443
 10
285.6252
 20
-9563.2104
 10
285.9361
 20
-9563.1587
 10
286.2427
 20
-9563.0908
 10
286.8338
 20
-9562.9123
 10
287.3796
 20
-9562.687
 10
288.0879
 20
-9562.3063
 10
288.5282
 20
-9562.0211
 10
288.7081
 20
-9561.9137
 10
288.8932
 20
-9561.8295
 10
289.1076
 20
-9561.7682
 10
289.3754
 20
-9561.7297
 10
290.1882
 20
-9561.6533
 10
291.1798
 20
-9561.5508
 10
292.2798
 20
-9561.4231
 10
293.4183
 20
-9561.2713
 10
294.5249
 20
-9561.0964
 10
295.5297
 20
-9560.8996
 10
296.3625
 20
-9560.6818
 10
296.953
 20
-9560.4441
 10
297.4652
 20
-9560.1747
 10
297.8306
 20
-9560.0179
 10
298.0834
 20
-9559.9581
 10
298.2579
 20
-9559.9797
 10
298.5087
 20
-9560.2044
 10
298.8569
 20
-9560.567
 10
299.2553
 20
-9560.8286
 10
299.7119
 20
-9561.035
 10
300.2132
 20
-9561.1923
 10
300.7455
 20
-9561.3065
 10
301.2951
 20
-9561.3837
 10
301.8486
 20
-9561.43
 10
302.3922
 20
-9561.4515
 10
302.9123
 20
-9561.4543
 10
303.2057
 20
-9562.101
 10
303.6558
 20
-9562.6125
 10
304.2298
 20
-9563.0033
 10
304.8949
 20
-9563.2878
 10
305.6184
 20
-9563.4804
 10
306.3675
 20
-9563.5956
 10
307.1093
 20
-9563.6478
 10
307.8112
 20
-9563.6513
 10
309.1859
 20
-9563.5257
 10
310.574
 20
-9563.2149
 10
311.9192
 20
-9562.722
 10
313.1651
 20
-9562.05
 10
314.2556
 20
-9561.2018
 10
315.1343
 20
-9560.1806
 10
315.7449
 20
-9558.9894
 10
316.0311
 20
-9557.6311
 10
316.0453
 20
-9557.2041
 10
316.0257
 20
-9556.7979
 10
315.9749
 20
-9556.4116
 10
315.8956
 20
-9556.0442
 10
315.7904
 20
-9555.6948
 10
315.6619
 20
-9555.3624
 10
315.5129
 20
-9555.0461
 10
315.3458
 20
-9554.745
 10
315.1957
 20
-9554.5169
 10
315.0098
 20
-9554.2763
 10
314.7935
 20
-9554.0333
 10
314.5527
 20
-9553.7979
 10
314.2928
 20
-9553.5801
 10
314.0195
 20
-9553.39
 10
313.7384
 20
-9553.2374
 10
313.4551
 20
-9553.1326
 10
313.3378
 20
-9552.3233
 10
313.1599
 20
-9551.5247
 10
312.9303
 20
-9550.7456
 10
312.6575
 20
-9549.9951
 10
312.3503
 20
-9549.282
 10
312.0173
 20
-9548.6152
 10
311.6673
 20
-9548.0038
 10
311.309
 20
-9547.4567
 10
310.9044
 20
-9546.922
 10
310.4595
 20
-9546.414
 10
309.974
 20
-9545.9342
 10
309.4476
 20
-9545.4844
 10
308.88
 20
-9545.0662
 10
308.2709
 20
-9544.6814
 10
307.6201
 20
-9544.3316
 10
306.9273
 20
-9544.0185
 10
306.0705
 20
-9543.7029
 10
305.2418
 20
-9543.4662
 10
304.4311
 20
-9543.2931
 10
303.6281
 20
-9543.168
 10
302.8225
 20
-9543.0755
 10
302.004
 20
-9543.0002
 10
301.1625
 20
-9542.9264
 10
300.2876
 20
-9542.8389
 10
299.8999
 20
-9542.7865
 10
299.3922
 20
-9542.6994
 10
298.8159
 20
-9542.5795
 10
298.2225
 20
-9542.4284
 10
297.6634
 20
-9542.2478
 10
297.1902
 20
-9542.0396
 10
296.8543
 20
-9541.8053
 10
296.7072
 20
-9541.5467
 10
296.6337
 20
-9540.9068
 10
296.5707
 20
-9540.3518
 10
296.4715
 20
-9539.7791
 10
296.2894
 20
-9539.0858
 10
296.4708
 20
-9538.898
 10
296.6372
 20
-9538.7415
 10
296.8002
 20
-9538.5636
 10
296.9715
 20
-9538.3117
 10
297.1694
 20
-9537.9259
 10
297.2976
 20
-9537.5816
 10
297.374
 20
-9537.2738
 10
297.4171
 20
-9536.9977
 10
297.4447
 20
-9536.7483
 10
297.4752
 20
-9536.5209
 10
297.5266
 20
-9536.3104
 10
297.6172
 20
-9536.1121
 10
298.1378
 20
-9534.9248
 10
298.3899
 20
-9533.6088
 10
298.3675
 20
-9532.2639
 10
298.0645
 20
-9530.9896
 10
297.4749
 20
-9529.8858
 10
296.5928
 20
-9529.0519
 10
295.4121
 20
-9528.5878
 10
293.9269
 20
-9528.5931
 10
293.345
 20
-9528.7256
 10
292.8257
 20
-9528.9125
 10
292.3581
 20
-9529.1464
 10
291.9313
 20
-9529.42
 10
291.5347
 20
-9529.7256
 10
291.1572
 20
-9530.0559
 10
290.7881
 20
-9530.4035
 10
290.4166
 20
-9530.7608
 10
289.2919
 20
-9530.3623
 10
288.1993
 20
-9530.0585
 10
287.0652
 20
-9529.8562
 10
285.9068
 20
-9529.7553
 10
284.7412
 20
-9529.7555
 10
283.5857
 20
-9529.8564
 10
282.4575
 20
-9530.0579
 10
281.3738
 20
-9530.3597
 10
280.3518
 20
-9530.7614
  0
LWPOLYLINE
  5
61
330
1F
100
AcDbEntity
  8
Capa 1
 62
     7
100
AcDbPolyline
 90
       37
 70
     1
 43
0.0
 10
281.259
 20
-9550.9694
 10
281.2745
 20
-9551.4049
 10
281.3468
 20
-9551.9311
 10
281.4459
 20
-9552.4538
 10
281.5419
 20
-9552.8787
 10
281.8191
 20
-9553.7533
 10
282.1648
 20
-9554.5677
 10
282.4977
 20
-9554.9353
 10
282.8951
 20
-9555.4175
 10
283.2695
 20
-9555.8671
 10
283.5334
 20
-9556.1371
 10
284.5943
 20
-9555.7435
 10
286.7059
 20
-9554.9027
 10
287.7932
 20
-9554.5273
 10
287.9395
 20
-9554.1455
 10
288.1265
 20
-9553.752
 10
288.4151
 20
-9552.8953
 10
288.5304
 20
-9552.4021
 10
288.6094
 20
-9551.9035
 10
288.6584
 20
-9551.3901
 10
288.6837
 20
-9550.8522
 10
288.3941
 20
-9551.0038
 10
288.0788
 20
-9551.1959
 10
287.6656
 20
-9551.4207
 10
287.082
 20
-9551.6702
 10
286.5692
 20
-9551.8411
 10
286.0507
 20
-9551.9714
 10
285.5283
 20
-9552.0588
 10
285.0037
 20
-9552.1015
 10
284.4785
 20
-9552.0972
 10
283.9544
 20
-9552.0441
 10
283.4331
 20
-9551.9401
 10
282.9162
 20
-9551.783
 10
282.352
 20
-9551.5456
 10
281.8551
 20
-9551.2906
 10
281.4744
 20
-9551.0783
 10
281.259
 20
-9550.9694
  0
LWPOLYLINE
  5
62
330
1F
100
AcDbEntity
  8
Capa 1
 62
     7
100
AcDbPolyline
 90
       98
 70
     1
 43
0.0
 10
279.5937
 20
-9557.9541
 10
279.4975
 20
-9557.627
 10
279.3415
 20
-9557.3191
 10
279.1356
 20
-9557.0328
 10
278.8897
 20
-9556.7706
 10
278.6138
 20
-9556.535
 10
278.3178
 20
-9556.3283
 10
278.0116
 20
-9556.153
 10
277.7051
 20
-9556.0116
 10
277.3121
 20
-9555.8654
 10
276.9179
 20
-9555.7466
 10
276.519
 20
-9555.6541
 10
276.1123
 20
-9555.5868
 10
275.6944
 20
-9555.5435
 10
275.2621
 20
-9555.5231
 10
274.812
 20
-9555.5245
 10
274.3408
 20
-9555.5465
 10
273.8425
 20
-9555.7236
 10
273.3956
 20
-9556.0134
 10
273.0135
 20
-9556.3968
 10
272.709
 20
-9556.8547
 10
272.4954
 20
-9557.368
 10
272.3857
 20
-9557.9177
 10
272.393
 20
-9558.4847
 10
272.5304
 20
-9559.0498
 10
272.6095
 20
-9559.2348
 10
272.6966
 20
-9559.3847
 10
272.7939
 20
-9559.5063
 10
272.9036
 20
-9559.6061
 10
273.1693
 20
-9559.7668
 10
273.5113
 20
-9559.9201
 10
273.3773
 20
-9559.5602
 10
273.2355
 20
-9559.1122
 10
273.1953
 20
-9558.7522
 10
273.2067
 20
-9558.3659
 10
273.2672
 20
-9557.9789
 10
273.3741
 20
-9557.6168
 10
273.525
 20
-9557.3052
 10
273.7171
 20
-9557.0697
 10
273.948
 20
-9556.936
 10
274.2149
 20
-9556.9295
 10
274.1517
 20
-9557.1896
 10
274.0378
 20
-9557.4422
 10
273.9848
 20
-9557.6411
 10
273.9506
 20
-9557.8677
 10
273.9343
 20
-9558.112
 10
273.9349
 20
-9558.3639
 10
273.9514
 20
-9558.6132
 10
273.9829
 20
-9558.85
 10
274.0282
 20
-9559.0642
 10
274.0865
 20
-9559.2456
 10
274.211
 20
-9559.5093
 10
274.3542
 20
-9559.7183
 10
274.521
 20
-9559.8785
 10
274.7161
 20
-9559.9955
 10
274.9445
 20
-9560.075
 10
275.2109
 20
-9560.1226
 10
275.5203
 20
-9560.144
 10
275.8775
 20
-9560.1449
 10
275.7018
 20
-9559.7503
 10
275.5635
 20
-9559.3016
 10
275.5331
 20
-9559.05
 10
275.5274
 20
-9558.7785
 10
275.5452
 20
-9558.5123
 10
275.5858
 20
-9558.2764
 10
275.6381
 20
-9558.119
 10
275.7264
 20
-9557.9258
 10
275.8436
 20
-9557.7187
 10
275.9826
 20
-9557.5201
 10
276.1366
 20
-9557.352
 10
276.2984
 20
-9557.2368
 10
276.461
 20
-9557.1964
 10
276.6175
 20
-9557.2532
 10
276.6475
 20
-9557.2972
 10
276.6573
 20
-9557.346
 10
276.6508
 20
-9557.3995
 10
276.6318
 20
-9557.4572
 10
276.5717
 20
-9557.5843
 10
276.5081
 20
-9557.7248
 10
276.3714
 20
-9558.2925
 10
276.37
 20
-9558.6062
 10
276.419
 20
-9558.9223
 10
276.5038
 20
-9559.2144
 10
276.61
 20
-9559.4566
 10
276.7882
 20
-9559.734
 10
276.9766
 20
-9559.9244
 10
277.1794
 20
-9560.0385
 10
277.4008
 20
-9560.087
 10
277.6452
 20
-9560.0807
 10
277.9168
 20
-9560.0302
 10
278.2199
 20
-9559.9462
 10
278.5588
 20
-9559.8396
 10
278.6456
 20
-9559.5351
 10
278.7135
 20
-9559.2787
 10
278.8013
 20
-9559.0275
 10
278.948
 20
-9558.739
 10
279.2853
 20
-9558.3064
 10
279.5937
 20
-9557.9541
  0
LWPOLYLINE
  5
63
330
1F
100
AcDbEntity
  8
Capa 1
 62
     7
100
AcDbPolyline
 90
      101
 70
     1
 43
0.0
 10
286.9308
 20
-9561.4834
 10
286.9861
 20
-9560.9312
 10
287.0063
 20
-9560.5068
 10
286.9832
 20
-9560.3087
 10
286.9274
 20
-9560.1022
 10
286.8308
 20
-9559.8736
 10
286.6854
 20
-9559.6095
 10
286.5779
 20
-9559.4492
 10
286.454
 20
-9559.2962
 10
286.316
 20
-9559.1512
 10
286.166
 20
-9559.0147
 10
285.839
 20
-9558.7694
 10
285.4905
 20
-9558.5647
 10
285.0607
 20
-9558.3551
 10
284.6468
 20
-9558.1803
 10
284.2391
 20
-9558.0361
 10
283.8278
 20
-9557.9183
 10
283.4032
 20
-9557.8228
 10
282.9556
 20
-9557.7455
 10
282.4752
 20
-9557.6821
 10
281.9523
 20
-9557.6286
 10
281.6016
 20
-9557.7222
 10
281.2625
 20
-9557.8556
 10
280.9407
 20
-9558.0236
 10
280.6421
 20
-9558.2212
 10
280.3726
 20
-9558.4433
 10
280.1378
 20
-9558.685
 10
279.9437
 20
-9558.941
 10
279.796
 20
-9559.2065
 10
279.6471
 20
-9559.6052
 10
279.5624
 20
-9560.0061
 10
279.5472
 20
-9560.3944
 10
279.6066
 20
-9560.7558
 10
279.7457
 20
-9561.0755
 10
279.9698
 20
-9561.3389
 10
280.2839
 20
-9561.5315
 10
280.6932
 20
-9561.6386
 10
280.5715
 20
-9561.1958
 10
280.4788
 20
-9560.7751
 10
280.4603
 20
-9560.5609
 10
280.4696
 20
-9560.3375
 10
280.5135
 20
-9560.1001
 10
280.5987
 20
-9559.8437
 10
280.6733
 20
-9559.6813
 10
280.7731
 20
-9559.5072
 10
280.8959
 20
-9559.3349
 10
281.0399
 20
-9559.1782
 10
281.2029
 20
-9559.0505
 10
281.3831
 20
-9558.9657
 10
281.5785
 20
-9558.9374
 10
281.7869
 20
-9558.9791
 10
281.7736
 20
-9559.0919
 10
281.6953
 20
-9559.243
 10
281.5792
 20
-9559.4345
 10
281.4525
 20
-9559.6688
 10
281.3424
 20
-9559.9484
 10
281.276
 20
-9560.2755
 10
281.2806
 20
-9560.6524
 10
281.3833
 20
-9561.0815
 10
281.4938
 20
-9561.3342
 10
281.6341
 20
-9561.5484
 10
281.8058
 20
-9561.7246
 10
282.0103
 20
-9561.8631
 10
282.2492
 20
-9561.9645
 10
282.5237
 20
-9562.0291
 10
282.8355
 20
-9562.0575
 10
283.186
 20
-9562.05
 10
283.0213
 20
-9561.6658
 10
282.9111
 20
-9561.2665
 10
282.8846
 20
-9561.0552
 10
282.8817
 20
-9560.8329
 10
282.9056
 20
-9560.5973
 10
282.9595
 20
-9560.346
 10
283.0175
 20
-9560.1727
 10
283.1026
 20
-9559.9854
 10
283.2123
 20
-9559.7982
 10
283.3439
 20
-9559.625
 10
283.4949
 20
-9559.4801
 10
283.6626
 20
-9559.3775
 10
283.8444
 20
-9559.3312
 10
284.0378
 20
-9559.3554
 10
284.0428
 20
-9559.5058
 10
283.991
 20
-9559.6513
 10
283.9131
 20
-9559.802
 10
283.8395
 20
-9559.9679
 10
283.7723
 20
-9560.2231
 10
283.7402
 20
-9560.4912
 10
283.7427
 20
-9560.7643
 10
283.7791
 20
-9561.0349
 10
283.8488
 20
-9561.295
 10
283.9511
 20
-9561.5369
 10
284.0853
 20
-9561.7529
 10
284.251
 20
-9561.9352
 10
284.5075
 20
-9562.0676
 10
284.8441
 20
-9562.1061
 10
285.2321
 20
-9562.0708
 10
285.6424
 20
-9561.9816
 10
286.0463
 20
-9561.8583
 10
286.415
 20
-9561.7209
 10
286.7194
 20
-9561.5893
 10
286.9308
 20
-9561.4834
  0
LWPOLYLINE
  5
64
330
1F
100
AcDbEntity
  8
Capa 1
 62
     7
100
AcDbPolyline
 90
       39
 70
     1
 43
0.0
 10
291.139
 20
-9546.1132
 10
291.0362
 20
-9545.5593
 10
290.8411
 20
-9545.1052
 10
290.5594
 20
-9544.7432
 10
290.1969
 20
-9544.4653
 10
289.7594
 20
-9544.2639
 10
289.2527
 20
-9544.131
 10
288.6826
 20
-9544.0589
 10
288.0548
 20
-9544.0397
 10
288.035
 20
-9544.4686
 10
287.9349
 20
-9544.8638
 10
287.7678
 20
-9545.2238
 10
287.5471
 20
-9545.5469
 10
287.286
 20
-9545.8317
 10
286.9979
 20
-9546.0764
 10
286.6963
 20
-9546.2796
 10
286.3943
 20
-9546.4397
 10
286.0148
 20
-9546.5921
 10
285.6598
 20
-9546.7354
 10
285.502
 20
-9546.822
 10
285.3629
 20
-9546.9282
 10
285.2468
 20
-9547.0615
 10
285.1578
 20
-9547.2291
 10
285.1373
 20
-9547.6365
 10
285.3743
 20
-9548.0054
 10
285.8181
 20
-9548.3181
 10
286.4178
 20
-9548.5572
 10
287.1228
 20
-9548.7049
 10
287.8821
 20
-9548.7438
 10
288.6451
 20
-9548.6561
 10
289.3609
 20
-9548.4244
 10
289.6687
 20
-9548.2683
 10
289.982
 20
-9548.075
 10
290.2858
 20
-9547.8441
 10
290.5651
 20
-9547.5752
 10
290.8051
 20
-9547.268
 10
290.9907
 20
-9546.9222
 10
291.107
 20
-9546.5374
 10
291.139
 20
-9546.1132
  0
LWPOLYLINE
  5
65
330
1F
100
AcDbEntity
  8
Capa 1
 62
     7
100
AcDbPolyline
 90
       41
 70
     1
 43
0.0
 10
278.7164
 20
-9546.232
 10
278.8445
 20
-9546.8139
 10
279.1636
 20
-9547.3818
 10
279.6445
 20
-9547.8969
 10
280.2581
 20
-9548.3202
 10
280.9754
 20
-9548.6131
 10
281.7672
 20
-9548.7367
 10
282.6045
 20
-9548.652
 10
283.4582
 20
-9548.3204
 10
283.61
 20
-9548.2359
 10
283.7629
 20
-9548.1424
 10
283.9059
 20
-9548.0368
 10
284.0278
 20
-9547.9162
 10
284.1177
 20
-9547.7774
 10
284.1644
 20
-9547.6175
 10
284.1569
 20
-9547.4336
 10
284.0841
 20
-9547.2225
 10
283.9125
 20
-9546.9573
 10
283.7064
 20
-9546.7748
 10
283.4688
 20
-9546.642
 10
283.2023
 20
-9546.5261
 10
282.9097
 20
-9546.3941
 10
282.5939
 20
-9546.2133
 10
282.2576
 20
-9545.9507
 10
281.9036
 20
-9545.5734
 10
281.7811
 20
-9545.4104
 10
281.6797
 20
-9545.2473
 10
281.5984
 20
-9545.0799
 10
281.5359
 20
-9544.904
 10
281.4912
 20
-9544.7156
 10
281.4631
 20
-9544.5106
 10
281.4504
 20
-9544.2847
 10
281.452
 20
-9544.034
 10
280.835
 20
-9544.0683
 10
280.2934
 20
-9544.1497
 10
279.829
 20
-9544.289
 10
279.4431
 20
-9544.497
 10
279.1374
 20
-9544.7845
 10
278.9133
 20
-9545.1623
 10
278.7725
 20
-9545.6412
 10
278.7164
 20
-9546.232
  0
LWPOLYLINE
  5
66
330
1F
100
AcDbEntity
  8
Capa 1
 62
     7
100
AcDbPolyline
 90
       78
 70
     1
 43
0.0
 10
305.567
 20
-9558.9426
 10
305.229
 20
-9558.4716
 10
304.8223
 20
-9558.0696
 10
304.3493
 20
-9557.735
 10
303.8122
 20
-9557.4663
 10
303.2136
 20
-9557.2622
 10
302.5556
 20
-9557.1211
 10
301.8407
 20
-9557.0415
 10
301.0713
 20
-9557.022
 10
300.8035
 20
-9557.1025
 10
300.5498
 20
-9557.2044
 10
300.313
 20
-9557.3279
 10
300.096
 20
-9557.4731
 10
299.9016
 20
-9557.64
 10
299.7328
 20
-9557.8288
 10
299.5923
 20
-9558.0396
 10
299.483
 20
-9558.2725
 10
299.4054
 20
-9558.5595
 10
299.3707
 20
-9558.8884
 10
299.3717
 20
-9559.0571
 10
299.3864
 20
-9559.2224
 10
299.4156
 20
-9559.3798
 10
299.4603
 20
-9559.5246
 10
299.528
 20
-9559.6654
 10
299.6064
 20
-9559.7698
 10
299.696
 20
-9559.846
 10
299.7968
 20
-9559.9023
 10
300.0332
 20
-9559.9875
 10
300.3176
 20
-9560.0908
 10
300.2405
 20
-9559.6547
 10
300.1871
 20
-9559.2938
 10
300.1867
 20
-9559.1188
 10
300.2131
 20
-9558.9355
 10
300.2732
 20
-9558.7346
 10
300.3741
 20
-9558.5072
 10
300.4885
 20
-9558.3338
 10
300.6366
 20
-9558.1793
 10
300.7985
 20
-9558.0556
 10
300.9542
 20
-9557.9743
 10
301.0836
 20
-9557.9473
 10
301.1669
 20
-9557.9862
 10
301.1839
 20
-9558.1029
 10
301.1148
 20
-9558.3091
 10
300.9768
 20
-9558.6419
 10
300.8784
 20
-9559.0133
 10
300.8563
 20
-9559.2103
 10
300.8589
 20
-9559.4132
 10
300.8912
 20
-9559.6205
 10
300.9579
 20
-9559.8311
 10
301.0407
 20
-9559.975
 10
301.1567
 20
-9560.0909
 10
301.3002
 20
-9560.1818
 10
301.4654
 20
-9560.2505
 10
301.8376
 20
-9560.3324
 10
302.2271
 20
-9560.3596
 10
302.1425
 20
-9560.0269
 10
302.1103
 20
-9559.6631
 10
302.1315
 20
-9559.295
 10
302.2072
 20
-9558.9492
 10
302.3384
 20
-9558.6523
 10
302.5264
 20
-9558.431
 10
302.7721
 20
-9558.3118
 10
303.0766
 20
-9558.3216
 10
303.021
 20
-9558.6135
 10
302.8837
 20
-9558.9829
 10
302.838
 20
-9559.2164
 10
302.8365
 20
-9559.4929
 10
302.9004
 20
-9559.8201
 10
303.0513
 20
-9560.2061
 10
303.1945
 20
-9560.1341
 10
303.2626
 20
-9560.0465
 10
303.3502
 20
-9559.9161
 10
303.5518
 20
-9559.7158
 10
304.1137
 20
-9559.3464
 10
304.4596
 20
-9559.1947
 10
304.7963
 20
-9559.092
 10
305.155
 20
-9559.0155
 10
305.567
 20
-9558.9426
  0
LWPOLYLINE
  5
67
330
1F
100
AcDbEntity
  8
Capa 1
 62
     7
100
AcDbPolyline
 90
       38
 70
     1
 43
0.0
 10
281.5877
 20
-9549.5354
 10
281.6747
 20
-9549.6793
 10
281.8046
 20
-9549.8312
 10
281.9672
 20
-9549.9862
 10
282.1524
 20
-9550.1392
 10
282.5504
 20
-9550.4193
 10
282.9178
 20
-9550.6312
 10
283.3952
 20
-9550.836
 10
283.8876
 20
-9550.9774
 10
284.3901
 20
-9551.0575
 10
284.8984
 20
-9551.0782
 10
285.4078
 20
-9551.0418
 10
285.9137
 20
-9550.9501
 10
286.4116
 20
-9550.8052
 10
286.8968
 20
-9550.6093
 10
287.2838
 20
-9550.4048
 10
287.6982
 20
-9550.1341
 10
287.8908
 20
-9549.984
 10
288.0606
 20
-9549.8293
 10
288.1976
 20
-9549.674
 10
288.2919
 20
-9549.5223
 10
287.9098
 20
-9549.5517
 10
287.5274
 20
-9549.5515
 10
287.1471
 20
-9549.5231
 10
286.7715
 20
-9549.4679
 10
286.4028
 20
-9549.3873
 10
286.0437
 20
-9549.2827
 10
285.6966
 20
-9549.1554
 10
285.3639
 20
-9549.007
 10
284.6183
 20
-9548.562
 10
284.3
 20
-9548.7781
 10
283.9858
 20
-9548.9729
 10
283.665
 20
-9549.1437
 10
283.327
 20
-9549.2875
 10
282.9609
 20
-9549.4014
 10
282.5561
 20
-9549.4826
 10
282.102
 20
-9549.5283
 10
281.5877
 20
-9549.5354
  0
LWPOLYLINE
  5
68
330
1F
100
AcDbEntity
  8
Capa 1
 62
    40
100
AcDbPolyline
 90
        3
 70
     1
 43
0.0
 10
292.9289
 20
-9558.2307
 10
292.9289
 20
-9558.2307
 10
292.9289
 20
-9558.2307
  0
LWPOLYLINE
  5
69
330
1F
100
AcDbEntity
  8
Capa 1
 62
    40
100
AcDbPolyline
 90
        3
 70
     1
 43
0.0
 10
292.9289
 20
-9558.2307
 10
292.9289
 20
-9558.2307
 10
292.9289
 20
-9558.2307
  0
LWPOLYLINE
  5
6A
330
1F
100
AcDbEntity
  8
Capa 1
 62
    40
100
AcDbPolyline
 90
        3
 70
     1
 43
0.0
 10
286.7482
 20
-9557.359
 10
286.7482
 20
-9557.359
 10
286.7482
 20
-9557.359
  0
LWPOLYLINE
  5
6B
330
1F
100
AcDbEntity
  8
Capa 1
 62
    40
100
AcDbPolyline
 90
        3
 70
     1
 43
0.0
 10
290.958
 20
-9556.5403
 10
290.958
 20
-9556.5403
 10
290.958
 20
-9556.5403
  0
LWPOLYLINE
  5
6C
330
1F
100
AcDbEntity
  8
Capa 1
 62
    40
100
AcDbPolyline
 90
        3
 70
     1
 43
0.0
 10
295.6114
 20
-9554.6216
 10
295.6114
 20
-9554.6216
 10
295.6114
 20
-9554.6216
  0
LWPOLYLINE
  5
6D
330
1F
100
AcDbEntity
  8
Capa 1
 62
    40
100
AcDbPolyline
 90
        3
 70
     1
 43
0.0
 10
297.693
 20
-9547.5643
 10
297.693
 20
-9547.5643
 10
297.693
 20
-9547.5643
  0
LWPOLYLINE
  5
6E
330
1F
100
AcDbEntity
  8
Capa 1
 62
    40
100
AcDbPolyline
 90
        3
 70
     1
 43
0.0
 10
300.9796
 20
-9547.4754
 10
300.9796
 20
-9547.4754
 10
300.9796
 20
-9547.4754
  0
LWPOLYLINE
  5
6F
330
1F
100
AcDbEntity
  8
Capa 1
 62
    40
100
AcDbPolyline
 90
        3
 70
     1
 43
0.0
 10
286.7482
 20
-9557.359
 10
286.7482
 20
-9557.359
 10
286.7482
 20
-9557.359
  0
LWPOLYLINE
  5
70
330
1F
100
AcDbEntity
  8
Capa 1
 62
    40
100
AcDbPolyline
 90
        3
 70
     1
 43
0.0
 10
290.958
 20
-9556.5403
 10
290.958
 20
-9556.5403
 10
290.958
 20
-9556.5403
  0
LWPOLYLINE
  5
71
330
1F
100
AcDbEntity
  8
Capa 1
 62
    40
100
AcDbPolyline
 90
        3
 70
     1
 43
0.0
 10
295.6114
 20
-9554.6216
 10
295.6114
 20
-9554.6216
 10
295.6114
 20
-9554.6216
  0
LWPOLYLINE
  5
72
330
1F
100
AcDbEntity
  8
Capa 1
 62
    40
100
AcDbPolyline
 90
        3
 70
     1
 43
0.0
 10
297.693
 20
-9547.5643
 10
297.693
 20
-9547.5643
 10
297.693
 20
-9547.5643
  0
LWPOLYLINE
  5
73
330
1F
100
AcDbEntity
  8
Capa 1
 62
    40
100
AcDbPolyline
 90
        3
 70
     1
 43
0.0
 10
300.9796
 20
-9547.4754
 10
300.9796
 20
-9547.4754
 10
300.9796
 20
-9547.4754
  0
LWPOLYLINE
  5
74
330
1F
100
AcDbEntity
  8
Capa 1
 62
    40
100
AcDbPolyline
 90
       17
 70
     1
 43
0.0
 10
293.5452
 20
-9545.3764
 10
293.392
 20
-9545.6988
 10
293.1649
 20
-9545.9511
 10
292.8986
 20
-9546.1268
 10
292.6281
 20
-9546.2194
 10
292.3881
 20
-9546.2223
 10
292.2135
 20
-9546.1289
 10
292.1391
 20
-9545.9327
 10
292.1996
 20
-9545.6272
 10
292.3664
 20
-9545.3242
 10
292.5933
 20
-9545.0793
 10
292.8505
 20
-9544.9021
 10
293.1082
 20
-9544.8027
 10
293.3363
 20
-9544.7905
 10
293.5051
 20
-9544.8756
 10
293.5847
 20
-9545.0676
 10
293.5452
 20
-9545.3764
  0
LWPOLYLINE
  5
75
330
1F
100
AcDbEntity
  8
Capa 1
 62
    40
100
AcDbPolyline
 90
       17
 70
     1
 43
0.0
 10
290.5151
 20
-9559.3246
 10
290.2571
 20
-9559.6126
 10
289.9041
 20
-9559.7749
 10
289.5077
 20
-9559.8228
 10
289.1196
 20
-9559.7674
 10
288.7916
 20
-9559.6201
 10
288.5754
 20
-9559.3919
 10
288.5227
 20
-9559.0942
 10
288.6851
 20
-9558.7381
 10
289.0357
 20
-9558.3929
 10
289.4061
 20
-9558.2205
 10
289.7689
 20
-9558.1944
 10
290.0968
 20
-9558.288
 10
290.3627
 20
-9558.4744
 10
290.5392
 20
-9558.7271
 10
290.5991
 20
-9559.0194
 10
290.5151
 20
-9559.3246
  0
LWPOLYLINE
  5
76
330
1F
100
AcDbEntity
  8
Capa 1
 62
    40
100
AcDbPolyline
 90
       76
 70
     1
 43
0.0
 10
274.3408
 20
-9555.5465
 10
274.812
 20
-9555.5245
 10
275.2621
 20
-9555.5231
 10
275.6944
 20
-9555.5435
 10
276.1123
 20
-9555.5868
 10
276.519
 20
-9555.6541
 10
276.9179
 20
-9555.7466
 10
277.3121
 20
-9555.8654
 10
277.7051
 20
-9556.0116
 10
278.0116
 20
-9556.153
 10
278.3178
 20
-9556.3283
 10
278.6138
 20
-9556.535
 10
278.8897
 20
-9556.7706
 10
279.1356
 20
-9557.0328
 10
279.3415
 20
-9557.3191
 10
279.4975
 20
-9557.627
 10
279.5937
 20
-9557.9541
 10
280.0822
 20
-9557.6345
 10
280.5578
 20
-9557.3707
 10
281.0586
 20
-9557.1309
 10
281.4803
 20
-9556.9364
 10
281.7187
 20
-9556.8086
 10
281.5811
 20
-9556.6347
 10
281.4207
 20
-9556.517
 10
281.2437
 20
-9556.4401
 10
281.0561
 20
-9556.3886
 10
280.8639
 20
-9556.3469
 10
280.6733
 20
-9556.2998
 10
280.4903
 20
-9556.2318
 10
280.3211
 20
-9556.1275
 10
280.1974
 20
-9555.9999
 10
280.0975
 20
-9555.8226
 10
280.0672
 20
-9555.7186
 10
280.0555
 20
-9555.6062
 10
280.0669
 20
-9555.4867
 10
280.1055
 20
-9555.3615
 10
280.1627
 20
-9555.2618
 10
280.2352
 20
-9555.1873
 10
280.3186
 20
-9555.1317
 10
280.4081
 20
-9555.0891
 10
280.5875
 20
-9555.018
 10
280.7365
 20
-9554.9252
 10
280.3569
 20
-9554.5054
 10
279.9602
 20
-9554.1346
 10
279.7381
 20
-9553.9733
 10
279.4911
 20
-9553.8311
 10
279.2122
 20
-9553.7101
 10
278.8945
 20
-9553.6127
 10
278.5576
 20
-9553.5545
 10
278.2172
 20
-9553.5436
 10
277.8821
 20
-9553.5767
 10
277.5614
 20
-9553.65
 10
277.2639
 20
-9553.76
 10
276.9984
 20
-9553.9032
 10
276.7741
 20
-9554.0759
 10
276.5996
 20
-9554.2747
 10
276.9025
 20
-9554.2562
 10
277.2829
 20
-9554.2006
 10
277.4784
 20
-9554.1901
 10
277.6648
 20
-9554.2077
 10
277.8324
 20
-9554.2659
 10
277.9718
 20
-9554.377
 10
278.0628
 20
-9554.5305
 10
278.0702
 20
-9554.6694
 10
278.0096
 20
-9554.7922
 10
277.8966
 20
-9554.8975
 10
277.7469
 20
-9554.9835
 10
277.576
 20
-9555.0489
 10
277.3996
 20
-9555.0921
 10
277.2334
 20
-9555.1114
 10
276.4828
 20
-9555.1304
 10
275.6847
 20
-9555.1675
 10
275.2987
 20
-9555.2124
 10
274.9378
 20
-9555.2853
 10
274.6144
 20
-9555.394
 10
274.3408
 20
-9555.5465
  0
LWPOLYLINE
  5
77
330
1F
100
AcDbEntity
  8
Capa 1
 62
    40
100
AcDbPolyline
 90
       31
 70
     1
 43
0.0
 10
282.1648
 20
-9554.5677
 10
281.8191
 20
-9553.7533
 10
281.5419
 20
-9552.8787
 10
281.4459
 20
-9552.4538
 10
281.3468
 20
-9551.9311
 10
281.2745
 20
-9551.4049
 10
281.259
 20
-9550.9694
 10
281.0954
 20
-9550.7944
 10
280.7886
 20
-9550.5236
 10
280.6076
 20
-9550.3569
 10
280.4223
 20
-9550.1716
 10
280.2429
 20
-9549.9699
 10
280.0801
 20
-9549.7533
 10
279.9391
 20
-9549.545
 10
279.8419
 20
-9549.4118
 10
279.7613
 20
-9549.3282
 10
279.6701
 20
-9549.269
 10
279.3476
 20
-9549.122
 10
278.6574
 20
-9548.7681
 10
278.5198
 20
-9549.7464
 10
278.3701
 20
-9550.7324
 10
278.3079
 20
-9551.2353
 10
278.2636
 20
-9551.7487
 10
278.2439
 20
-9552.2752
 10
278.2559
 20
-9552.8178
 10
279.0458
 20
-9552.8824
 10
279.7239
 20
-9553.0434
 10
280.303
 20
-9553.2747
 10
280.796
 20
-9553.5501
 10
281.5752
 20
-9554.1281
 10
282.1648
 20
-9554.5677
  0
LWPOLYLINE
  5
78
330
1F
100
AcDbEntity
  8
Capa 1
 62
    40
100
AcDbPolyline
 90
       42
 70
     1
 43
0.0
 10
311.5449
 20
-9557.611
 10
311.7934
 20
-9557.5118
 10
312.0544
 20
-9557.4411
 10
312.3221
 20
-9557.4009
 10
312.5906
 20
-9557.3936
 10
312.8541
 20
-9557.4215
 10
313.1066
 20
-9557.4868
 10
313.3425
 20
-9557.5918
 10
313.5557
 20
-9557.7388
 10
313.7644
 20
-9557.9744
 10
313.8865
 20
-9558.2391
 10
313.9384
 20
-9558.5207
 10
313.9363
 20
-9558.8074
 10
313.8352
 20
-9559.3478
 10
313.7135
 20
-9559.7645
 10
313.8595
 20
-9559.6699
 10
314.0083
 20
-9559.5195
 10
314.1556
 20
-9559.3256
 10
314.2973
 20
-9559.1006
 10
314.5468
 20
-9558.6062
 10
314.7226
 20
-9558.1348
 10
314.8045
 20
-9557.8015
 10
314.8458
 20
-9557.495
 10
314.8522
 20
-9557.2087
 10
314.8299
 20
-9556.9362
 10
314.7227
 20
-9556.4064
 10
314.5719
 20
-9555.8535
 10
314.4158
 20
-9555.9706
 10
314.0904
 20
-9556.1975
 10
313.7826
 20
-9556.3165
 10
313.4975
 20
-9556.3442
 10
313.24
 20
-9556.2971
 10
313.015
 20
-9556.1918
 10
312.8276
 20
-9556.045
 10
312.6827
 20
-9555.8731
 10
312.5853
 20
-9555.6927
 10
312.4335
 20
-9555.9653
 10
312.3341
 20
-9556.2488
 10
312.1085
 20
-9556.7122
 10
311.8587
 20
-9557.1125
 10
311.6492
 20
-9557.4214
 10
311.5449
 20
-9557.611
  0
LWPOLYLINE
  5
79
330
1F
100
AcDbEntity
  8
Capa 1
 62
    40
100
AcDbPolyline
 90
       50
 70
     1
 43
0.0
 10
308.8694
 20
-9559.3634
 10
309.046
 20
-9559.483
 10
309.2159
 20
-9559.6179
 10
309.3734
 20
-9559.7711
 10
309.5128
 20
-9559.9454
 10
309.6286
 20
-9560.1438
 10
309.715
 20
-9560.369
 10
309.7665
 20
-9560.624
 10
309.7774
 20
-9560.9116
 10
309.738
 20
-9561.2192
 10
309.6526
 20
-9561.4714
 10
309.5322
 20
-9561.6774
 10
309.3882
 20
-9561.8461
 10
309.0734
 20
-9562.1074
 10
308.7976
 20
-9562.3275
 10
309.0154
 20
-9562.3131
 10
309.2689
 20
-9562.264
 10
309.5447
 20
-9562.1887
 10
309.83
 20
-9562.0958
 10
310.3761
 20
-9561.891
 10
310.8023
 20
-9561.7176
 10
312.0895
 20
-9561.0347
 10
312.2018
 20
-9560.9573
 10
312.2855
 20
-9560.8956
 10
312.353
 20
-9560.8272
 10
312.4171
 20
-9560.7297
 10
312.0446
 20
-9560.7814
 10
311.6894
 20
-9560.8077
 10
311.5181
 20
-9560.8004
 10
311.3508
 20
-9560.7734
 10
311.1874
 20
-9560.7226
 10
311.0277
 20
-9560.6434
 10
310.8983
 20
-9560.5503
 10
310.7977
 20
-9560.4444
 10
310.728
 20
-9560.3275
 10
310.6914
 20
-9560.202
 10
310.69
 20
-9560.0696
 10
310.7258
 20
-9559.9326
 10
310.8011
 20
-9559.793
 10
310.918
 20
-9559.6528
 10
310.8823
 20
-9559.6354
 10
310.7519
 20
-9559.5754
 10
310.6405
 20
-9559.5167
 10
310.5484
 20
-9559.4515
 10
310.476
 20
-9559.3719
 10
310.4237
 20
-9559.27
 10
310.3918
 20
-9559.1379
 10
310.3806
 20
-9558.9679
 10
310.3906
 20
-9558.752
 10
308.8694
 20
-9559.3634
  0
LWPOLYLINE
  5
7A
330
1F
100
AcDbEntity
  8
Capa 1
 62
    40
100
AcDbPolyline
 90
       17
 70
     1
 43
0.0
 10
284.6909
 20
-9557.4261
 10
284.8909
 20
-9557.3039
 10
285.0952
 20
-9557.26
 10
285.2924
 20
-9557.2805
 10
285.4713
 20
-9557.3516
 10
285.6206
 20
-9557.4592
 10
285.729
 20
-9557.5895
 10
285.7851
 20
-9557.7286
 10
285.7777
 20
-9557.8626
 10
285.6902
 20
-9557.9838
 10
285.5432
 20
-9558.0519
 10
285.3596
 20
-9558.0683
 10
285.1622
 20
-9558.0345
 10
284.9738
 20
-9557.952
 10
284.8172
 20
-9557.8221
 10
284.7153
 20
-9557.6463
 10
284.6909
 20
-9557.4261
  0
LWPOLYLINE
  5
7B
330
1F
100
AcDbEntity
  8
Capa 1
 62
    40
100
AcDbPolyline
 90
       31
 70
     1
 43
0.0
 10
296.0403
 20
-9558.5027
 10
296.0183
 20
-9558.6615
 10
295.9793
 20
-9558.7979
 10
295.923
 20
-9558.9136
 10
295.8494
 20
-9559.0108
 10
295.7584
 20
-9559.0914
 10
295.6497
 20
-9559.1575
 10
295.5232
 20
-9559.2109
 10
295.3789
 20
-9559.2537
 10
294.8302
 20
-9559.2925
 10
294.4297
 20
-9559.1396
 10
294.1781
 20
-9558.8563
 10
294.0759
 20
-9558.5037
 10
294.1239
 20
-9558.1433
 10
294.3227
 20
-9557.8363
 10
294.6729
 20
-9557.644
 10
295.1753
 20
-9557.6277
 10
295.362
 20
-9557.1324
 10
295.6735
 20
-9556.8011
 10
296.0511
 20
-9556.6276
 10
296.4357
 20
-9556.6053
 10
296.7684
 20
-9556.7279
 10
296.9903
 20
-9556.9888
 10
297.0424
 20
-9557.3818
 10
296.8658
 20
-9557.9004
 10
296.7296
 20
-9558.1553
 10
296.5772
 20
-9558.3625
 10
296.4806
 20
-9558.438
 10
296.3627
 20
-9558.4893
 10
296.2179
 20
-9558.5122
 10
296.0403
 20
-9558.5027
  0
LWPOLYLINE
  5
7C
330
1F
100
AcDbEntity
  8
Capa 1
 62
    40
100
AcDbPolyline
 90
       24
 70
     1
 43
0.0
 10
292.6824
 20
-9556.0974
 10
292.7039
 20
-9555.7176
 10
292.8754
 20
-9555.3924
 10
293.1595
 20
-9555.1399
 10
293.5184
 20
-9554.9785
 10
293.9146
 20
-9554.9262
 10
294.3105
 20
-9555.0014
 10
294.6684
 20
-9555.2222
 10
294.9507
 20
-9555.6069
 10
295.0421
 20
-9555.8647
 10
295.0412
 20
-9556.0555
 10
294.9705
 20
-9556.1904
 10
294.8524
 20
-9556.2807
 10
294.5635
 20
-9556.3728
 10
294.3539
 20
-9556.422
 10
294.0308
 20
-9556.6492
 10
293.8111
 20
-9556.7302
 10
293.5887
 20
-9556.7544
 10
293.3721
 20
-9556.7289
 10
293.1702
 20
-9556.6605
 10
292.9915
 20
-9556.5562
 10
292.8449
 20
-9556.423
 10
292.7389
 20
-9556.2677
 10
292.6824
 20
-9556.0974
  0
LWPOLYLINE
  5
7D
330
1F
100
AcDbEntity
  8
Capa 1
 62
    40
100
AcDbPolyline
 90
       33
 70
     1
 43
0.0
 10
305.0288
 20
-9555.8787
 10
305.0251
 20
-9555.6365
 10
305.0948
 20
-9555.4134
 10
305.2252
 20
-9555.213
 10
305.4034
 20
-9555.0392
 10
305.6164
 20
-9554.8956
 10
305.8515
 20
-9554.7858
 10
306.0958
 20
-9554.7136
 10
306.3365
 20
-9554.6827
 10
306.5918
 20
-9554.6966
 10
306.842
 20
-9554.754
 10
307.0806
 20
-9554.8484
 10
307.3011
 20
-9554.9732
 10
307.4972
 20
-9555.1219
 10
307.6623
 20
-9555.288
 10
307.79
 20
-9555.465
 10
307.874
 20
-9555.6464
 10
307.9279
 20
-9555.9275
 10
307.9002
 20
-9556.1735
 10
307.8018
 20
-9556.382
 10
307.6438
 20
-9556.5504
 10
307.4371
 20
-9556.6763
 10
307.1926
 20
-9556.7573
 10
306.9214
 20
-9556.7909
 10
306.6343
 20
-9556.7747
 10
306.3935
 20
-9556.7313
 10
306.1381
 20
-9556.6673
 10
305.8812
 20
-9556.5834
 10
305.6357
 20
-9556.4798
 10
305.4146
 20
-9556.3571
 10
305.2311
 20
-9556.2157
 10
305.0982
 20
-9556.0561
 10
305.0288
 20
-9555.8787
  0
LWPOLYLINE
  5
7E
330
1F
100
AcDbEntity
  8
Capa 1
 62
    40
100
AcDbPolyline
 90
       41
 70
     1
 43
0.0
 10
310.1736
 20
-9555.5069
 10
309.8382
 20
-9556.0292
 10
309.4195
 20
-9556.1432
 10
308.994
 20
-9555.9518
 10
308.6385
 20
-9555.5581
 10
308.4297
 20
-9555.0649
 10
308.4443
 20
-9554.5754
 10
308.759
 20
-9554.1925
 10
309.4505
 20
-9554.0191
 10
309.463
 20
-9553.7979
 10
309.4922
 20
-9553.599
 10
309.5411
 20
-9553.4227
 10
309.6129
 20
-9553.2698
 10
309.7106
 20
-9553.1405
 10
309.8375
 20
-9553.0354
 10
309.9966
 20
-9552.955
 10
310.191
 20
-9552.8997
 10
310.398
 20
-9552.8794
 10
310.5937
 20
-9552.8988
 10
310.7758
 20
-9552.9514
 10
310.9421
 20
-9553.0307
 10
311.0905
 20
-9553.1302
 10
311.2187
 20
-9553.2434
 10
311.3246
 20
-9553.364
 10
311.4058
 20
-9553.4853
 10
311.4838
 20
-9553.6616
 10
311.5314
 20
-9553.8559
 10
311.5518
 20
-9554.0621
 10
311.548
 20
-9554.2736
 10
311.5229
 20
-9554.4842
 10
311.4796
 20
-9554.6876
 10
311.4212
 20
-9554.8774
 10
311.3506
 20
-9555.0473
 10
311.2488
 20
-9555.23
 10
311.1398
 20
-9555.3679
 10
311.0206
 20
-9555.4655
 10
310.8885
 20
-9555.5273
 10
310.7406
 20
-9555.5578
 10
310.574
 20
-9555.5616
 10
310.386
 20
-9555.5431
 10
310.1736
 20
-9555.5069
  0
LWPOLYLINE
  5
7F
330
1F
100
AcDbEntity
  8
Capa 1
 62
    40
100
AcDbPolyline
 90
       49
 70
     1
 43
0.0
 10
292.4114
 20
-9552.128
 10
292.6803
 20
-9551.7283
 10
293.0281
 20
-9551.4804
 10
293.4171
 20
-9551.3748
 10
293.8101
 20
-9551.4019
 10
294.1694
 20
-9551.5518
 10
294.4576
 20
-9551.8151
 10
294.6374
 20
-9552.1821
 10
294.6711
 20
-9552.6431
 10
294.6303
 20
-9552.8595
 10
294.5574
 20
-9553.0617
 10
294.458
 20
-9553.2484
 10
294.3374
 20
-9553.4187
 10
294.2013
 20
-9553.5713
 10
294.0551
 20
-9553.705
 10
293.9042
 20
-9553.8189
 10
293.7543
 20
-9553.9116
 10
293.4991
 20
-9554.0351
 10
293.2722
 20
-9554.1087
 10
293.0676
 20
-9554.1377
 10
292.8792
 20
-9554.1272
 10
292.701
 20
-9554.0827
 10
292.527
 20
-9554.0092
 10
292.3509
 20
-9553.9122
 10
292.1669
 20
-9553.7968
 10
291.9135
 20
-9553.9163
 10
291.6615
 20
-9554.0096
 10
291.5249
 20
-9554.0298
 10
291.3754
 20
-9554.0237
 10
291.2085
 20
-9553.9846
 10
291.0197
 20
-9553.9059
 10
290.9053
 20
-9553.8362
 10
290.8075
 20
-9553.7498
 10
290.7287
 20
-9553.6476
 10
290.6712
 20
-9553.5306
 10
290.6373
 20
-9553.3997
 10
290.6294
 20
-9553.2557
 10
290.6499
 20
-9553.0996
 10
290.701
 20
-9552.9324
 10
290.8189
 20
-9552.6987
 10
290.9755
 20
-9552.4767
 10
291.1489
 20
-9552.2818
 10
291.3174
 20
-9552.129
 10
291.4722
 20
-9552.0233
 10
291.6098
 20
-9551.9644
 10
291.7362
 20
-9551.944
 10
291.8574
 20
-9551.9538
 10
292.1086
 20
-9552.0305
 10
292.4114
 20
-9552.128
  0
LWPOLYLINE
  5
80
330
1F
100
AcDbEntity
  8
Capa 1
 62
    40
100
AcDbPolyline
 90
       53
 70
     1
 43
0.0
 10
306.6035
 20
-9551.0609
 10
306.7243
 20
-9550.6183
 10
306.9423
 20
-9550.3443
 10
307.2294
 20
-9550.2162
 10
307.5578
 20
-9550.2114
 10
307.8992
 20
-9550.307
 10
308.2259
 20
-9550.4804
 10
308.5097
 20
-9550.7088
 10
308.7226
 20
-9550.9694
 10
308.8026
 20
-9551.1163
 10
308.8798
 20
-9551.2963
 10
308.9486
 20
-9551.5001
 10
309.003
 20
-9551.7183
 10
309.0372
 20
-9551.9416
 10
309.0454
 20
-9552.1607
 10
309.0219
 20
-9552.3661
 10
308.9608
 20
-9552.5486
 10
308.8506
 20
-9552.708
 10
308.7101
 20
-9552.8115
 10
308.5448
 20
-9552.8699
 10
308.3602
 20
-9552.8942
 10
307.9551
 20
-9552.8838
 10
307.5392
 20
-9552.8673
 10
307.5656
 20
-9553.1832
 10
307.5453
 20
-9553.4329
 10
307.51
 20
-9553.5383
 10
307.454
 20
-9553.6335
 10
307.374
 20
-9553.7207
 10
307.2672
 20
-9553.8021
 10
307.0504
 20
-9553.9062
 10
306.8072
 20
-9553.9592
 10
306.5492
 20
-9553.9634
 10
306.2879
 20
-9553.9209
 10
306.0347
 20
-9553.8341
 10
305.8012
 20
-9553.7051
 10
305.5988
 20
-9553.5361
 10
305.439
 20
-9553.3295
 10
305.3634
 20
-9553.1858
 10
305.3179
 20
-9553.0584
 10
305.2983
 20
-9552.9427
 10
305.3007
 20
-9552.834
 10
305.3553
 20
-9552.6195
 10
305.4494
 20
-9552.3779
 10
305.2192
 20
-9552.0672
 10
305.0975
 20
-9551.7582
 10
305.0727
 20
-9551.4653
 10
305.133
 20
-9551.2032
 10
305.2668
 20
-9550.9863
 10
305.4624
 20
-9550.8292
 10
305.708
 20
-9550.7465
 10
305.9921
 20
-9550.7526
 10
306.3213
 20
-9550.8912
 10
306.6035
 20
-9551.0609
  0
LWPOLYLINE
  5
81
330
1F
100
AcDbEntity
  8
Capa 1
 62
    40
100
AcDbPolyline
 90
       43
 70
     1
 43
0.0
 10
300.9791
 20
-9552.3779
 10
301.0608
 20
-9552.5299
 10
301.0936
 20
-9552.6819
 10
301.0836
 20
-9552.8299
 10
301.0367
 20
-9552.97
 10
300.959
 20
-9553.0981
 10
300.8565
 20
-9553.2105
 10
300.7351
 20
-9553.3031
 10
300.6008
 20
-9553.3719
 10
300.358
 20
-9553.4465
 10
300.1769
 20
-9553.457
 10
300.0443
 20
-9553.418
 10
299.9471
 20
-9553.3441
 10
299.8057
 20
-9553.1498
 10
299.6469
 20
-9552.9906
 10
299.3818
 20
-9552.8519
 10
299.1745
 20
-9552.7034
 10
299.092
 20
-9552.6109
 10
299.0232
 20
-9552.4983
 10
298.9678
 20
-9552.3597
 10
298.9257
 20
-9552.1894
 10
298.9054
 20
-9551.6861
 10
299.0243
 20
-9551.2286
 10
299.2577
 20
-9550.8346
 10
299.5807
 20
-9550.522
 10
299.9684
 20
-9550.3085
 10
300.3958
 20
-9550.212
 10
300.8382
 20
-9550.2502
 10
301.2707
 20
-9550.441
 10
301.3771
 20
-9550.5233
 10
301.4723
 20
-9550.6245
 10
301.5539
 20
-9550.7431
 10
301.6197
 20
-9550.8778
 10
301.6673
 20
-9551.0272
 10
301.6945
 20
-9551.19
 10
301.6989
 20
-9551.3647
 10
301.6781
 20
-9551.5501
 10
301.6312
 20
-9551.7417
 10
301.5697
 20
-9551.8871
 10
301.4952
 20
-9551.9968
 10
301.4091
 20
-9552.0812
 10
301.2082
 20
-9552.2167
 10
300.9791
 20
-9552.3779
  0
LWPOLYLINE
  5
82
330
1F
100
AcDbEntity
  8
Capa 1
 62
    40
100
AcDbPolyline
 90
       17
 70
     1
 43
0.0
 10
291.7424
 20
-9549.5798
 10
292.1329
 20
-9549.5552
 10
292.352
 20
-9549.6849
 10
292.4186
 20
-9549.9256
 10
292.3512
 20
-9550.2337
 10
292.1687
 20
-9550.5658
 10
291.8897
 20
-9550.8784
 10
291.5329
 20
-9551.128
 10
291.1172
 20
-9551.2713
 10
290.7029
 20
-9551.2781
 10
290.4663
 20
-9551.148
 10
290.389
 20
-9550.9182
 10
290.4524
 20
-9550.6261
 10
290.638
 20
-9550.3089
 10
290.9272
 20
-9550.0039
 10
291.3015
 20
-9549.7485
 10
291.7424
 20
-9549.5798
  0
LWPOLYLINE
  5
83
330
1F
100
AcDbEntity
  8
Capa 1
 62
    40
100
AcDbPolyline
 90
       43
 70
     1
 43
0.0
 10
294.4082
 20
-9548.9267
 10
294.6757
 20
-9548.4918
 10
294.9687
 20
-9548.2116
 10
295.2737
 20
-9548.0726
 10
295.5772
 20
-9548.0611
 10
295.8658
 20
-9548.1636
 10
296.1258
 20
-9548.3665
 10
296.3439
 20
-9548.6562
 10
296.5065
 20
-9549.0191
 10
296.5673
 20
-9549.2428
 10
296.6019
 20
-9549.4636
 10
296.6099
 20
-9549.6782
 10
296.5912
 20
-9549.8836
 10
296.5455
 20
-9550.0764
 10
296.4726
 20
-9550.2536
 10
296.3724
 20
-9550.4119
 10
296.2445
 20
-9550.5482
 10
296.0978
 20
-9550.6596
 10
295.9327
 20
-9550.7411
 10
295.7425
 20
-9550.7822
 10
295.5201
 20
-9550.7726
 10
295.3152
 20
-9550.7156
 10
295.1904
 20
-9550.6325
 10
295.0895
 20
-9550.5283
 10
294.9565
 20
-9550.408
 10
294.7915
 20
-9550.5319
 10
294.6208
 20
-9550.6615
 10
294.5204
 20
-9550.7117
 10
294.4028
 20
-9550.743
 10
294.263
 20
-9550.749
 10
294.0957
 20
-9550.7227
 10
293.9245
 20
-9550.6489
 10
293.7497
 20
-9550.5201
 10
293.5971
 20
-9550.3578
 10
293.4921
 20
-9550.1834
 10
293.4412
 20
-9550.016
 10
293.42
 20
-9549.8234
 10
293.4374
 20
-9549.6198
 10
293.502
 20
-9549.4192
 10
293.6227
 20
-9549.2355
 10
293.8081
 20
-9549.0828
 10
294.067
 20
-9548.9752
 10
294.4082
 20
-9548.9267
  0
LWPOLYLINE
  5
84
330
1F
100
AcDbEntity
  8
Capa 1
 62
    40
100
AcDbPolyline
 90
       45
 70
     1
 43
0.0
 10
305.5184
 20
-9548.2662
 10
305.33
 20
-9548.1701
 10
305.1605
 20
-9548.0161
 10
305.0969
 20
-9547.9183
 10
305.055
 20
-9547.8071
 10
305.0405
 20
-9547.6829
 10
305.059
 20
-9547.5461
 10
305.155
 20
-9547.3483
 10
305.3142
 20
-9547.1596
 10
305.4951
 20
-9546.9994
 10
305.6562
 20
-9546.8872
 10
306.4614
 20
-9546.5691
 10
307.1923
 20
-9546.5597
 10
307.8205
 20
-9546.7868
 10
308.3174
 20
-9547.178
 10
308.6544
 20
-9547.6611
 10
308.8029
 20
-9548.1638
 10
308.7344
 20
-9548.6138
 10
308.4203
 20
-9548.9388
 10
308.283
 20
-9548.9981
 10
308.1546
 20
-9549.0279
 10
308.0325
 20
-9549.0344
 10
307.9141
 20
-9549.0237
 10
307.678
 20
-9548.9754
 10
307.4256
 20
-9548.932
 10
307.3484
 20
-9549.1289
 10
307.2726
 20
-9549.2918
 10
307.2192
 20
-9549.3603
 10
307.1471
 20
-9549.4202
 10
307.0497
 20
-9549.4713
 10
306.9209
 20
-9549.5136
 10
306.7119
 20
-9549.5467
 10
306.491
 20
-9549.5449
 10
306.267
 20
-9549.5117
 10
306.0484
 20
-9549.4502
 10
305.8438
 20
-9549.364
 10
305.6619
 20
-9549.2563
 10
305.5114
 20
-9549.1305
 10
305.4008
 20
-9548.99
 10
305.3364
 20
-9548.8429
 10
305.3175
 20
-9548.6939
 10
305.3437
 20
-9548.5448
 10
305.415
 20
-9548.3974
 10
305.4643
 20
-9548.3314
 10
305.5184
 20
-9548.2662
  0
LWPOLYLINE
  5
85
330
1F
100
AcDbEntity
  8
Capa 1
 62
    40
100
AcDbPolyline
 90
       17
 70
     1
 43
0.0
 10
296.0993
 20
-9546.1804
 10
296.2989
 20
-9546.1683
 10
296.4814
 20
-9546.2621
 10
296.6341
 20
-9546.4327
 10
296.7445
 20
-9546.6512
 10
296.8
 20
-9546.8886
 10
296.7881
 20
-9547.1159
 10
296.6962
 20
-9547.3041
 10
296.5116
 20
-9547.4242
 10
296.2776
 20
-9547.4421
 10
296.0793
 20
-9547.353
 10
295.9249
 20
-9547.1857
 10
295.8225
 20
-9546.9688
 10
295.7806
 20
-9546.7311
 10
295.8072
 20
-9546.5013
 10
295.9107
 20
-9546.3082
 10
296.0993
 20
-9546.1804
  0
LWPOLYLINE
  5
86
330
1F
100
AcDbEntity
  8
Capa 1
 62
    40
100
AcDbPolyline
 90
       17
 70
     1
 43
0.0
 10
297.2482
 20
-9545.6943
 10
297.0209
 20
-9545.72
 10
296.8401
 20
-9545.6838
 10
296.7046
 20
-9545.5967
 10
296.6128
 20
-9545.4696
 10
296.5633
 20
-9545.3136
 10
296.5547
 20
-9545.1396
 10
296.5855
 20
-9544.9586
 10
296.6543
 20
-9544.7817
 10
296.8666
 20
-9544.7661
 10
297.043
 20
-9544.8084
 10
297.1817
 20
-9544.8982
 10
297.281
 20
-9545.025
 10
297.339
 20
-9545.1785
 10
297.3541
 20
-9545.3482
 10
297.3244
 20
-9545.5236
 10
297.2482
 20
-9545.6943
  0
LWPOLYLINE
  5
87
330
1F
100
AcDbEntity
  8
Capa 1
 62
    40
100
AcDbPolyline
 90
      376
 70
     1
 43
0.0
 10
288.6837
 20
-9550.8522
 10
288.6584
 20
-9551.3901
 10
288.6094
 20
-9551.9035
 10
288.5304
 20
-9552.4021
 10
288.4151
 20
-9552.8953
 10
288.1265
 20
-9553.752
 10
287.9395
 20
-9554.1455
 10
287.7932
 20
-9554.5273
 10
288.8219
 20
-9554.2881
 10
289.1608
 20
-9554.2357
 10
289.5908
 20
-9554.1911
 10
290.0724
 20
-9554.1646
 10
290.5662
 20
-9554.1666
 10
291.0327
 20
-9554.2074
 10
291.4324
 20
-9554.2973
 10
291.7259
 20
-9554.4467
 10
291.8737
 20
-9554.666
 10
291.7248
 20
-9554.7319
 10
291.504
 20
-9554.7717
 10
291.2186
 20
-9554.7967
 10
290.8763
 20
-9554.8181
 10
290.4843
 20
-9554.8469
 10
290.0502
 20
-9554.8944
 10
289.5814
 20
-9554.9718
 10
289.0853
 20
-9555.0902
 10
288.4547
 20
-9555.2792
 10
287.8537
 20
-9555.4815
 10
287.2709
 20
-9555.6977
 10
286.6949
 20
-9555.9286
 10
284.3697
 20
-9556.8282
 10
283.8499
 20
-9556.9871
 10
283.0853
 20
-9557.2167
 10
282.3586
 20
-9557.4522
 10
281.9523
 20
-9557.6286
 10
282.4752
 20
-9557.6821
 10
282.9556
 20
-9557.7455
 10
283.4032
 20
-9557.8228
 10
283.8278
 20
-9557.9183
 10
284.2391
 20
-9558.0361
 10
284.6468
 20
-9558.1803
 10
285.0607
 20
-9558.3551
 10
285.4905
 20
-9558.5647
 10
285.839
 20
-9558.7694
 10
286.166
 20
-9559.0147
 10
286.316
 20
-9559.1512
 10
286.454
 20
-9559.2962
 10
286.5779
 20
-9559.4492
 10
286.6854
 20
-9559.6095
 10
286.8308
 20
-9559.8736
 10
286.9274
 20
-9560.1022
 10
286.9832
 20
-9560.3087
 10
287.0063
 20
-9560.5068
 10
286.9861
 20
-9560.9312
 10
286.9308
 20
-9561.4834
 10
287.1701
 20
-9561.3835
 10
287.3985
 20
-9561.2606
 10
287.6197
 20
-9561.1241
 10
287.8376
 20
-9560.9832
 10
288.0557
 20
-9560.847
 10
288.2777
 20
-9560.7249
 10
288.5075
 20
-9560.6259
 10
288.7486
 20
-9560.5594
 10
289.4243
 20
-9560.4485
 10
290.3593
 20
-9560.3162
 10
291.4573
 20
-9560.1696
 10
292.6221
 20
-9560.0156
 10
293.7576
 20
-9559.8613
 10
294.7675
 20
-9559.7137
 10
295.5557
 20
-9559.5799
 10
296.0259
 20
-9559.467
 10
296.2224
 20
-9559.3719
 10
296.4112
 20
-9559.235
 10
296.59
 20
-9559.0639
 10
296.7568
 20
-9558.8662
 10
296.9094
 20
-9558.6496
 10
297.0456
 20
-9558.4215
 10
297.1633
 20
-9558.1896
 10
297.2603
 20
-9557.9615
 10
297.4247
 20
-9557.4329
 10
297.5475
 20
-9556.8313
 10
297.6317
 20
-9556.1789
 10
297.6803
 20
-9555.4978
 10
297.6964
 20
-9554.8104
 10
297.6831
 20
-9554.1387
 10
297.6432
 20
-9553.5049
 10
297.58
 20
-9552.9314
 10
297.431
 20
-9551.7189
 10
297.4198
 20
-9551.5372
 10
297.4251
 20
-9551.3732
 10
297.4497
 20
-9551.2287
 10
297.4965
 20
-9551.1055
 10
297.5686
 20
-9551.0052
 10
297.6687
 20
-9550.9298
 10
297.7999
 20
-9550.8808
 10
297.9651
 20
-9550.8601
 10
298.119
 20
-9551.0557
 10
298.2564
 20
-9551.372
 10
298.3771
 20
-9551.7749
 10
298.4811
 20
-9552.2308
 10
298.6388
 20
-9553.1661
 10
298.7291
 20
-9553.9072
 10
298.801
 20
-9554.7919
 10
298.8353
 20
-9555.7095
 10
298.8218
 20
-9556.6247
 10
298.7501
 20
-9557.5023
 10
299.0598
 20
-9557.2098
 10
299.5757
 20
-9556.7244
 10
299.7989
 20
-9556.5587
 10
299.8906
 20
-9556.452
 10
299.6693
 20
-9556.2983
 10
299.5289
 20
-9556.0607
 10
299.4672
 20
-9555.7664
 10
299.4818
 20
-9555.443
 10
299.5706
 20
-9555.1177
 10
299.7313
 20
-9554.8181
 10
299.9617
 20
-9554.5713
 10
300.2596
 20
-9554.405
 10
300.4438
 20
-9554.356
 10
300.6247
 20
-9554.3385
 10
300.7979
 20
-9554.3505
 10
300.9594
 20
-9554.3902
 10
301.1048
 20
-9554.4558
 10
301.23
 20
-9554.5454
 10
301.3307
 20
-9554.6573
 10
301.4027
 20
-9554.7895
 10
301.4548
 20
-9554.9771
 10
301.4641
 20
-9555.1544
 10
301.44
 20
-9555.323
 10
301.3919
 20
-9555.4843
 10
301.2613
 20
-9555.7919
 10
301.1475
 20
-9556.0897
 10
302.1636
 20
-9555.9038
 10
302.0855
 20
-9555.641
 10
301.9367
 20
-9555.2422
 10
301.8568
 20
-9554.9778
 10
301.7845
 20
-9554.6625
 10
301.7283
 20
-9554.2907
 10
301.6965
 20
-9553.8569
 10
301.7698
 20
-9552.7799
 10
302.0392
 20
-9551.8353
 10
302.4563
 20
-9551.0328
 10
302.9729
 20
-9550.3821
 10
303.5406
 20
-9549.8929
 10
304.1112
 20
-9549.575
 10
304.6362
 20
-9549.4381
 10
305.0675
 20
-9549.4919
 10
305.0279
 20
-9549.6027
 10
304.942
 20
-9549.6923
 10
304.8141
 20
-9549.7776
 10
304.6488
 20
-9549.8756
 10
304.4504
 20
-9550.0032
 10
304.2234
 20
-9550.1773
 10
303.9723
 20
-9550.4149
 10
303.7014
 20
-9550.7329
 10
303.4489
 20
-9551.1083
 10
303.2001
 20
-9551.5868
 10
303.0948
 20
-9551.8483
 10
303.0119
 20
-9552.1159
 10
302.9585
 20
-9552.383
 10
302.9416
 20
-9552.6431
 10
303.2243
 20
-9552.4868
 10
303.5973
 20
-9552.3499
 10
303.8019
 20
-9552.3253
 10
304.0102
 20
-9552.3496
 10
304.2159
 20
-9552.4373
 10
304.4127
 20
-9552.6032
 10
304.5554
 20
-9552.8112
 10
304.6204
 20
-9553.0222
 10
304.6195
 20
-9553.2301
 10
304.5643
 20
-9553.429
 10
304.4666
 20
-9553.613
 10
304.3382
 20
-9553.7759
 10
304.1909
 20
-9553.9118
 10
304.0363
 20
-9554.0148
 10
304.117
 20
-9554.1518
 10
304.2077
 20
-9554.3752
 10
304.2284
 20
-9554.5063
 10
304.2176
 20
-9554.6433
 10
304.1639
 20
-9554.7809
 10
304.056
 20
-9554.914
 10
303.9331
 20
-9555.0047
 10
303.8136
 20
-9555.0513
 10
303.6978
 20
-9555.0631
 10
303.5863
 20
-9555.0493
 10
303.3775
 20
-9554.9818
 10
303.1904
 20
-9554.9227
 10
303.2469
 20
-9555.1834
 10
303.3445
 20
-9555.4195
 10
303.4682
 20
-9555.6313
 10
303.6031
 20
-9555.8193
 10
303.8058
 20
-9555.9668
 10
304.1448
 20
-9556.1085
 10
304.5697
 20
-9556.2525
 10
305.0301
 20
-9556.4071
 10
305.4755
 20
-9556.5806
 10
305.8555
 20
-9556.7813
 10
306.1197
 20
-9557.0175
 10
306.2176
 20
-9557.2974
 10
305.8916
 20
-9557.301
 10
305.3782
 20
-9557.2019
 10
304.7258
 20
-9557.046
 10
303.9827
 20
-9556.8794
 10
303.1973
 20
-9556.7477
 10
302.4181
 20
-9556.697
 10
301.6933
 20
-9556.7731
 10
301.0713
 20
-9557.022
 10
301.8407
 20
-9557.0415
 10
302.5556
 20
-9557.1211
 10
303.2136
 20
-9557.2622
 10
303.8122
 20
-9557.4663
 10
304.3493
 20
-9557.735
 10
304.8223
 20
-9558.0696
 10
305.229
 20
-9558.4716
 10
305.567
 20
-9558.9426
 10
306.2992
 20
-9558.8991
 10
307.0419
 20
-9558.8064
 10
307.7741
 20
-9558.6992
 10
308.4751
 20
-9558.6123
 10
308.2858
 20
-9558.4547
 10
308.0929
 20
-9558.3134
 10
308.009
 20
-9558.2307
 10
307.941
 20
-9558.1302
 10
307.8943
 20
-9558.0046
 10
307.8747
 20
-9557.8467
 10
307.9253
 20
-9557.5532
 10
308.0795
 20
-9557.2902
 10
308.3189
 20
-9557.0768
 10
308.6252
 20
-9556.9319
 10
308.98
 20
-9556.8747
 10
309.3651
 20
-9556.9243
 10
309.762
 20
-9557.0997
 10
310.1524
 20
-9557.4201
 10
310.2284
 20
-9557.507
 10
310.2544
 20
-9557.5408
 10
310.2868
 20
-9557.557
 10
310.3819
 20
-9557.5915
 10
310.5037
 20
-9557.5184
 10
310.6396
 20
-9557.4026
 10
310.7831
 20
-9557.2554
 10
310.9273
 20
-9557.0879
 10
311.1918
 20
-9556.7364
 10
311.3799
 20
-9556.4373
 10
311.588
 20
-9556.0152
 10
311.759
 20
-9555.5832
 10
311.8935
 20
-9555.1417
 10
311.9918
 20
-9554.6914
 10
312.0545
 20
-9554.2328
 10
312.082
 20
-9553.7666
 10
312.0748
 20
-9553.2932
 10
312.0334
 20
-9552.8133
 10
311.9517
 20
-9552.3156
 10
311.8469
 20
-9551.8725
 10
311.7349
 20
-9551.4499
 10
311.6316
 20
-9551.0135
 10
311.5185
 20
-9551.1815
 10
311.4484
 20
-9551.3043
 10
311.4064
 20
-9551.3548
 10
311.3475
 20
-9551.4012
 10
311.2623
 20
-9551.4461
 10
311.1417
 20
-9551.4917
 10
311.2152
 20
-9551.9448
 10
311.0819
 20
-9552.1837
 10
310.8115
 20
-9552.2402
 10
310.4736
 20
-9552.1461
 10
310.1377
 20
-9551.9333
 10
309.8737
 20
-9551.6335
 10
309.7509
 20
-9551.2788
 10
309.8392
 20
-9550.9008
 10
309.9044
 20
-9550.7915
 10
309.7723
 20
-9550.6704
 10
309.6629
 20
-9550.5665
 10
309.5708
 20
-9550.4438
 10
309.4908
 20
-9550.2658
 10
309.4231
 20
-9549.9458
 10
309.4498
 20
-9549.6807
 10
309.5538
 20
-9549.4742
 10
309.7179
 20
-9549.3299
 10
309.925
 20
-9549.2514
 10
310.1578
 20
-9549.2424
 10
310.3993
 20
-9549.3064
 10
310.6322
 20
-9549.4471
 10
310.7164
 20
-9549.5212
 10
310.7735
 20
-9549.5651
 10
310.8488
 20
-9549.5853
 10
310.988
 20
-9549.5885
 10
310.8623
 20
-9549.2428
 10
310.6505
 20
-9548.8514
 10
310.3737
 20
-9548.4337
 10
310.0528
 20
-9548.0087
 10
309.709
 20
-9547.5958
 10
309.3633
 20
-9547.2142
 10
309.0368
 20
-9546.8829
 10
308.7504
 20
-9546.6214
 10
308.4422
 20
-9546.3726
 10
308.0601
 20
-9546.0886
 10
307.6253
 20
-9545.7895
 10
307.1592
 20
-9545.4956
 10
306.683
 20
-9545.2273
 10
306.2181
 20
-9545.0047
 10
305.7858
 20
-9544.8481
 10
305.4074
 20
-9544.7779
 10
305.5367
 20
-9544.9674
 10
305.6658
 20
-9545.205
 10
305.7019
 20
-9545.3361
 10
305.7039
 20
-9545.4723
 10
305.6603
 20
-9545.6112
 10
305.5598
 20
-9545.7505
 10
305.3771
 20
-9545.8837
 10
305.1484
 20
-9545.9616
 10
304.8886
 20
-9545.9861
 10
304.613
 20
-9545.9591
 10
304.3367
 20
-9545.8824
 10
304.0749
 20
-9545.7579
 10
303.8428
 20
-9545.5874
 10
303.6554
 20
-9545.373
 10
303.5638
 20
-9545.2284
 10
303.5008
 20
-9545.1049
 10
303.4639
 20
-9544.9953
 10
303.4508
 20
-9544.8926
 10
303.4856
 20
-9544.6788
 10
303.5855
 20
-9544.4061
 10
302.8283
 20
-9544.2646
 10
301.8653
 20
-9544.1511
 10
300.8889
 20
-9544.079
 10
300.0917
 20
-9544.0622
 10
300.2324
 20
-9544.2582
 10
300.4232
 20
-9544.4838
 10
300.5049
 20
-9544.6142
 10
300.56
 20
-9544.7598
 10
300.5756
 20
-9544.9234
 10
300.5386
 20
-9545.1074
 10
300.4705
 20
-9545.2327
 10
300.3655
 20
-9545.336
 10
300.2306
 20
-9545.4177
 10
300.0726
 20
-9545.4782
 10
299.8986
 20
-9545.518
 10
299.7156
 20
-9545.5373
 10
299.5304
 20
-9545.5367
 10
299.3501
 20
-9545.5165
 10
299.1862
 20
-9545.4791
 10
299.0298
 20
-9545.4259
 10
298.8821
 20
-9545.3595
 10
298.7441
 20
-9545.2824
 10
298.5017
 20
-9545.1066
 10
298.3116
 20
-9544.9195
 10
298.2054
 20
-9544.7862
 10
298.1206
 20
-9544.6553
 10
298.0546
 20
-9544.5224
 10
298.0047
 20
-9544.3833
 10
297.9426
 20
-9544.0689
 10
297.9129
 20
-9543.6775
 10
297.5446
 20
-9543.5658
 10
297.2108
 20
-9543.4189
 10
296.9008
 20
-9543.2537
 10
296.604
 20
-9543.0873
 10
296.4526
 20
-9543.8808
 10
296.2366
 20
-9544.6052
 10
295.9562
 20
-9545.2677
 10
295.6117
 20
-9545.8755
 10
295.2035
 20
-9546.4355
 10
294.7319
 20
-9546.9549
 10
294.1972
 20
-9547.4408
 10
293.5996
 20
-9547.9004
 10
293.2458
 20
-9548.1336
 10
292.8562
 20
-9548.3572
 10
292.4392
 20
-9548.5706
 10
292.0031
 20
-9548.7731
 10
291.1075
 20
-9549.1423
 10
290.2367
 20
-9549.4592
 10
290.1117
 20
-9549.5167
 10
289.9956
 20
-9549.5967
 10
289.8833
 20
-9549.6967
 10
289.7698
 20
-9549.8139
 10
289.5196
 20
-9550.0892
 10
289.2051
 20
-9550.4012
 10
288.6837
 20
-9550.8522
  0
LWPOLYLINE
  5
88
330
1F
100
AcDbEntity
  8
Capa 1
 62
    40
100
AcDbPolyline
 90
       21
 70
     1
 43
0.0
 10
276.807
 20
-9545.2669
 10
276.789
 20
-9545.0758
 10
276.8092
 20
-9544.9313
 10
276.8623
 20
-9544.8308
 10
276.943
 20
-9544.772
 10
277.0459
 20
-9544.7523
 10
277.1656
 20
-9544.7692
 10
277.2968
 20
-9544.8204
 10
277.4342
 20
-9544.9034
 10
277.6061
 20
-9545.0368
 10
277.7735
 20
-9545.2013
 10
277.9179
 20
-9545.3984
 10
278.0206
 20
-9545.6299
 10
278.0454
 20
-9545.8825
 10
277.9567
 20
-9546.0373
 10
277.786
 20
-9546.1007
 10
277.565
 20
-9546.0788
 10
277.325
 20
-9545.9782
 10
277.0976
 20
-9545.8051
 10
276.9145
 20
-9545.5659
 10
276.807
 20
-9545.2669
  0
LWPOLYLINE
  5
89
330
1F
100
AcDbEntity
  8
Capa 1
 62
    40
100
AcDbPolyline
 90
       31
 70
     1
 43
0.0
 10
293.2649
 20
-9543.1337
 10
293.2104
 20
-9543.3058
 10
293.1262
 20
-9543.4749
 10
293.0171
 20
-9543.6371
 10
292.8875
 20
-9543.7884
 10
292.7421
 20
-9543.925
 10
292.5856
 20
-9544.0427
 10
292.4225
 20
-9544.1379
 10
292.2575
 20
-9544.2064
 10
292.0136
 20
-9544.2541
 10
291.7931
 20
-9544.2368
 10
291.6046
 20
-9544.1627
 10
291.4568
 20
-9544.0403
 10
291.3584
 20
-9543.8777
 10
291.3182
 20
-9543.6833
 10
291.3448
 20
-9543.4654
 10
291.4469
 20
-9543.2323
 10
291.7166
 20
-9542.9497
 10
291.9556
 20
-9542.7006
 10
292.0468
 20
-9542.5166
 10
292.129
 20
-9542.3558
 10
292.2354
 20
-9542.219
 10
292.3994
 20
-9542.1072
 10
292.6412
 20
-9542.0273
 10
292.8471
 20
-9542.0316
 10
293.0161
 20
-9542.1077
 10
293.1469
 20
-9542.2433
 10
293.2383
 20
-9542.4261
 10
293.2893
 20
-9542.6436
 10
293.2985
 20
-9542.8836
 10
293.2649
 20
-9543.1337
  0
LWPOLYLINE
  5
8A
330
1F
100
AcDbEntity
  8
Capa 1
 62
    40
100
AcDbPolyline
 90
       25
 70
     1
 43
0.0
 10
277.2209
 20
-9541.9987
 10
277.4918
 20
-9542.0039
 10
277.6706
 20
-9542.0635
 10
277.7831
 20
-9542.1664
 10
277.8551
 20
-9542.3013
 10
277.9122
 20
-9542.4567
 10
277.9805
 20
-9542.6216
 10
278.0855
 20
-9542.7844
 10
278.2531
 20
-9542.934
 10
278.4465
 20
-9543.0987
 10
278.5768
 20
-9543.2816
 10
278.6496
 20
-9543.4726
 10
278.6705
 20
-9543.6615
 10
278.6453
 20
-9543.8383
 10
278.5795
 20
-9543.993
 10
278.4789
 20
-9544.1153
 10
278.3491
 20
-9544.1953
 10
278.035
 20
-9544.2261
 10
277.7259
 20
-9544.1009
 10
277.4438
 20
-9543.8541
 10
277.2113
 20
-9543.52
 10
277.0504
 20
-9543.1331
 10
276.9835
 20
-9542.7276
 10
277.0329
 20
-9542.338
 10
277.2209
 20
-9541.9987
  0
LWPOLYLINE
  5
8B
330
1F
100
AcDbEntity
  8
Capa 1
 62
    40
100
AcDbPolyline
 90
       17
 70
     1
 43
0.0
 10
292.9144
 20
-9540.4533
 10
292.8888
 20
-9539.9064
 10
293.0226
 20
-9539.504
 10
293.27
 20
-9539.2494
 10
293.5855
 20
-9539.1454
 10
293.9233
 20
-9539.1952
 10
294.2378
 20
-9539.4018
 10
294.4834
 20
-9539.7683
 10
294.6144
 20
-9540.2977
 10
294.5976
 20
-9540.8223
 10
294.4573
 20
-9541.216
 10
294.2273
 20
-9541.4721
 10
293.9414
 20
-9541.5838
 10
293.6334
 20
-9541.5444
 10
293.337
 20
-9541.3474
 10
293.0861
 20
-9540.9859
 10
292.9144
 20
-9540.4533
  0
LWPOLYLINE
  5
8C
330
1F
100
AcDbEntity
  8
Capa 1
 62
    40
100
AcDbPolyline
 90
       23
 70
     1
 43
0.0
 10
277.2506
 20
-9540.4533
 10
277.1605
 20
-9540.8029
 10
277.0236
 20
-9541.1439
 10
276.9311
 20
-9541.2867
 10
276.819
 20
-9541.3979
 10
276.6849
 20
-9541.4677
 10
276.526
 20
-9541.4862
 10
276.3606
 20
-9541.4479
 10
276.2249
 20
-9541.3603
 10
276.1169
 20
-9541.2323
 10
276.0348
 20
-9541.0724
 10
275.9765
 20
-9540.8894
 10
275.9401
 20
-9540.6918
 10
275.9236
 20
-9540.4884
 10
275.9251
 20
-9540.2879
 10
276.015
 20
-9539.8424
 10
276.2062
 20
-9539.5349
 10
276.459
 20
-9539.363
 10
276.7334
 20
-9539.3242
 10
276.9896
 20
-9539.4162
 10
277.1878
 20
-9539.6366
 10
277.288
 20
-9539.9831
 10
277.2506
 20
-9540.4533
  0
LWPOLYLINE
  5
8D
330
1F
100
AcDbEntity
  8
Capa 1
 62
    40
100
AcDbPolyline
 90
       43
 70
     1
 43
0.0
 10
291.5146
 20
-9540.2932
 10
291.5296
 20
-9540.6273
 10
291.5421
 20
-9540.9051
 10
291.5338
 20
-9541.0378
 10
291.5085
 20
-9541.1741
 10
291.4608
 20
-9541.32
 10
291.3853
 20
-9541.4815
 10
291.2359
 20
-9541.7196
 10
291.0545
 20
-9541.9349
 10
290.8451
 20
-9542.1233
 10
290.6112
 20
-9542.2802
 10
290.3568
 20
-9542.4013
 10
290.0855
 20
-9542.4823
 10
289.8012
 20
-9542.5188
 10
289.5076
 20
-9542.5064
 10
289.1619
 20
-9542.4411
 10
288.9101
 20
-9542.3512
 10
288.692
 20
-9542.2355
 10
288.4474
 20
-9542.093
 10
288.3067
 20
-9542.1567
 10
288.2093
 20
-9542.2166
 10
288.0938
 20
-9542.2543
 10
287.8989
 20
-9542.2514
 10
287.7894
 20
-9542.0806
 10
287.7204
 20
-9541.874
 10
287.6871
 20
-9541.6414
 10
287.6843
 20
-9541.3926
 10
287.7072
 20
-9541.137
 10
287.7507
 20
-9540.8845
 10
287.8097
 20
-9540.6446
 10
287.8794
 20
-9540.4272
 10
288.3343
 20
-9539.6035
 10
288.9276
 20
-9539.1198
 10
289.5985
 20
-9538.9193
 10
290.2862
 20
-9538.9453
 10
290.9299
 20
-9539.141
 10
291.4686
 20
-9539.4499
 10
291.8416
 20
-9539.815
 10
291.9881
 20
-9540.1798
 10
291.8776
 20
-9540.2468
 10
291.7782
 20
-9540.2807
 10
291.6654
 20
-9540.2925
 10
291.5146
 20
-9540.2932
  0
LWPOLYLINE
  5
8E
330
1F
100
AcDbEntity
  8
Capa 1
 62
    40
100
AcDbPolyline
 90
       40
 70
     1
 43
0.0
 10
281.2818
 20
-9542.1941
 10
281.0073
 20
-9542.3266
 10
280.7447
 20
-9542.4295
 10
280.4903
 20
-9542.4988
 10
280.2404
 20
-9542.5301
 10
279.9912
 20
-9542.5196
 10
279.739
 20
-9542.4629
 10
279.4801
 20
-9542.356
 10
279.2107
 20
-9542.1947
 10
279.0203
 20
-9542.0402
 10
278.8507
 20
-9541.8529
 10
278.7067
 20
-9541.6352
 10
278.5933
 20
-9541.3896
 10
278.5154
 20
-9541.1188
 10
278.4778
 20
-9540.8252
 10
278.4855
 20
-9540.5114
 10
278.5434
 20
-9540.1798
 10
278.1261
 20
-9540.0028
 10
278.1309
 20
-9539.9
 10
278.1614
 20
-9539.8049
 10
278.2128
 20
-9539.7171
 10
278.2801
 20
-9539.6362
 10
278.4435
 20
-9539.4931
 10
278.6132
 20
-9539.3718
 10
279.196
 20
-9539.0428
 10
279.7323
 20
-9538.8913
 10
280.2192
 20
-9538.9039
 10
280.6538
 20
-9539.0671
 10
281.0333
 20
-9539.3675
 10
281.3549
 20
-9539.7917
 10
281.6156
 20
-9540.3262
 10
281.8126
 20
-9540.9575
 10
281.9326
 20
-9541.5822
 10
281.9475
 20
-9541.9929
 10
281.8834
 20
-9542.2296
 10
281.766
 20
-9542.3319
 10
281.6212
 20
-9542.3397
 10
281.475
 20
-9542.2928
 10
281.3532
 20
-9542.231
 10
281.2818
 20
-9542.1941
  0
LWPOLYLINE
  5
8F
330
1F
100
AcDbEntity
  8
Capa 1
 62
    40
100
AcDbPolyline
 90
       17
 70
     1
 43
0.0
 10
290.1476
 20
-9537.5542
 10
290.1343
 20
-9537.3083
 10
290.198
 20
-9537.1405
 10
290.3174
 20
-9537.0454
 10
290.471
 20
-9537.0172
 10
290.6377
 20
-9537.0504
 10
290.7961
 20
-9537.1394
 10
290.9249
 20
-9537.2786
 10
291.0028
 20
-9537.4624
 10
291.0169
 20
-9537.697
 10
290.9527
 20
-9537.8581
 10
290.8319
 20
-9537.9507
 10
290.6766
 20
-9537.9795
 10
290.5086
 20
-9537.9494
 10
290.3498
 20
-9537.8653
 10
290.2222
 20
-9537.7319
 10
290.1476
 20
-9537.5542
  0
LWPOLYLINE
  5
90
330
1F
100
AcDbEntity
  8
Capa 1
 62
    40
100
AcDbPolyline
 90
       17
 70
     1
 43
0.0
 10
279.5268
 20
-9537.5542
 10
279.4018
 20
-9537.7676
 10
279.2484
 20
-9537.9057
 10
279.0853
 20
-9537.972
 10
278.9313
 20
-9537.9701
 10
278.8051
 20
-9537.9035
 10
278.7256
 20
-9537.7758
 10
278.7115
 20
-9537.5905
 10
278.7816
 20
-9537.3512
 10
278.914
 20
-9537.1332
 10
279.0697
 20
-9536.9915
 10
279.2314
 20
-9536.9227
 10
279.3819
 20
-9536.9233
 10
279.504
 20
-9536.9901
 10
279.5803
 20
-9537.1198
 10
279.5937
 20
-9537.3089
 10
279.5268
 20
-9537.5542
  0
LWPOLYLINE
  5
91
330
1F
100
AcDbEntity
  8
Capa 1
 62
    40
100
AcDbPolyline
 90
       17
 70
     1
 43
0.0
 10
287.2939
 20
-9537.4448
 10
287.1825
 20
-9537.7679
 10
287.0113
 20
-9537.9914
 10
286.8087
 20
-9538.114
 10
286.6029
 20
-9538.1345
 10
286.4225
 20
-9538.0515
 10
286.2956
 20
-9537.8639
 10
286.2508
 20
-9537.5704
 10
286.3163
 20
-9537.1697
 10
286.4547
 20
-9536.8298
 10
286.6283
 20
-9536.605
 10
286.8172
 20
-9536.4912
 10
287.0014
 20
-9536.4844
 10
287.1611
 20
-9536.5804
 10
287.2764
 20
-9536.7752
 10
287.3273
 20
-9537.0647
 10
287.2939
 20
-9537.4448
  0
LWPOLYLINE
  5
92
330
1F
100
AcDbEntity
  8
Capa 1
 62
    40
100
AcDbPolyline
 90
       24
 70
     1
 43
0.0
 10
288.1493
 20
-9537.2261
 10
288.1688
 20
-9536.7576
 10
288.3041
 20
-9536.4522
 10
288.5194
 20
-9536.2973
 10
288.7792
 20
-9536.2801
 10
289.0476
 20
-9536.3881
 10
289.289
 20
-9536.6085
 10
289.4676
 20
-9536.9288
 10
289.5478
 20
-9537.3363
 10
289.5389
 20
-9537.5154
 10
289.499
 20
-9537.6853
 10
289.4309
 20
-9537.8413
 10
289.3377
 20
-9537.9792
 10
289.2225
 20
-9538.0944
 10
289.0883
 20
-9538.1826
 10
288.9381
 20
-9538.2393
 10
288.7749
 20
-9538.2601
 10
288.6715
 20
-9538.2542
 10
288.5902
 20
-9538.2352
 10
288.527
 20
-9538.2037
 10
288.4779
 20
-9538.1603
 10
288.4058
 20
-9538.0406
 10
288.3418
 20
-9537.8815
 10
288.1493
 20
-9537.2261
  0
LWPOLYLINE
  5
93
330
1F
100
AcDbEntity
  8
Capa 1
 62
    40
100
AcDbPolyline
 90
       23
 70
     1
 43
0.0
 10
281.3327
 20
-9537.3355
 10
281.2621
 20
-9537.643
 10
281.1555
 20
-9537.9361
 10
281.078
 20
-9538.0548
 10
280.9786
 20
-9538.1431
 10
280.8532
 20
-9538.192
 10
280.6973
 20
-9538.1924
 10
280.5574
 20
-9538.1509
 10
280.4404
 20
-9538.0762
 10
280.3461
 20
-9537.973
 10
280.2747
 20
-9537.846
 10
280.226
 20
-9537.6999
 10
280.2001
 20
-9537.5393
 10
280.1971
 20
-9537.3689
 10
280.2168
 20
-9537.1934
 10
280.3378
 20
-9536.7978
 10
280.52
 20
-9536.5276
 10
280.7355
 20
-9536.3792
 10
280.9562
 20
-9536.349
 10
281.1543
 20
-9536.4331
 10
281.3017
 20
-9536.6281
 10
281.3705
 20
-9536.9301
 10
281.3327
 20
-9537.3355
  0
LWPOLYLINE
  5
94
330
1F
100
AcDbEntity
  8
Capa 1
 62
    40
100
AcDbPolyline
 90
       17
 70
     1
 43
0.0
 10
291.8163
 20
-9537.1166
 10
291.8082
 20
-9536.7392
 10
291.9321
 20
-9536.4975
 10
292.15
 20
-9536.3874
 10
292.4237
 20
-9536.4047
 10
292.7153
 20
-9536.5452
 10
292.9867
 20
-9536.8047
 10
293.1999
 20
-9537.1789
 10
293.3168
 20
-9537.6637
 10
293.3048
 20
-9538.0962
 10
293.1809
 20
-9538.3586
 10
292.9759
 20
-9538.4644
 10
292.7208
 20
-9538.4271
 10
292.4464
 20
-9538.2603
 10
292.1835
 20
-9537.9772
 10
291.9632
 20
-9537.5915
 10
291.8163
 20
-9537.1166
  0
LWPOLYLINE
  5
95
330
1F
100
AcDbEntity
  8
Capa 1
 62
    40
100
AcDbPolyline
 90
       23
 70
     1
 43
0.0
 10
282.1196
 20
-9537.062
 10
282.1277
 20
-9536.9005
 10
282.1698
 20
-9536.7576
 10
282.2408
 20
-9536.6386
 10
282.3357
 20
-9536.5486
 10
282.4495
 20
-9536.493
 10
282.5771
 20
-9536.4769
 10
282.7134
 20
-9536.5057
 10
282.8535
 20
-9536.5845
 10
282.9881
 20
-9536.7409
 10
283.1191
 20
-9536.9874
 10
283.1731
 20
-9537.1287
 10
283.214
 20
-9537.2736
 10
283.2378
 20
-9537.416
 10
283.2404
 20
-9537.5495
 10
283.1758
 20
-9537.8366
 10
283.0467
 20
-9538.0146
 10
282.8745
 20
-9538.0884
 10
282.6807
 20
-9538.0628
 10
282.4869
 20
-9537.9425
 10
282.3144
 20
-9537.7324
 10
282.1848
 20
-9537.4373
 10
282.1196
 20
-9537.062
  0
LWPOLYLINE
  5
96
330
1F
100
AcDbEntity
  8
Capa 1
 62
    40
100
AcDbPolyline
 90
       21
 70
     1
 43
0.0
 10
278.2191
 20
-9537.1166
 10
278.0571
 20
-9537.5544
 10
277.8283
 20
-9537.896
 10
277.5657
 20
-9538.1336
 10
277.3025
 20
-9538.2597
 10
277.0717
 20
-9538.2666
 10
276.9065
 20
-9538.1467
 10
276.8398
 20
-9537.8922
 10
276.9049
 20
-9537.4956
 10
277.0206
 20
-9537.1925
 10
277.1751
 20
-9536.9076
 10
277.3539
 20
-9536.6673
 10
277.5427
 20
-9536.4977
 10
277.7378
 20
-9536.393
 10
277.9042
 20
-9536.3523
 10
278.0407
 20
-9536.3696
 10
278.1455
 20
-9536.4389
 10
278.2173
 20
-9536.5542
 10
278.2545
 20
-9536.7096
 10
278.2556
 20
-9536.899
 10
278.2191
 20
-9537.1166
  0
LWPOLYLINE
  5
97
330
1F
100
AcDbEntity
  8
Capa 1
 62
    40
100
AcDbPolyline
 90
       17
 70
     1
 43
0.0
 10
283.2758
 20
-9536.2414
 10
283.2426
 20
-9535.8703
 10
283.3034
 20
-9535.5959
 10
283.4333
 20
-9535.4176
 10
283.6076
 20
-9535.335
 10
283.8013
 20
-9535.3473
 10
283.9897
 20
-9535.4541
 10
284.1477
 20
-9535.6548
 10
284.2506
 20
-9535.9489
 10
284.2742
 20
-9536.2909
 10
284.2106
 20
-9536.5553
 10
284.0828
 20
-9536.7372
 10
283.9134
 20
-9536.8319
 10
283.7252
 20
-9536.8345
 10
283.541
 20
-9536.7402
 10
283.3836
 20
-9536.5441
 10
283.2758
 20
-9536.2414
  0
LWPOLYLINE
  5
98
330
1F
100
AcDbEntity
  8
Capa 1
 62
    40
100
AcDbPolyline
 90
       17
 70
     1
 43
0.0
 10
286.3115
 20
-9536.1867
 10
286.1846
 20
-9536.5127
 10
286.0016
 20
-9536.7289
 10
285.7885
 20
-9536.8379
 10
285.5715
 20
-9536.8426
 10
285.3766
 20
-9536.7457
 10
285.2298
 20
-9536.55
 10
285.1573
 20
-9536.2583
 10
285.1851
 20
-9535.8733
 10
285.3012
 20
-9535.5576
 10
285.4804
 20
-9535.3551
 10
285.6945
 20
-9535.26
 10
285.9157
 20
-9535.2662
 10
286.1159
 20
-9535.3679
 10
286.2673
 20
-9535.5592
 10
286.3418
 20
-9535.8341
 10
286.3115
 20
-9536.1867
  0
LWPOLYLINE
  5
99
330
1F
100
AcDbEntity
  8
Capa 1
 62
    40
100
AcDbPolyline
 90
       17
 70
     1
 43
0.0
 10
281.6728
 20
-9534.261
 10
282.0133
 20
-9534.2319
 10
282.2856
 20
-9534.3431
 10
282.4778
 20
-9534.555
 10
282.5782
 20
-9534.8284
 10
282.5751
 20
-9535.1238
 10
282.4566
 20
-9535.4019
 10
282.211
 20
-9535.6232
 10
281.8266
 20
-9535.7484
 10
281.3412
 20
-9535.7566
 10
281.0372
 20
-9535.6407
 10
280.8905
 20
-9535.435
 10
280.8769
 20
-9535.1738
 10
280.9725
 20
-9534.8915
 10
281.153
 20
-9534.6224
 10
281.3945
 20
-9534.4008
 10
281.6728
 20
-9534.261
  0
LWPOLYLINE
  5
9A
330
1F
100
AcDbEntity
  8
Capa 1
 62
    40
100
AcDbPolyline
 90
       17
 70
     1
 43
0.0
 10
287.5994
 20
-9534.2693
 10
287.9713
 20
-9534.2514
 10
288.3003
 20
-9534.3619
 10
288.5667
 20
-9534.5644
 10
288.7509
 20
-9534.8224
 10
288.8334
 20
-9535.0993
 10
288.7946
 20
-9535.3586
 10
288.6149
 20
-9535.5638
 10
288.2747
 20
-9535.6784
 10
287.8573
 20
-9535.6753
 10
287.5009
 20
-9535.5664
 10
287.2225
 20
-9535.38
 10
287.0392
 20
-9535.1441
 10
286.9682
 20
-9534.8869
 10
287.0265
 20
-9534.6367
 10
287.2312
 20
-9534.4214
 10
287.5994
 20
-9534.2693
  0
LWPOLYLINE
  5
9B
330
1F
100
AcDbEntity
  8
Capa 1
 62
    40
100
AcDbPolyline
 90
       17
 70
     1
 43
0.0
 10
290.2051
 20
-9534.3157
 10
290.5046
 20
-9534.302
 10
290.7885
 20
-9534.4203
 10
291.0381
 20
-9534.6329
 10
291.2348
 20
-9534.9022
 10
291.3598
 20
-9535.1906
 10
291.3945
 20
-9535.4604
 10
291.3201
 20
-9535.6742
 10
291.118
 20
-9535.7941
 10
290.79
 20
-9535.7978
 10
290.482
 20
-9535.683
 10
290.2145
 20
-9535.482
 10
290.0082
 20
-9535.2272
 10
289.8835
 20
-9534.9509
 10
289.8611
 20
-9534.6853
 10
289.9614
 20
-9534.4628
 10
290.2051
 20
-9534.3157
  0
LWPOLYLINE
  5
9C
330
1F
100
AcDbEntity
  8
Capa 1
 62
    40
100
AcDbPolyline
 90
       23
 70
     1
 43
0.0
 10
279.5007
 20
-9534.3227
 10
279.664
 20
-9534.3108
 10
279.7982
 20
-9534.3421
 10
279.9026
 20
-9534.4101
 10
279.9766
 20
-9534.5086
 10
280.0194
 20
-9534.6313
 10
280.0304
 20
-9534.7717
 10
280.0089
 20
-9534.9235
 10
279.9544
 20
-9535.0805
 10
279.8339
 20
-9535.2822
 10
279.6549
 20
-9535.4867
 10
279.5493
 20
-9535.5779
 10
279.436
 20
-9535.6551
 10
279.3175
 20
-9535.7137
 10
279.196
 20
-9535.7487
 10
278.8757
 20
-9535.7472
 10
278.683
 20
-9535.6279
 10
278.6053
 20
-9535.4244
 10
278.63
 20
-9535.1704
 10
278.7445
 20
-9534.8996
 10
278.9362
 20
-9534.6456
 10
279.1925
 20
-9534.442
 10
279.5007
 20
-9534.3227
  0
LWPOLYLINE
  5
9D
330
1F
100
AcDbEntity
  8
Capa 1
 62
    40
100
AcDbPolyline
 90
       17
 70
     1
 43
0.0
 10
284.6066
 20
-9533.602
 10
284.8382
 20
-9533.5387
 10
285.0235
 20
-9533.5779
 10
285.1579
 20
-9533.6942
 10
285.2366
 20
-9533.8627
 10
285.255
 20
-9534.058
 10
285.2083
 20
-9534.2551
 10
285.092
 20
-9534.4288
 10
284.9013
 20
-9534.5538
 10
284.6613
 20
-9534.6066
 10
284.4727
 20
-9534.5662
 10
284.3389
 20
-9534.4547
 10
284.2632
 20
-9534.2942
 10
284.2488
 20
-9534.1067
 10
284.2991
 20
-9533.9141
 10
284.4172
 20
-9533.7385
 10
284.6066
 20
-9533.602
  0
LWPOLYLINE
  5
9E
330
1F
100
AcDbEntity
  8
Capa 1
 62
    40
100
AcDbPolyline
 90
       17
 70
     1
 43
0.0
 10
286.137
 20
-9532.338
 10
286.4707
 20
-9532.2807
 10
286.7529
 20
-9532.3636
 10
286.972
 20
-9532.5507
 10
287.1162
 20
-9532.8061
 10
287.1739
 20
-9533.0936
 10
287.1333
 20
-9533.3774
 10
286.9828
 20
-9533.6213
 10
286.7106
 20
-9533.7894
 10
286.3822
 20
-9533.8353
 10
286.0941
 20
-9533.7533
 10
285.8628
 20
-9533.5749
 10
285.7049
 20
-9533.3315
 10
285.6369
 20
-9533.0547
 10
285.6752
 20
-9532.7758
 10
285.8364
 20
-9532.5264
 10
286.137
 20
-9532.338
  0
LWPOLYLINE
  5
9F
330
1F
100
AcDbEntity
  8
Capa 1
 62
    40
100
AcDbPolyline
 90
       17
 70
     1
 43
0.0
 10
283.1792
 20
-9532.4446
 10
283.4803
 20
-9532.3884
 10
283.7181
 20
-9532.4665
 10
283.8857
 20
-9532.6437
 10
283.9762
 20
-9532.8851
 10
283.9828
 20
-9533.1555
 10
283.8985
 20
-9533.4201
 10
283.7165
 20
-9533.6438
 10
283.4299
 20
-9533.7915
 10
283.0794
 20
-9533.8353
 10
282.8266
 20
-9533.757
 10
282.6682
 20
-9533.5873
 10
282.6011
 20
-9533.3569
 10
282.6218
 20
-9533.0967
 10
282.7273
 20
-9532.8374
 10
282.9142
 20
-9532.6098
 10
283.1792
 20
-9532.4446
  0
LWPOLYLINE
  5
A0
330
1F
100
AcDbEntity
  8
Capa 1
 62
    40
100
AcDbPolyline
 90
       17
 70
     1
 43
0.0
 10
288.3321
 20
-9532.2389
 10
288.6175
 20
-9532.1786
 10
288.9102
 20
-9532.2513
 10
289.1843
 20
-9532.4246
 10
289.4139
 20
-9532.6659
 10
289.5731
 20
-9532.9425
 10
289.6359
 20
-9533.2219
 10
289.5764
 20
-9533.4716
 10
289.3686
 20
-9533.6589
 10
289.0616
 20
-9533.7294
 10
288.76
 20
-9533.661
 10
288.4864
 20
-9533.4878
 10
288.2636
 20
-9533.2437
 10
288.1141
 20
-9532.9628
 10
288.0606
 20
-9532.679
 10
288.1257
 20
-9532.4264
 10
288.3321
 20
-9532.2389
  0
LWPOLYLINE
  5
A1
330
1F
100
AcDbEntity
  8
Capa 1
 62
    40
100
AcDbPolyline
 90
       17
 70
     1
 43
0.0
 10
281.0767
 20
-9532.2463
 10
281.4088
 20
-9532.1737
 10
281.6349
 20
-9532.2439
 10
281.7597
 20
-9532.4207
 10
281.788
 20
-9532.6679
 10
281.7246
 20
-9532.9492
 10
281.5742
 20
-9533.2284
 10
281.3417
 20
-9533.4693
 10
281.0317
 20
-9533.6357
 10
280.7025
 20
-9533.6904
 10
280.4715
 20
-9533.6192
 10
280.3375
 20
-9533.4525
 10
280.2991
 20
-9533.2206
 10
280.355
 20
-9532.9537
 10
280.5041
 20
-9532.6822
 10
280.7451
 20
-9532.4363
 10
281.0767
 20
-9532.2463
  0
LWPOLYLINE
  5
A2
330
1F
100
AcDbEntity
  8
Capa 1
 62
    40
100
AcDbPolyline
 90
       23
 70
     1
 43
0.0
 10
282.428
 20
-9531.3561
 10
282.5363
 20
-9531.3316
 10
282.6527
 20
-9531.3237
 10
282.7706
 20
-9531.3329
 10
282.8834
 20
-9531.3596
 10
282.9846
 20
-9531.4041
 10
283.0676
 20
-9531.4671
 10
283.1259
 20
-9531.5487
 10
283.1529
 20
-9531.6495
 10
283.147
 20
-9531.7518
 10
283.115
 20
-9531.8498
 10
283.0614
 20
-9531.9414
 10
282.9909
 20
-9532.0245
 10
282.8176
 20
-9532.1569
 10
282.6321
 20
-9532.2306
 10
282.3596
 20
-9532.2536
 10
282.1431
 20
-9532.2053
 10
281.99
 20
-9532.1024
 10
281.9074
 20
-9531.9618
 10
281.9026
 20
-9531.8
 10
281.9829
 20
-9531.634
 10
282.1556
 20
-9531.4804
 10
282.428
 20
-9531.3561
  0
LWPOLYLINE
  5
A3
330
1F
100
AcDbEntity
  8
Capa 1
 62
    40
100
AcDbPolyline
 90
       17
 70
     1
 43
0.0
 10
287.048
 20
-9531.1542
 10
287.338
 20
-9531.1029
 10
287.5769
 20
-9531.1408
 10
287.7581
 20
-9531.245
 10
287.8748
 20
-9531.3928
 10
287.9201
 20
-9531.5612
 10
287.8872
 20
-9531.7275
 10
287.7694
 20
-9531.8688
 10
287.5599
 20
-9531.9622
 10
287.2766
 20
-9531.9931
 10
287.0335
 20
-9531.953
 10
286.8419
 20
-9531.8586
 10
286.713
 20
-9531.7265
 10
286.6579
 20
-9531.5733
 10
286.6879
 20
-9531.4157
 10
286.8142
 20
-9531.2705
 10
287.048
 20
-9531.1542
  0
LWPOLYLINE
  5
A4
330
1F
100
AcDbEntity
  8
Capa 1
 62
    40
100
AcDbPolyline
 90
       71
 70
     1
 43
0.0
 10
293.7758
 20
-9533.0467
 10
294.0914
 20
-9533.0316
 10
294.3875
 20
-9533.067
 10
294.5217
 20
-9533.1084
 10
294.6433
 20
-9533.1682
 10
294.7497
 20
-9533.2483
 10
294.8382
 20
-9533.3506
 10
294.9304
 20
-9533.5282
 10
294.9574
 20
-9533.6867
 10
294.9341
 20
-9533.8275
 10
294.8751
 20
-9533.9525
 10
294.7096
 20
-9534.1615
 10
294.579
 20
-9534.327
 10
294.7284
 20
-9534.4315
 10
294.8535
 20
-9534.5057
 10
294.9534
 20
-9534.5959
 10
295.0274
 20
-9534.7486
 10
295.0492
 20
-9534.8531
 10
295.0491
 20
-9534.9453
 10
295.0309
 20
-9535.0266
 10
294.9985
 20
-9535.0985
 10
294.9061
 20
-9535.2203
 10
294.8023
 20
-9535.3223
 10
294.7182
 20
-9535.4074
 10
294.6659
 20
-9535.4718
 10
294.6392
 20
-9535.5253
 10
294.6322
 20
-9535.5778
 10
294.653
 20
-9535.7193
 10
294.6798
 20
-9535.975
 10
294.6782
 20
-9536.1902
 10
294.6433
 20
-9536.3555
 10
294.6084
 20
-9536.4214
 10
294.5591
 20
-9536.4773
 10
294.4936
 20
-9536.5238
 10
294.4097
 20
-9536.5618
 10
294.3065
 20
-9536.5116
 10
294.2158
 20
-9536.4403
 10
294.1349
 20
-9536.3517
 10
294.0608
 20
-9536.2498
 10
293.9221
 20
-9536.0212
 10
293.777
 20
-9535.7858
 10
293.4419
 20
-9535.3666
 10
293.159
 20
-9534.9833
 10
293.2586
 20
-9534.7945
 10
293.3511
 20
-9534.618
 10
293.3685
 20
-9534.5299
 10
293.3529
 20
-9534.4393
 10
293.2936
 20
-9534.3445
 10
293.1804
 20
-9534.2436
 10
292.795
 20
-9534.0689
 10
292.4034
 20
-9533.8894
 10
292.5284
 20
-9533.463
 10
292.784
 20
-9532.9578
 10
293.1449
 20
-9532.4242
 10
293.5864
 20
-9531.9129
 10
294.0833
 20
-9531.4742
 10
294.6108
 20
-9531.1588
 10
295.1438
 20
-9531.0172
 10
295.6573
 20
-9531.0998
 10
295.6436
 20
-9531.2003
 10
295.6306
 20
-9531.2358
 10
295.5792
 20
-9531.2584
 10
295.4503
 20
-9531.3204
 10
295.2112
 20
-9531.4642
 10
294.9538
 20
-9531.6439
 10
294.6915
 20
-9531.8517
 10
294.4377
 20
-9532.0802
 10
294.2058
 20
-9532.3215
 10
294.0093
 20
-9532.5682
 10
293.8615
 20
-9532.8124
 10
293.7758
 20
-9533.0467
  0
LWPOLYLINE
  5
A5
330
1F
100
AcDbEntity
  8
Capa 1
 62
    40
100
AcDbPolyline
 90
       67
 70
     1
 43
0.0
 10
276.9616
 20
-9533.0703
 10
276.9158
 20
-9532.9205
 10
276.8382
 20
-9532.7623
 10
276.7366
 20
-9532.6007
 10
276.619
 20
-9532.4405
 10
276.3673
 20
-9532.1444
 10
276.1465
 20
-9531.9136
 10
275.7843
 20
-9531.6053
 10
275.4687
 20
-9531.4049
 10
275.2187
 20
-9531.2572
 10
275.0538
 20
-9531.1068
 10
275.6583
 20
-9531.0387
 10
276.2388
 20
-9531.221
 10
276.7773
 20
-9531.5888
 10
277.2555
 20
-9532.0775
 10
277.6552
 20
-9532.6221
 10
277.9583
 20
-9533.1579
 10
278.1465
 20
-9533.6201
 10
278.2017
 20
-9533.944
 10
277.9962
 20
-9534.0528
 10
277.7929
 20
-9534.1183
 10
277.6954
 20
-9534.1547
 10
277.6026
 20
-9534.204
 10
277.5157
 20
-9534.2743
 10
277.4361
 20
-9534.3733
 10
277.3617
 20
-9534.522
 10
277.3509
 20
-9534.6278
 10
277.3813
 20
-9534.7052
 10
277.4303
 20
-9534.7685
 10
277.4756
 20
-9534.832
 10
277.4947
 20
-9534.9099
 10
277.4652
 20
-9535.0166
 10
277.3646
 20
-9535.1665
 10
277.0735
 20
-9535.5415
 10
276.855
 20
-9535.8623
 10
276.6574
 20
-9536.1913
 10
276.4289
 20
-9536.5913
 10
276.3017
 20
-9536.4868
 10
276.217
 20
-9536.373
 10
276.1675
 20
-9536.2495
 10
276.146
 20
-9536.1158
 10
276.1583
 20
-9535.8165
 10
276.1964
 20
-9535.4716
 10
276.0112
 20
-9535.3279
 10
275.8819
 20
-9535.1877
 10
275.8056
 20
-9535.0498
 10
275.7792
 20
-9534.9131
 10
275.7995
 20
-9534.7764
 10
275.8637
 20
-9534.6387
 10
275.9686
 20
-9534.4987
 10
276.1111
 20
-9534.3554
 10
276.1395
 20
-9534.3285
 10
276.1952
 20
-9534.2724
 10
276.0704
 20
-9534.1014
 10
275.9239
 20
-9533.8697
 10
275.8722
 20
-9533.7378
 10
275.8507
 20
-9533.5987
 10
275.8713
 20
-9533.4552
 10
275.9459
 20
-9533.3098
 10
276.0258
 20
-9533.2243
 10
276.1277
 20
-9533.1539
 10
276.2473
 20
-9533.099
 10
276.3803
 20
-9533.0599
 10
276.5225
 20
-9533.0371
 10
276.6697
 20
-9533.031
 10
276.8174
 20
-9533.0419
 10
276.9616
 20
-9533.0703
  0
LWPOLYLINE
  5
A6
330
1F
100
AcDbEntity
  8
Capa 1
 62
    40
100
AcDbPolyline
 90
      256
 70
     1
 43
0.0
 10
278.7164
 20
-9546.232
 10
278.7725
 20
-9545.6412
 10
278.9133
 20
-9545.1623
 10
279.1374
 20
-9544.7845
 10
279.4431
 20
-9544.497
 10
279.829
 20
-9544.289
 10
280.2934
 20
-9544.1497
 10
280.835
 20
-9544.0683
 10
281.452
 20
-9544.034
 10
281.5306
 20
-9543.7701
 10
281.6172
 20
-9543.5242
 10
281.713
 20
-9543.2966
 10
281.8189
 20
-9543.0872
 10
281.9361
 20
-9542.896
 10
282.0656
 20
-9542.7232
 10
282.2086
 20
-9542.5688
 10
282.366
 20
-9542.4329
 10
282.3502
 20
-9542.7473
 10
282.3031
 20
-9543.0556
 10
282.2617
 20
-9543.3921
 10
282.2627
 20
-9543.7913
 10
282.7952
 20
-9543.7093
 10
283.2181
 20
-9543.6194
 10
283.466
 20
-9543.5794
 10
283.7796
 20
-9543.5471
 10
284.1898
 20
-9543.5257
 10
284.7278
 20
-9543.5182
 10
285.2543
 20
-9543.5267
 10
285.6586
 20
-9543.549
 10
285.9704
 20
-9543.5817
 10
286.2196
 20
-9543.6215
 10
286.649
 20
-9543.7091
 10
287.1851
 20
-9543.7851
 10
287.2305
 20
-9543.4119
 10
287.2282
 20
-9543.1427
 10
287.1989
 20
-9542.8886
 10
287.1631
 20
-9542.5603
 10
287.3365
 20
-9542.6969
 10
287.4852
 20
-9542.8397
 10
287.6126
 20
-9542.9924
 10
287.7222
 20
-9543.1589
 10
287.8178
 20
-9543.343
 10
287.9027
 20
-9543.5486
 10
287.9805
 20
-9543.7795
 10
288.0548
 20
-9544.0397
 10
288.6826
 20
-9544.0589
 10
289.2527
 20
-9544.131
 10
289.7594
 20
-9544.2639
 10
290.1969
 20
-9544.4653
 10
290.5594
 20
-9544.7432
 10
290.8411
 20
-9545.1052
 10
291.0362
 20
-9545.5593
 10
291.139
 20
-9546.1132
 10
291.1725
 20
-9546.4157
 10
291.1839
 20
-9546.6721
 10
291.1786
 20
-9546.8899
 10
291.1619
 20
-9547.0763
 10
291.1165
 20
-9547.3845
 10
291.0911
 20
-9547.6554
 10
291.4029
 20
-9547.4894
 10
291.7076
 20
-9547.339
 10
292.0086
 20
-9547.1825
 10
292.3095
 20
-9546.9985
 10
292.6677
 20
-9546.7498
 10
293.0134
 20
-9546.4945
 10
293.3444
 20
-9546.228
 10
293.6587
 20
-9545.9462
 10
293.9541
 20
-9545.6444
 10
294.2286
 20
-9545.3185
 10
294.4799
 20
-9544.9639
 10
294.7061
 20
-9544.5762
 10
294.7763
 20
-9544.444
 10
294.8734
 20
-9544.2366
 10
294.9139
 20
-9544.1266
 10
294.9394
 20
-9544.024
 10
294.9426
 20
-9543.9375
 10
294.9163
 20
-9543.876
 10
294.8233
 20
-9543.8374
 10
294.7599
 20
-9543.8285
 10
294.7157
 20
-9543.8437
 10
294.6804
 20
-9543.8771
 10
294.596
 20
-9543.9757
 10
294.4244
 20
-9544.0781
 10
294.0621
 20
-9544.1091
 10
293.8507
 20
-9543.9203
 10
293.7732
 20
-9543.5779
 10
293.8125
 20
-9543.1483
 10
293.9514
 20
-9542.6977
 10
294.1728
 20
-9542.2923
 10
294.4596
 20
-9541.9985
 10
294.7947
 20
-9541.8824
 10
294.9388
 20
-9541.9024
 10
295.0435
 20
-9541.9617
 10
295.1144
 20
-9542.0525
 10
295.1574
 20
-9542.1667
 10
295.1829
 20
-9542.4334
 10
295.1664
 20
-9542.6981
 10
295.148
 20
-9542.8888
 10
295.1754
 20
-9543.0316
 10
295.2824
 20
-9543.0023
 10
295.318
 20
-9542.9926
 10
295.3288
 20
-9542.9504
 10
295.3613
 20
-9542.824
 10
295.4639
 20
-9542.199
 10
295.4469
 20
-9541.4588
 10
295.3435
 20
-9540.6603
 10
295.1869
 20
-9539.8603
 10
295.0101
 20
-9539.1158
 10
294.8464
 20
-9538.4835
 10
294.7288
 20
-9538.0204
 10
294.6906
 20
-9537.7833
 10
294.931
 20
-9537.8184
 10
295.1323
 20
-9537.894
 10
295.3197
 20
-9537.9813
 10
295.5187
 20
-9538.0518
 10
295.8852
 20
-9537.3647
 10
296.085
 20
-9536.8738
 10
296.1636
 20
-9536.5342
 10
296.1666
 20
-9536.3011
 10
296.1395
 20
-9536.1298
 10
296.1281
 20
-9535.9752
 10
296.1779
 20
-9535.7927
 10
296.3344
 20
-9535.5374
 10
296.9455
 20
-9534.3419
 10
297.172
 20
-9533.0673
 10
297.0495
 20
-9531.8496
 10
296.6134
 20
-9530.8248
 10
295.8989
 20
-9530.1288
 10
294.9415
 20
-9529.8976
 10
293.7767
 20
-9530.2673
 10
292.4397
 20
-9531.3737
 10
291.9333
 20
-9532.0168
 10
291.7108
 20
-9532.3477
 10
291.5726
 20
-9532.5749
 10
291.4792
 20
-9532.7044
 10
291.3909
 20
-9532.742
 10
291.0715
 20
-9532.5649
 10
290.2977
 20
-9532.0907
 10
289.7669
 20
-9531.8163
 10
289.2518
 20
-9531.585
 10
288.7423
 20
-9531.3922
 10
288.2286
 20
-9531.2336
 10
287.7008
 20
-9531.1048
 10
287.1488
 20
-9531.0015
 10
286.5629
 20
-9530.9192
 10
285.9331
 20
-9530.8536
 10
286.0042
 20
-9531.1481
 10
285.9846
 20
-9531.4164
 10
285.8917
 20
-9531.6552
 10
285.7429
 20
-9531.8612
 10
285.5557
 20
-9532.0309
 10
285.3474
 20
-9532.1611
 10
285.1356
 20
-9532.2483
 10
284.9376
 20
-9532.2892
 10
284.6619
 20
-9532.2754
 10
284.4183
 20
-9532.1903
 10
284.2143
 20
-9532.0468
 10
284.0576
 20
-9531.8574
 10
283.9556
 20
-9531.6347
 10
283.9162
 20
-9531.3915
 10
283.9468
 20
-9531.1404
 10
284.055
 20
-9530.8939
 10
283.6606
 20
-9530.875
 10
283.1891
 20
-9530.926
 10
282.6664
 20
-9531.034
 10
282.1184
 20
-9531.1859
 10
281.5709
 20
-9531.3689
 10
281.0499
 20
-9531.57
 10
280.581
 20
-9531.7763
 10
280.1903
 20
-9531.9748
 10
279.9334
 20
-9532.1428
 10
279.6543
 20
-9532.3389
 10
279.5114
 20
-9532.4284
 10
279.369
 20
-9532.5019
 10
279.2291
 20
-9532.5519
 10
279.0937
 20
-9532.5705
 10
278.7871
 20
-9532.1423
 10
278.3629
 20
-9531.5244
 10
278.0904
 20
-9531.1883
 10
277.7692
 20
-9530.8574
 10
277.3928
 20
-9530.5494
 10
276.9546
 20
-9530.2818
 10
276.439
 20
-9530.0626
 10
275.9624
 20
-9529.9488
 10
275.5255
 20
-9529.9337
 10
275.1286
 20
-9530.0106
 10
274.7725
 20
-9530.1727
 10
274.4576
 20
-9530.4132
 10
274.1845
 20
-9530.7254
 10
273.9538
 20
-9531.1026
 10
273.752
 20
-9531.6077
 10
273.6316
 20
-9532.1621
 10
273.5896
 20
-9532.7471
 10
273.6225
 20
-9533.3441
 10
273.7272
 20
-9533.9343
 10
273.9005
 20
-9534.4991
 10
274.1391
 20
-9535.0199
 10
274.4398
 20
-9535.478
 10
274.6135
 20
-9535.6771
 10
274.7085
 20
-9535.7958
 10
274.7505
 20
-9535.9611
 10
274.7657
 20
-9536.3004
 10
274.7871
 20
-9536.5593
 10
274.8356
 20
-9536.7987
 10
274.9052
 20
-9537.0208
 10
274.9898
 20
-9537.2277
 10
275.1802
 20
-9537.605
 10
275.3587
 20
-9537.948
 10
275.5277
 20
-9537.8986
 10
275.6728
 20
-9537.8446
 10
275.8209
 20
-9537.8059
 10
275.999
 20
-9537.8026
 10
275.8809
 20
-9538.3112
 10
275.6479
 20
-9539.153
 10
275.5298
 20
-9539.7102
 10
275.4328
 20
-9540.3644
 10
275.3734
 20
-9541.1202
 10
275.3682
 20
-9541.9822
 10
275.5586
 20
-9541.8933
 10
275.7358
 20
-9541.8285
 10
275.827
 20
-9541.8211
 10
275.9239
 20
-9541.839
 10
276.0295
 20
-9541.8886
 10
276.1468
 20
-9541.9762
 10
276.2666
 20
-9542.1145
 10
276.3755
 20
-9542.3037
 10
276.4685
 20
-9542.5299
 10
276.5404
 20
-9542.7794
 10
276.5859
 20
-9543.0382
 10
276.5999
 20
-9543.2924
 10
276.5773
 20
-9543.5283
 10
276.5128
 20
-9543.732
 10
276.4332
 20
-9543.858
 10
276.3464
 20
-9543.9267
 10
276.254
 20
-9543.9499
 10
276.1574
 20
-9543.9391
 10
275.958
 20
-9543.8624
 10
275.7601
 20
-9543.7902
 10
275.8563
 20
-9544.0516
 10
275.9796
 20
-9544.3221
 10
276.1238
 20
-9544.5961
 10
276.283
 20
-9544.8681
 10
276.6218
 20
-9545.3839
 10
276.9474
 20
-9545.8248
 10
277.2823
 20
-9546.2028
 10
277.7582
 20
-9546.6674
 10
278.0166
 20
-9546.8949
 10
278.2713
 20
-9547.0996
 10
278.5092
 20
-9547.2665
 10
278.7175
 20
-9547.3807
 10
278.6576
 20
-9547.1158
 10
278.6143
 20
-9546.8055
 10
278.6097
 20
-9546.6476
 10
278.6223
 20
-9546.4955
 10
278.6564
 20
-9546.3551
 10
278.7164
 20
-9546.232
  0
LWPOLYLINE
  5
A7
330
1F
100
AcDbEntity
  8
Capa 1
 62
     7
100
AcDbPolyline
 90
       17
 70
     1
 43
0.0
 10
289.1656
 20
-9540.1433
 10
289.1934
 20
-9539.8847
 10
289.3115
 20
-9539.6956
 10
289.491
 20
-9539.577
 10
289.7033
 20
-9539.5296
 10
289.9196
 20
-9539.5542
 10
290.1114
 20
-9539.6516
 10
290.2498
 20
-9539.8226
 10
290.3062
 20
-9540.0681
 10
290.2641
 20
-9540.3159
 10
290.1431
 20
-9540.4929
 10
289.9682
 20
-9540.6005
 10
289.7646
 20
-9540.6399
 10
289.5574
 20
-9540.6126
 10
289.3718
 20
-9540.5198
 10
289.2328
 20
-9540.363
 10
289.1656
 20
-9540.1433
  0
LWPOLYLINE
  5
A8
330
1F
100
AcDbEntity
  8
Capa 1
 62
     7
100
AcDbPolyline
 90
       25
 70
     1
 43
0.0
 10
280.0279
 20
-9539.6301
 10
280.2804
 20
-9539.5228
 10
280.5017
 20
-9539.5368
 10
280.681
 20
-9539.6439
 10
280.8076
 20
-9539.816
 10
280.8706
 20
-9540.025
 10
280.8595
 20
-9540.2426
 10
280.7634
 20
-9540.4408
 10
280.5716
 20
-9540.5914
 10
280.4698
 20
-9540.6289
 10
280.3669
 20
-9540.6453
 10
280.265
 20
-9540.6417
 10
280.1662
 20
-9540.6193
 10
280.0726
 20
-9540.5795
 10
279.9863
 20
-9540.5235
 10
279.9095
 20
-9540.4524
 10
279.8442
 20
-9540.3675
 10
279.7863
 20
-9540.2591
 10
279.7512
 20
-9540.1505
 10
279.739
 20
-9540.0441
 10
279.7499
 20
-9539.9424
 10
279.7841
 20
-9539.8477
 10
279.8417
 20
-9539.7625
 10
279.9229
 20
-9539.6892
 10
280.0279
 20
-9539.6301
  0
LWPOLYLINE
  5
A9
330
1F
100
AcDbEntity
  8
Capa 1
100
AcDbPolyline
 90
       33
 70
     1
 43
0.0
 10
272.255
 20
-9545.7487
 10
272.6581
 20
-9545.708
 10
273.0335
 20
-9545.5915
 10
273.3733
 20
-9545.407
 10
273.6692
 20
-9545.1629
 10
273.9134
 20
-9544.8669
 10
274.0978
 20
-9544.5272
 10
274.2144
 20
-9544.1518
 10
274.255
 20
-9543.7487
 10
274.2144
 20
-9543.3456
 10
274.0978
 20
-9542.9702
 10
273.9134
 20
-9542.6305
 10
273.6692
 20
-9542.3345
 10
273.3733
 20
-9542.0903
 10
273.0335
 20
-9541.9059
 10
272.6581
 20
-9541.7894
 10
272.255
 20
-9541.7487
 10
271.8519
 20
-9541.7893
 10
271.4765
 20
-9541.9059
 10
271.1368
 20
-9542.0903
 10
270.8408
 20
-9542.3345
 10
270.5966
 20
-9542.6304
 10
270.4122
 20
-9542.9702
 10
270.2957
 20
-9543.3456
 10
270.255
 20
-9543.7487
 10
270.2956
 20
-9544.1517
 10
270.4122
 20
-9544.5272
 10
270.5965
 20
-9544.8669
 10
270.8408
 20
-9545.1629
 10
271.1367
 20
-9545.407
 10
271.4765
 20
-9545.5915
 10
271.8518
 20
-9545.708
 10
272.255
 20
-9545.7487
  0
LWPOLYLINE
  5
AA
330
1F
100
AcDbEntity
  8
Capa 1
100
AcDbPolyline
 90
       34
 70
     1
 43
0.0
 10
272.255
 20
-9547.7487
 10
273.0612
 20
-9547.6674
 10
273.812
 20
-9547.4343
 10
274.4914
 20
-9547.0655
 10
275.0834
 20
-9546.5771
 10
275.4892
 20
-9546.1028
 10
275.3062
 20
-9545.8274
 10
274.9586
 20
-9545.2007
 10
274.674
 20
-9544.5465
 10
274.4521
 20
-9543.8691
 10
274.2923
 20
-9543.1731
 10
274.1944
 20
-9542.4628
 10
274.1578
 20
-9541.7427
 10
274.1822
 20
-9541.0173
 10
274.2672
 20
-9540.291
 10
273.812
 20
-9540.0631
 10
273.0612
 20
-9539.83
 10
272.255
 20
-9539.7487
 10
271.4488
 20
-9539.83
 10
270.698
 20
-9540.0631
 10
270.0186
 20
-9540.4319
 10
269.4266
 20
-9540.9203
 10
268.9382
 20
-9541.5123
 10
268.5694
 20
-9542.1917
 10
268.3363
 20
-9542.9425
 10
268.255
 20
-9543.7487
 10
268.3363
 20
-9544.5548
 10
268.5694
 20
-9545.3057
 10
268.9381
 20
-9545.9851
 10
269.4266
 20
-9546.5771
 10
270.0186
 20
-9547.0655
 10
270.698
 20
-9547.4343
 10
271.4488
 20
-9547.6674
 10
272.255
 20
-9547.7487
  0
ENDSEC
  0
SECTION
  2
OBJECTS
  0
DICTIONARY
  5
C
330
0
100
AcDbDictionary
281
     1
  3
ACAD_DETAILVIEWSTYLE
350
B2
  3
ACAD_GROUP
350
D
  3
ACAD_LAYOUT
350
1A
  3
ACAD_MATERIAL
350
43
  3
ACAD_MLEADERSTYLE
350
5B
  3
ACAD_MLINESTYLE
350
17
  3
ACAD_PLOTSETTINGS
350
19
  3
ACAD_PLOTSTYLENAME
350
E
  3
ACAD_SCALELIST
350
47
  3
ACAD_SECTIONVIEWSTYLE
350
B3
  3
ACAD_TABLESTYLE
350
59
  3
ACAD_VISUALSTYLE
350
2A
  3
ACDB_RECOMPOSE_DATA
350
AF
  3
AcDbVariableDictionary
350
AB
  0
SUN
  5
5D
330
29
100
AcDbSun
 90
        1
290
     0
 63
     7
421
 16777215
 40
1.0
291
     1
 91
  2455826
 92
 54000000
292
     0
 70
     2
 71
   256
280
     1
  0
DICTIONARY
  5
B2
102
{ACAD_REACTORS
330
C
102
}
330
C
100
AcDbDictionary
281
     1
  0
DICTIONARY
  5
D
102
{ACAD_REACTORS
330
C
102
}
330
C
100
AcDbDictionary
281
     1
  0
DICTIONARY
  5
1A
102
{ACAD_REACTORS
330
C
102
}
330
C
100
AcDbDictionary
281
     1
  3
Layout1
350
1E
  3
Layout2
350
26
  3
Model
350
22
  0
DICTIONARY
  5
43
102
{ACAD_REACTORS
330
C
102
}
330
C
100
AcDbDictionary
281
     1
  3
ByBlock
350
45
  3
ByLayer
350
44
  3
Global
350
46
  0
DICTIONARY
  5
5B
102
{ACAD_REACTORS
330
C
102
}
330
C
100
AcDbDictionary
281
     1
  3
Standard
350
5C
  0
DICTIONARY
  5
17
102
{ACAD_REACTORS
330
C
102
}
330
C
100
AcDbDictionary
281
     1
  3
Standard
350
18
  0
DICTIONARY
  5
19
102
{ACAD_REACTORS
330
C
102
}
330
C
100
AcDbDictionary
281
     1
  0
ACDBDICTIONARYWDFLT
  5
E
102
{ACAD_REACTORS
330
C
102
}
330
C
100
AcDbDictionary
281
     1
  3
Normal
350
F
100
AcDbDictionaryWithDefault
340
F
  0
DICTIONARY
  5
47
102
{ACAD_REACTORS
330
C
102
}
330
C
100
AcDbDictionary
281
     1
  3
A0
350
48
  3
A1
350
49
  3
A2
350
4A
  3
A3
350
4B
  3
A4
350
4C
  3
A5
350
4D
  3
A6
350
4E
  3
A7
350
4F
  3
A8
350
50
  3
A9
350
51
  3
B1
350
52
  3
B2
350
53
  3
B3
350
54
  3
B4
350
55
  3
B5
350
56
  3
B6
350
57
  3
B7
350
58
  0
DICTIONARY
  5
B3
102
{ACAD_REACTORS
330
C
102
}
330
C
100
AcDbDictionary
281
     1
  0
DICTIONARY
  5
59
102
{ACAD_REACTORS
330
C
102
}
330
C
100
AcDbDictionary
281
     1
  3
Standard
350
5A
  0
DICTIONARY
  5
2A
102
{ACAD_REACTORS
330
C
102
}
330
C
100
AcDbDictionary
281
     1
  3
2dWireframe
350
2F
  3
Basic
350
32
  3
Brighten
350
36
  3
ColorChange
350
3A
  3
Conceptual
350
34
  3
Dim
350
35
  3
EdgeColorOff
350
3D
  3
Facepattern
350
39
  3
Flat
350
2B
  3
FlatWithEdges
350
2C
  3
Gouraud
350
2D
  3
GouraudWithEdges
350
2E
  3
Hidden
350
31
  3
JitterOff
350
3B
  3
Linepattern
350
38
  3
OverhangOff
350
3C
  3
Realistic
350
33
  3
Shaded
350
42
  3
Shaded with edges
350
41
  3
Shades of Gray
350
3E
  3
Sketchy
350
3F
  3
Thicken
350
37
  3
Wireframe
350
30
  3
X-Ray
350
40
  0
XRECORD
  5
AF
102
{ACAD_REACTORS
330
C
102
}
330
C
100
AcDbXrecord
280
     1
 90
        1
330
5A
  0
DICTIONARY
  5
AB
102
{ACAD_REACTORS
330
C
102
}
330
C
100
AcDbDictionary
281
     1
  3
CANNOSCALE
350
AC
  3
CMLEADERSTYLE
350
B1
  3
CTABLESTYLE
350
B0
  0
LAYOUT
  5
1E
102
{ACAD_REACTORS
330
1A
102
}
330
1A
100
AcDbPlotSettings
  1

  2
none_device
  4

  6

 40
0.0
 41
0.0
 42
0.0
 43
0.0
 44
0.0
 45
0.0
 46
0.0
 47
0.0
 48
0.0
 49
0.0
140
0.0
141
0.0
142
1.0
143
1.0
 70
   688
 72
     0
 73
     0
 74
     5
  7

 75
    16
 76
     0
 77
     2
 78
   300
147
1.0
148
0.0
149
0.0
100
AcDbLayout
  1
Layout1
 70
     1
 71
     1
 10
0.0
 20
0.0
 11
12.0
 21
9.0
 12
0.0
 22
0.0
 32
0.0
 14
1.000000000000000E+20
 24
1.000000000000000E+20
 34
1.000000000000000E+20
 15
-1.000000000000000E+20
 25
-1.000000000000000E+20
 35
-1.000000000000000E+20
146
0.0
 13
0.0
 23
0.0
 33
0.0
 16
1.0
 26
0.0
 36
0.0
 17
0.0
 27
1.0
 37
0.0
 76
     0
330
1B
  0
LAYOUT
  5
26
102
{ACAD_REACTORS
330
1A
102
}
330
1A
100
AcDbPlotSettings
  1

  2
none_device
  4

  6

 40
0.0
 41
0.0
 42
0.0
 43
0.0
 44
0.0
 45
0.0
 46
0.0
 47
0.0
 48
0.0
 49
0.0
140
0.0
141
0.0
142
1.0
143
1.0
 70
   688
 72
     0
 73
     0
 74
     5
  7

 75
    16
 76
     0
 77
     2
 78
   300
147
1.0
148
0.0
149
0.0
100
AcDbLayout
  1
Layout2
 70
     1
 71
     2
 10
0.0
 20
0.0
 11
0.0
 21
0.0
 12
0.0
 22
0.0
 32
0.0
 14
0.0
 24
0.0
 34
0.0
 15
0.0
 25
0.0
 35
0.0
146
0.0
 13
0.0
 23
0.0
 33
0.0
 16
1.0
 26
0.0
 36
0.0
 17
0.0
 27
1.0
 37
0.0
 76
     0
330
23
  0
LAYOUT
  5
22
102
{ACAD_REACTORS
330
1A
102
}
330
1A
100
AcDbPlotSettings
  1

  2
none_device
  4
Letter_(8.50_x_11.00_Inches)
  6

 40
6.35
 41
6.35
 42
6.35000508
 43
6.35000508
 44
215.9
 45
279.4
 46
0.0
 47
0.0
 48
0.0
 49
0.0
140
0.0
141
0.0
142
1.0
143
1.0
 70
  1712
 72
     0
 73
     0
 74
     0
  7

 75
     0
 76
     0
 77
     2
 78
   300
147
1.0
148
0.0
149
0.0
100
AcDbLayout
  1
Model
 70
     1
 71
     0
 10
0.0
 20
0.0
 11
12.0
 21
9.0
 12
0.0
 22
0.0
 32
0.0
 14
268.255
 24
-9563.6549
 34
0.0
 15
316.0455
 25
-9528.5113
 35
0.0
146
0.0
 13
0.0
 23
0.0
 33
0.0
 16
1.0
 26
0.0
 36
0.0
 17
0.0
 27
1.0
 37
0.0
 76
     0
330
1F
331
29
  0
MATERIAL
  5
45
102
{ACAD_REACTORS
330
43
102
}
330
43
100
AcDbMaterial
  1
ByBlock
 72
     1
 94
      127
  0
MATERIAL
  5
44
102
{ACAD_REACTORS
330
43
102
}
330
43
100
AcDbMaterial
  1
ByLayer
 72
     1
 94
      127
  0
MATERIAL
  5
46
102
{ACAD_REACTORS
330
43
102
}
330
43
100
AcDbMaterial
  1
Global
 72
     1
 94
      127
  0
MLEADERSTYLE
  5
5C
102
{ACAD_REACTORS
330
5B
102
}
330
5B
100
AcDbMLeaderStyle
179
     2
170
     2
171
     1
172
     0
 90
        2
 40
0.0
 41
0.0
173
     1
 91
-1056964608
340
14
 92
       -2
290
     1
 42
0.09
291
     1
 43
0.36
  3
Standard
341
0
 44
0.18
300

342
11
174
     1
178
     6
175
     1
176
     0
 93
-1056964608
 45
0.18
292
     0
297
     0
 46
0.18
343
0
 94
-1056964608
 47
1.0
 49
1.0
140
1.0
293
     1
141
0.0
294
     1
177
     0
142
1.0
295
     0
296
     0
143
0.125
271
     0
272
     9
273
     9
298
     0
  0
MLINESTYLE
  5
18
102
{ACAD_REACTORS
330
17
102
}
330
17
100
AcDbMlineStyle
  2
Standard
 70
     0
  3

 62
   256
 51
90.0
 52
90.0
 71
     2
 49
0.5
 62
   256
  6
BYLAYER
 49
-0.5
 62
   256
  6
BYLAYER
  0
ACDBPLACEHOLDER
  5
F
102
{ACAD_REACTORS
330
E
102
}
330
E
  0
SCALE
  5
48
102
{ACAD_REACTORS
330
47
102
}
330
47
100
AcDbScale
 70
     0
300
1:1
140
1.0
141
1.0
290
     1
  0
SCALE
  5
49
102
{ACAD_REACTORS
330
47
102
}
330
47
100
AcDbScale
 70
     0
300
1/128" = 1'-0"
140
0.0078125
141
12.0
290
     0
  0
SCALE
  5
4A
102
{ACAD_REACTORS
330
47
102
}
330
47
100
AcDbScale
 70
     0
300
1/64" = 1'-0"
140
0.015625
141
12.0
290
     0
  0
SCALE
  5
4B
102
{ACAD_REACTORS
330
47
102
}
330
47
100
AcDbScale
 70
     0
300
1/32" = 1'-0"
140
0.03125
141
12.0
290
     0
  0
SCALE
  5
4C
102
{ACAD_REACTORS
330
47
102
}
330
47
100
AcDbScale
 70
     0
300
1/16" = 1'-0"
140
0.0625
141
12.0
290
     0
  0
SCALE
  5
4D
102
{ACAD_REACTORS
330
47
102
}
330
47
100
AcDbScale
 70
     0
300
3/32" = 1'-0"
140
0.09375
141
12.0
290
     0
  0
SCALE
  5
4E
102
{ACAD_REACTORS
330
47
102
}
330
47
100
AcDbScale
 70
     0
300
1/8" = 1'-0"
140
0.125
141
12.0
290
     0
  0
SCALE
  5
4F
102
{ACAD_REACTORS
330
47
102
}
330
47
100
AcDbScale
 70
     0
300
3/16" = 1'-0"
140
0.1875
141
12.0
290
     0
  0
SCALE
  5
50
102
{ACAD_REACTORS
330
47
102
}
330
47
100
AcDbScale
 70
     0
300
1/4" = 1'-0"
140
0.25
141
12.0
290
     0
  0
SCALE
  5
51
102
{ACAD_REACTORS
330
47
102
}
330
47
100
AcDbScale
 70
     0
300
3/8" = 1'-0"
140
0.375
141
12.0
290
     0
  0
SCALE
  5
52
102
{ACAD_REACTORS
330
47
102
}
330
47
100
AcDbScale
 70
     0
300
1/2" = 1'-0"
140
0.5
141
12.0
290
     0
  0
SCALE
  5
53
102
{ACAD_REACTORS
330
47
102
}
330
47
100
AcDbScale
 70
     0
300
3/4" = 1'-0"
140
0.75
141
12.0
290
     0
  0
SCALE
  5
54
102
{ACAD_REACTORS
330
47
102
}
330
47
100
AcDbScale
 70
     0
300
1" = 1'-0"
140
1.0
141
12.0
290
     0
  0
SCALE
  5
55
102
{ACAD_REACTORS
330
47
102
}
330
47
100
AcDbScale
 70
     0
300
1-1/2" = 1'-0"
140
1.5
141
12.0
290
     0
  0
SCALE
  5
56
102
{ACAD_REACTORS
330
47
102
}
330
47
100
AcDbScale
 70
     0
300
3" = 1'-0"
140
3.0
141
12.0
290
     0
  0
SCALE
  5
57
102
{ACAD_REACTORS
330
47
102
}
330
47
100
AcDbScale
 70
     0
300
6" = 1'-0"
140
6.0
141
12.0
290
     0
  0
SCALE
  5
58
102
{ACAD_REACTORS
330
47
102
}
330
47
100
AcDbScale
 70
     0
300
1'-0" = 1'-0"
140
12.0
141
12.0
290
     0
  0
TABLESTYLE
  5
5A
102
{ACAD_REACTORS
330
59
102
}
102
{ACAD_XDICTIONARY
360
AD
102
}
330
59
100
AcDbTableStyle
  3
Standard
 70
     0
 71
     0
 40
0.06
 41
0.06
280
     0
281
     0
  7
Standard
140
0.18
170
     2
 62
     0
 63
   257
283
     0
 90
        4
 91
        0
  1

274
    -2
284
     1
 64
     0
275
    -2
285
     1
 65
     0
276
    -2
286
     1
 66
     0
277
    -2
287
     1
 67
     0
278
    -2
288
     1
 68
     0
279
    -2
289
     1
 69
     0
  7
Standard
140
0.25
170
     5
 62
     0
 63
   257
283
     0
 90
        4
 91
        0
  1

274
    -2
284
     1
 64
     0
275
    -2
285
     1
 65
     0
276
    -2
286
     1
 66
     0
277
    -2
287
     1
 67
     0
278
    -2
288
     1
 68
     0
279
    -2
289
     1
 69
     0
  7
Standard
140
0.18
170
     5
 62
     0
 63
   257
283
     0
 90
        4
 91
        0
  1

274
    -2
284
     1
 64
     0
275
    -2
285
     1
 65
     0
276
    -2
286
     1
 66
     0
277
    -2
287
     1
 67
     0
278
    -2
288
     1
 68
     0
279
    -2
289
     1
 69
     0
  0
VISUALSTYLE
  5
2F
102
{ACAD_REACTORS
330
2A
102
}
330
2A
100
AcDbVisualStyle
  2
2dWireframe
 70
     4
177
     3
291
     0
 70
    58
 90
        0
176
     1
 90
        2
176
     1
 90
        0
176
     1
 90
        0
176
     1
 40
0.6
176
     1
 40
30.0
176
     1
 62
     7
420
 16777215
176
     1
 90
        1
176
     1
 90
        4
176
     1
 62
     7
176
     1
 62
   257
176
     1
 90
        1
176
     1
 90
        1
176
     1
 40
1.0
176
     1
 90
        0
176
     1
 62
   257
176
     1
 40
1.0
176
     1
 90
        1
176
     1
 90
        6
176
     1
 90
        2
176
     1
 62
     7
176
     1
 90
        5
176
     1
 90
        0
176
     1
 90
        0
176
     1
290
     0
176
     1
 90
        1
176
     1
 40
0.0
176
     1
 90
        0
176
     1
290
     1
176
     1
290
     1
176
     1
290
     0
176
     1
290
     0
176
     1
290
     0
176
     1
290
     0
176
     1
290
     0
176
     1
290
     0
176
     1
290
     0
176
     1
 90
       50
176
     1
 40
0.0
176
     1
 40
1.0
176
     1
 90
        0
176
     1
 62
    18
420
        0
176
     1
 90
       50
176
     1
 90
        3
176
     1
 62
     5
420
      255
176
     1
290
     0
176
     1
 90
       50
176
     1
 90
       50
176
     1
 90
       50
176
     1
290
     0
176
     1
 90
       50
176
     1
 62
   256
176
     0
 40
1.0
176
     0
 90
        2
176
     1
  1
strokes_ogs.tif
176
     1
290
     0
176
     1
 40
1.0
176
     1
 40
1.0
176
     1
  0
VISUALSTYLE
  5
32
102
{ACAD_REACTORS
330
2A
102
}
330
2A
100
AcDbVisualStyle
  2
Basic
 70
     7
177
     3
291
     1
 70
    58
 90
        1
176
     1
 90
        0
176
     1
 90
        1
176
     1
 90
        0
176
     1
 40
0.6
176
     1
 40
30.0
176
     1
 62
     7
420
 16777215
176
     1
 90
        0
176
     1
 90
        4
176
     1
 62
     7
176
     1
 62
   257
176
     1
 90
        1
176
     1
 90
        1
176
     1
 40
1.0
176
     1
 90
        8
176
     1
 62
     7
176
     1
 40
1.0
176
     1
 90
        1
176
     1
 90
        6
176
     1
 90
        2
176
     1
 62
     7
176
     1
 90
        5
176
     1
 90
        0
176
     1
 90
        0
176
     1
290
     0
176
     1
 90
        1
176
     1
 40
0.0
176
     1
 90
        0
176
     1
290
     0
176
     1
290
     1
176
     1
290
     1
176
     1
290
     0
176
     1
290
     0
176
     1
290
     0
176
     1
290
     0
176
     1
290
     0
176
     1
290
     0
176
     1
 90
       50
176
     1
 40
0.0
176
     1
 40
1.0
176
     1
 90
        0
176
     1
 62
    18
420
        0
176
     1
 90
       50
176
     1
 90
        3
176
     1
 62
     5
420
      255
176
     1
290
     0
176
     1
 90
       50
176
     1
 90
       50
176
     1
 90
       50
176
     1
290
     0
176
     1
 90
       50
176
     1
 62
   256
176
     0
 40
1.0
176
     0
 90
        2
176
     1
  1
strokes_ogs.tif
176
     1
290
     0
176
     1
 40
1.0
176
     1
 40
1.0
176
     1
  0
VISUALSTYLE
  5
36
102
{ACAD_REACTORS
330
2A
102
}
330
2A
100
AcDbVisualStyle
  2
Brighten
 70
    12
177
     3
291
     1
 70
    58
 90
        2
176
     1
 90
        2
176
     1
 90
        0
176
     1
 90
        0
176
     1
 40
0.6
176
     1
 40
30.0
176
     1
 62
     7
420
 16777215
176
     1
 90
        1
176
     1
 90
        4
176
     1
 62
     7
176
     1
 62
   257
176
     1
 90
        1
176
     1
 90
        1
176
     1
 40
1.0
176
     1
 90
        8
176
     1
 62
     7
176
     1
 40
1.0
176
     1
 90
        1
176
     1
 90
        6
176
     1
 90
        2
176
     1
 62
     7
176
     1
 90
        5
176
     1
 90
        0
176
     1
 90
        0
176
     1
290
     0
176
     1
 90
        1
176
     1
 40
50.0
176
     1
 90
        0
176
     1
290
     0
176
     1
290
     1
176
     1
290
     1
176
     1
290
     0
176
     1
290
     0
176
     1
290
     0
176
     1
290
     0
176
     1
290
     0
176
     1
290
     0
176
     1
 90
       50
176
     1
 40
0.0
176
     1
 40
1.0
176
     1
 90
        0
176
     1
 62
    18
420
        0
176
     1
 90
       50
176
     1
 90
        3
176
     1
 62
     5
420
      255
176
     1
290
     0
176
     1
 90
       50
176
     1
 90
       50
176
     1
 90
       50
176
     1
290
     0
176
     1
 90
       50
176
     1
 62
   256
176
     0
 40
1.0
176
     0
 90
        2
176
     1
  1
strokes_ogs.tif
176
     1
290
     0
176
     1
 40
1.0
176
     1
 40
1.0
176
     1
  0
VISUALSTYLE
  5
3A
102
{ACAD_REACTORS
330
2A
102
}
330
2A
100
AcDbVisualStyle
  2
ColorChange
 70
    16
177
     3
291
     1
 70
    58
 90
        2
176
     1
 90
        2
176
     1
 90
        3
176
     1
 90
        0
176
     1
 40
0.6
176
     1
 40
30.0
176
     1
 62
     8
420
  8421504
176
     1
 90
        1
176
     1
 90
        4
176
     1
 62
     7
176
     1
 62
   257
176
     1
 90
        1
176
     1
 90
        1
176
     1
 40
1.0
176
     1
 90
        8
176
     1
 62
     8
420
  8421504
176
     1
 40
1.0
176
     1
 90
        1
176
     1
 90
        6
176
     1
 90
        2
176
     1
 62
     7
176
     1
 90
        5
176
     1
 90
        0
176
     1
 90
        0
176
     1
290
     0
176
     1
 90
        1
176
     1
 40
0.0
176
     1
 90
        0
176
     1
290
     0
176
     1
290
     1
176
     1
290
     1
176
     1
290
     0
176
     1
290
     0
176
     1
290
     0
176
     1
290
     0
176
     1
290
     0
176
     1
290
     0
176
     1
 90
       50
176
     1
 40
0.0
176
     1
 40
1.0
176
     1
 90
        0
176
     1
 62
    18
420
        0
176
     1
 90
       50
176
     1
 90
        3
176
     1
 62
     5
420
      255
176
     1
290
     0
176
     1
 90
       50
176
     1
 90
       50
176
     1
 90
       50
176
     1
290
     0
176
     1
 90
       50
176
     1
 62
   256
176
     0
 40
1.0
176
     0
 90
        2
176
     1
  1
strokes_ogs.tif
176
     1
290
     0
176
     1
 40
1.0
176
     1
 40
1.0
176
     1
  0
VISUALSTYLE
  5
34
102
{ACAD_REACTORS
330
2A
102
}
330
2A
100
AcDbVisualStyle
  2
Conceptual
 70
     9
177
     3
291
     0
 70
    58
 90
        3
176
     1
 90
        2
176
     1
 90
        0
176
     1
 90
        0
176
     1
 40
0.6
176
     1
 40
30.0
176
     1
 62
     7
420
 16777215
176
     1
 90
        2
176
     1
 90
        2
176
     1
 62
     7
176
     1
 62
   257
176
     1
 90
        1
176
     1
 90
        1
176
     1
 40
179.0
176
     1
 90
        8
176
     1
 62
     7
176
     1
 40
1.0
176
     1
 90
        1
176
     1
 90
        6
176
     1
 90
        2
176
     1
 62
     7
176
     1
 90
        3
176
     1
 90
        0
176
     1
 90
        0
176
     1
290
     0
176
     1
 90
        1
176
     1
 40
0.0
176
     1
 90
        0
176
     1
290
     0
176
     1
290
     1
176
     1
290
     1
176
     1
290
     0
176
     1
290
     0
176
     1
290
     0
176
     1
290
     0
176
     1
290
     0
176
     1
290
     0
176
     1
 90
       50
176
     1
 40
0.0
176
     1
 40
1.0
176
     1
 90
        0
176
     1
 62
    18
420
        0
176
     1
 90
       50
176
     1
 90
        3
176
     1
 62
     5
420
      255
176
     1
290
     0
176
     1
 90
       50
176
     1
 90
       50
176
     1
 90
       50
176
     1
290
     0
176
     1
 90
       50
176
     1
 62
   256
176
     0
 40
1.0
176
     0
 90
        2
176
     1
  1
strokes_ogs.tif
176
     1
290
     0
176
     1
 40
1.0
176
     1
 40
1.0
176
     1
  0
VISUALSTYLE
  5
35
102
{ACAD_REACTORS
330
2A
102
}
330
2A
100
AcDbVisualStyle
  2
Dim
 70
    11
177
     3
291
     1
 70
    58
 90
        2
176
     1
 90
        2
176
     1
 90
        0
176
     1
 90
        0
176
     1
 40
0.6
176
     1
 40
30.0
176
     1
 62
     7
420
 16777215
176
     1
 90
        1
176
     1
 90
        4
176
     1
 62
     7
176
     1
 62
   257
176
     1
 90
        1
176
     1
 90
        1
176
     1
 40
1.0
176
     1
 90
        8
176
     1
 62
     7
176
     1
 40
1.0
176
     1
 90
        1
176
     1
 90
        6
176
     1
 90
        2
176
     1
 62
     7
176
     1
 90
        5
176
     1
 90
        0
176
     1
 90
        0
176
     1
290
     0
176
     1
 90
        1
176
     1
 40
-50.0
176
     1
 90
        0
176
     1
290
     0
176
     1
290
     1
176
     1
290
     1
176
     1
290
     0
176
     1
290
     0
176
     1
290
     0
176
     1
290
     0
176
     1
290
     0
176
     1
290
     0
176
     1
 90
       50
176
     1
 40
0.0
176
     1
 40
1.0
176
     1
 90
        0
176
     1
 62
    18
420
        0
176
     1
 90
       50
176
     1
 90
        3
176
     1
 62
     5
420
      255
176
     1
290
     0
176
     1
 90
       50
176
     1
 90
       50
176
     1
 90
       50
176
     1
290
     0
176
     1
 90
       50
176
     1
 62
   256
176
     0
 40
1.0
176
     0
 90
        2
176
     1
  1
strokes_ogs.tif
176
     1
290
     0
176
     1
 40
1.0
176
     1
 40
1.0
176
     1
  0
VISUALSTYLE
  5
3D
102
{ACAD_REACTORS
330
2A
102
}
330
2A
100
AcDbVisualStyle
  2
EdgeColorOff
 70
    22
177
     3
291
     1
 70
    58
 90
        2
176
     0
 90
        2
176
     0
 90
        0
176
     0
 90
        0
176
     0
 40
0.6
176
     0
 40
30.0
176
     0
 62
     7
420
 16777215
176
     0
 90
        1
176
     0
 90
        4
176
     0
 62
     7
176
     0
 62
   257
176
     0
 90
        1
176
     0
 90
        1
176
     0
 40
1.0
176
     0
 90
        8
176
     2
 62
     7
176
     0
 40
1.0
176
     0
 90
        1
176
     0
 90
        6
176
     0
 90
        2
176
     0
 62
     7
176
     0
 90
        5
176
     0
 90
        0
176
     0
 90
        0
176
     0
290
     0
176
     0
 90
        1
176
     0
 40
0.0
176
     0
 90
        0
176
     0
290
     0
176
     0
290
     1
176
     0
290
     1
176
     0
290
     0
176
     0
290
     0
176
     0
290
     0
176
     0
290
     0
176
     0
290
     0
176
     0
290
     0
176
     0
 90
       50
176
     0
 40
0.0
176
     0
 40
1.0
176
     0
 90
        0
176
     0
 62
    18
420
        0
176
     0
 90
       50
176
     0
 90
        3
176
     0
 62
     5
420
      255
176
     0
290
     0
176
     0
 90
       50
176
     0
 90
       50
176
     0
 90
       50
176
     0
290
     0
176
     0
 90
       50
176
     0
 62
   256
176
     0
 40
1.0
176
     0
 90
        2
176
     0
  1
strokes_ogs.tif
176
     0
290
     0
176
     0
 40
1.0
176
     0
 40
1.0
176
     0
  0
VISUALSTYLE
  5
39
102
{ACAD_REACTORS
330
2A
102
}
330
2A
100
AcDbVisualStyle
  2
Facepattern
 70
    15
177
     3
291
     1
 70
    58
 90
        2
176
     1
 90
        2
176
     1
 90
        0
176
     1
 90
        0
176
     1
 40
0.6
176
     1
 40
30.0
176
     1
 62
     7
420
 16777215
176
     1
 90
        1
176
     1
 90
        4
176
     1
 62
     7
176
     1
 62
   257
176
     1
 90
        1
176
     1
 90
        1
176
     1
 40
1.0
176
     1
 90
        8
176
     1
 62
     7
176
     1
 40
1.0
176
     1
 90
        1
176
     1
 90
        6
176
     1
 90
        2
176
     1
 62
     7
176
     1
 90
        5
176
     1
 90
        0
176
     1
 90
        0
176
     1
290
     0
176
     1
 90
        1
176
     1
 40
0.0
176
     1
 90
        0
176
     1
290
     0
176
     1
290
     1
176
     1
290
     1
176
     1
290
     0
176
     1
290
     0
176
     1
290
     0
176
     1
290
     0
176
     1
290
     0
176
     1
290
     0
176
     1
 90
       50
176
     1
 40
0.0
176
     1
 40
1.0
176
     1
 90
        0
176
     1
 62
    18
420
        0
176
     1
 90
       50
176
     1
 90
        3
176
     1
 62
     5
420
      255
176
     1
290
     0
176
     1
 90
       50
176
     1
 90
       50
176
     1
 90
       50
176
     1
290
     0
176
     1
 90
       50
176
     1
 62
   256
176
     0
 40
1.0
176
     0
 90
        2
176
     1
  1
strokes_ogs.tif
176
     1
290
     0
176
     1
 40
1.0
176
     1
 40
1.0
176
     1
  0
VISUALSTYLE
  5
2B
102
{ACAD_REACTORS
330
2A
102
}
330
2A
100
AcDbVisualStyle
  2
Flat
 70
     0
177
     3
291
     1
 70
    58
 90
        2
176
     1
 90
        1
176
     1
 90
        1
176
     1
 90
        2
176
     1
 40
0.6
176
     1
 40
30.0
176
     1
 62
     7
420
 16777215
176
     1
 90
        0
176
     1
 90
        0
176
     1
 62
     7
176
     1
 62
   257
176
     1
 90
        1
176
     1
 90
        1
176
     1
 40
1.0
176
     1
 90
        8
176
     1
 62
     7
176
     1
 40
1.0
176
     1
 90
        1
176
     1
 90
        6
176
     1
 90
        2
176
     1
 62
     7
176
     1
 90
        5
176
     1
 90
        0
176
     1
 90
        0
176
     1
290
     0
176
     1
 90
       13
176
     1
 40
0.0
176
     1
 90
        0
176
     1
290
     0
176
     1
290
     1
176
     1
290
     1
176
     1
290
     0
176
     1
290
     0
176
     1
290
     0
176
     1
290
     0
176
     1
290
     0
176
     1
290
     0
176
     1
 90
       50
176
     1
 40
0.0
176
     1
 40
1.0
176
     1
 90
        0
176
     1
 62
    18
420
        0
176
     1
 90
       50
176
     1
 90
        3
176
     1
 62
     5
420
      255
176
     1
290
     0
176
     1
 90
       50
176
     1
 90
       50
176
     1
 90
       50
176
     1
290
     0
176
     1
 90
       50
176
     1
 62
   256
176
     0
 40
1.0
176
     0
 90
        2
176
     1
  1
strokes_ogs.tif
176
     1
290
     0
176
     1
 40
1.0
176
     1
 40
1.0
176
     1
  0
VISUALSTYLE
  5
2C
102
{ACAD_REACTORS
330
2A
102
}
330
2A
100
AcDbVisualStyle
  2
FlatWithEdges
 70
     1
177
     3
291
     1
 70
    58
 90
        2
176
     1
 90
        1
176
     1
 90
        1
176
     1
 90
        2
176
     1
 40
0.6
176
     1
 40
30.0
176
     1
 62
     7
420
 16777215
176
     1
 90
        1
176
     1
 90
        0
176
     1
 62
     7
176
     1
 62
   257
176
     1
 90
        1
176
     1
 90
        1
176
     1
 40
1.0
176
     1
 90
        0
176
     1
 62
   257
176
     1
 40
1.0
176
     1
 90
        1
176
     1
 90
        6
176
     1
 90
        2
176
     1
 62
     7
176
     1
 90
        5
176
     1
 90
        0
176
     1
 90
        0
176
     1
290
     0
176
     1
 90
       13
176
     1
 40
0.0
176
     1
 90
        0
176
     1
290
     0
176
     1
290
     1
176
     1
290
     1
176
     1
290
     0
176
     1
290
     0
176
     1
290
     0
176
     1
290
     0
176
     1
290
     0
176
     1
290
     0
176
     1
 90
       50
176
     1
 40
0.0
176
     1
 40
1.0
176
     1
 90
        0
176
     1
 62
    18
420
        0
176
     1
 90
       50
176
     1
 90
        3
176
     1
 62
     5
420
      255
176
     1
290
     0
176
     1
 90
       50
176
     1
 90
       50
176
     1
 90
       50
176
     1
290
     0
176
     1
 90
       50
176
     1
 62
   256
176
     0
 40
1.0
176
     0
 90
        2
176
     1
  1
strokes_ogs.tif
176
     1
290
     0
176
     1
 40
1.0
176
     1
 40
1.0
176
     1
  0
VISUALSTYLE
  5
2D
102
{ACAD_REACTORS
330
2A
102
}
330
2A
100
AcDbVisualStyle
  2
Gouraud
 70
     2
177
     3
291
     1
 70
    58
 90
        2
176
     1
 90
        2
176
     1
 90
        1
176
     1
 90
        2
176
     1
 40
0.6
176
     1
 40
30.0
176
     1
 62
     7
420
 16777215
176
     1
 90
        0
176
     1
 90
        0
176
     1
 62
     7
176
     1
 62
   257
176
     1
 90
        1
176
     1
 90
        1
176
     1
 40
1.0
176
     1
 90
        0
176
     1
 62
     7
176
     1
 40
1.0
176
     1
 90
        1
176
     1
 90
        6
176
     1
 90
        2
176
     1
 62
     7
176
     1
 90
        5
176
     1
 90
        0
176
     1
 90
        0
176
     1
290
     0
176
     1
 90
       13
176
     1
 40
0.0
176
     1
 90
        0
176
     1
290
     0
176
     1
290
     1
176
     1
290
     1
176
     1
290
     0
176
     1
290
     0
176
     1
290
     0
176
     1
290
     0
176
     1
290
     0
176
     1
290
     0
176
     1
 90
       50
176
     1
 40
0.0
176
     1
 40
1.0
176
     1
 90
        0
176
     1
 62
    18
420
        0
176
     1
 90
       50
176
     1
 90
        3
176
     1
 62
     5
420
      255
176
     1
290
     0
176
     1
 90
       50
176
     1
 90
       50
176
     1
 90
       50
176
     1
290
     0
176
     1
 90
       50
176
     1
 62
   256
176
     0
 40
1.0
176
     0
 90
        2
176
     1
  1
strokes_ogs.tif
176
     1
290
     0
176
     1
 40
1.0
176
     1
 40
1.0
176
     1
  0
VISUALSTYLE
  5
2E
102
{ACAD_REACTORS
330
2A
102
}
330
2A
100
AcDbVisualStyle
  2
GouraudWithEdges
 70
     3
177
     3
291
     1
 70
    58
 90
        2
176
     1
 90
        2
176
     1
 90
        1
176
     1
 90
        2
176
     1
 40
0.6
176
     1
 40
30.0
176
     1
 62
     7
420
 16777215
176
     1
 90
        1
176
     1
 90
        0
176
     1
 62
     7
176
     1
 62
   257
176
     1
 90
        1
176
     1
 90
        1
176
     1
 40
1.0
176
     1
 90
        0
176
     1
 62
   257
176
     1
 40
1.0
176
     1
 90
        1
176
     1
 90
        6
176
     1
 90
        2
176
     1
 62
     7
176
     1
 90
        5
176
     1
 90
        0
176
     1
 90
        0
176
     1
290
     0
176
     1
 90
       13
176
     1
 40
0.0
176
     1
 90
        0
176
     1
290
     0
176
     1
290
     1
176
     1
290
     1
176
     1
290
     0
176
     1
290
     0
176
     1
290
     0
176
     1
290
     0
176
     1
290
     0
176
     1
290
     0
176
     1
 90
       50
176
     1
 40
0.0
176
     1
 40
1.0
176
     1
 90
        0
176
     1
 62
    18
420
        0
176
     1
 90
       50
176
     1
 90
        3
176
     1
 62
     5
420
      255
176
     1
290
     0
176
     1
 90
       50
176
     1
 90
       50
176
     1
 90
       50
176
     1
290
     0
176
     1
 90
       50
176
     1
 62
   256
176
     0
 40
1.0
176
     0
 90
        2
176
     1
  1
strokes_ogs.tif
176
     1
290
     0
176
     1
 40
1.0
176
     1
 40
1.0
176
     1
  0
VISUALSTYLE
  5
31
102
{ACAD_REACTORS
330
2A
102
}
330
2A
100
AcDbVisualStyle
  2
Hidden
 70
     6
177
     3
291
     0
 70
    58
 90
        1
176
     1
 90
        2
176
     1
 90
        2
176
     1
 90
        0
176
     1
 40
0.6
176
     1
 40
30.0
176
     1
 62
     7
420
 16777215
176
     1
 90
        2
176
     1
 90
        2
176
     1
 62
     7
176
     1
 62
   257
176
     1
 90
        2
176
     1
 90
        1
176
     1
 40
40.0
176
     1
 90
        0
176
     1
 62
   257
176
     1
 40
1.0
176
     1
 90
        1
176
     1
 90
        6
176
     1
 90
        2
176
     1
 62
     7
176
     1
 90
        3
176
     1
 90
        0
176
     1
 90
        0
176
     1
290
     0
176
     1
 90
        1
176
     1
 40
0.0
176
     1
 90
        0
176
     1
290
     0
176
     1
290
     1
176
     1
290
     1
176
     1
290
     0
176
     1
290
     0
176
     1
290
     0
176
     1
290
     0
176
     1
290
     0
176
     1
290
     0
176
     1
 90
       50
176
     1
 40
0.0
176
     1
 40
1.0
176
     1
 90
        0
176
     1
 62
    18
420
        0
176
     1
 90
       50
176
     1
 90
        3
176
     1
 62
     5
420
      255
176
     1
290
     0
176
     1
 90
       50
176
     1
 90
       50
176
     1
 90
       50
176
     1
290
     0
176
     1
 90
       50
176
     1
 62
   256
176
     0
 40
1.0
176
     0
 90
        2
176
     1
  1
strokes_ogs.tif
176
     1
290
     0
176
     1
 40
1.0
176
     1
 40
1.0
176
     1
  0
VISUALSTYLE
  5
3B
102
{ACAD_REACTORS
330
2A
102
}
330
2A
100
AcDbVisualStyle
  2
JitterOff
 70
    20
177
     3
291
     1
 70
    58
 90
        2
176
     0
 90
        2
176
     0
 90
        0
176
     0
 90
        0
176
     0
 40
0.6
176
     0
 40
30.0
176
     0
 62
     7
420
 16777215
176
     0
 90
        1
176
     0
 90
        4
176
     0
 62
     7
176
     0
 62
   257
176
     0
 90
        1
176
     0
 90
        1
176
     0
 40
1.0
176
     0
 90
       10
176
     2
 62
     7
176
     0
 40
1.0
176
     0
 90
        1
176
     0
 90
        6
176
     0
 90
        2
176
     0
 62
     7
176
     0
 90
        5
176
     0
 90
        0
176
     0
 90
        0
176
     0
290
     0
176
     0
 90
        1
176
     0
 40
0.0
176
     0
 90
        0
176
     0
290
     0
176
     0
290
     1
176
     0
290
     1
176
     0
290
     0
176
     0
290
     0
176
     0
290
     0
176
     0
290
     0
176
     0
290
     0
176
     0
290
     0
176
     0
 90
       50
176
     0
 40
0.0
176
     0
 40
1.0
176
     0
 90
        0
176
     0
 62
    18
420
        0
176
     0
 90
       50
176
     0
 90
        3
176
     0
 62
     5
420
      255
176
     0
290
     0
176
     0
 90
       50
176
     0
 90
       50
176
     0
 90
       50
176
     0
290
     0
176
     0
 90
       50
176
     0
 62
   256
176
     0
 40
1.0
176
     0
 90
        2
176
     0
  1
strokes_ogs.tif
176
     0
290
     0
176
     0
 40
1.0
176
     0
 40
1.0
176
     0
  0
VISUALSTYLE
  5
38
102
{ACAD_REACTORS
330
2A
102
}
330
2A
100
AcDbVisualStyle
  2
Linepattern
 70
    14
177
     3
291
     1
 70
    58
 90
        2
176
     1
 90
        2
176
     1
 90
        0
176
     1
 90
        0
176
     1
 40
0.6
176
     1
 40
30.0
176
     1
 62
     7
420
 16777215
176
     1
 90
        1
176
     1
 90
        4
176
     1
 62
     7
176
     1
 62
   257
176
     1
 90
        7
176
     1
 90
        7
176
     1
 40
1.0
176
     1
 90
        8
176
     1
 62
     7
176
     1
 40
1.0
176
     1
 90
        1
176
     1
 90
        6
176
     1
 90
        2
176
     1
 62
     7
176
     1
 90
        5
176
     1
 90
        0
176
     1
 90
        0
176
     1
290
     0
176
     1
 90
        1
176
     1
 40
0.0
176
     1
 90
        0
176
     1
290
     0
176
     1
290
     1
176
     1
290
     1
176
     1
290
     0
176
     1
290
     0
176
     1
290
     0
176
     1
290
     0
176
     1
290
     0
176
     1
290
     0
176
     1
 90
       50
176
     1
 40
0.0
176
     1
 40
1.0
176
     1
 90
        0
176
     1
 62
    18
420
        0
176
     1
 90
       50
176
     1
 90
        3
176
     1
 62
     5
420
      255
176
     1
290
     0
176
     1
 90
       50
176
     1
 90
       50
176
     1
 90
       50
176
     1
290
     0
176
     1
 90
       50
176
     1
 62
   256
176
     0
 40
1.0
176
     0
 90
        2
176
     1
  1
strokes_ogs.tif
176
     1
290
     0
176
     1
 40
1.0
176
     1
 40
1.0
176
     1
  0
VISUALSTYLE
  5
3C
102
{ACAD_REACTORS
330
2A
102
}
330
2A
100
AcDbVisualStyle
  2
OverhangOff
 70
    21
177
     3
291
     1
 70
    58
 90
        2
176
     0
 90
        2
176
     0
 90
        0
176
     0
 90
        0
176
     0
 40
0.6
176
     0
 40
30.0
176
     0
 62
     7
420
 16777215
176
     0
 90
        1
176
     0
 90
        4
176
     0
 62
     7
176
     0
 62
   257
176
     0
 90
        1
176
     0
 90
        1
176
     0
 40
1.0
176
     0
 90
        9
176
     2
 62
     7
176
     0
 40
1.0
176
     0
 90
        1
176
     0
 90
        6
176
     0
 90
        2
176
     0
 62
     7
176
     0
 90
        5
176
     0
 90
        0
176
     0
 90
        0
176
     0
290
     0
176
     0
 90
        1
176
     0
 40
0.0
176
     0
 90
        0
176
     0
290
     0
176
     0
290
     1
176
     0
290
     1
176
     0
290
     0
176
     0
290
     0
176
     0
290
     0
176
     0
290
     0
176
     0
290
     0
176
     0
290
     0
176
     0
 90
       50
176
     0
 40
0.0
176
     0
 40
1.0
176
     0
 90
        0
176
     0
 62
    18
420
        0
176
     0
 90
       50
176
     0
 90
        3
176
     0
 62
     5
420
      255
176
     0
290
     0
176
     0
 90
       50
176
     0
 90
       50
176
     0
 90
       50
176
     0
290
     0
176
     0
 90
       50
176
     0
 62
   256
176
     0
 40
1.0
176
     0
 90
        2
176
     0
  1
strokes_ogs.tif
176
     0
290
     0
176
     0
 40
1.0
176
     0
 40
1.0
176
     0
  0
VISUALSTYLE
  5
33
102
{ACAD_REACTORS
330
2A
102
}
330
2A
100
AcDbVisualStyle
  2
Realistic
 70
     8
177
     3
291
     0
 70
    58
 90
        2
176
     1
 90
        3
176
     1
 90
        0
176
     1
 90
        2
176
     1
 40
0.6
176
     1
 40
30.0
176
     1
 62
     7
420
 16777215
176
     1
 90
        0
176
     1
 90
        0
176
     1
 62
     7
176
     1
 62
   257
176
     1
 90
        1
176
     1
 90
        1
176
     1
 40
1.0
176
     1
 90
        8
176
     1
 62
   257
176
     1
 40
1.0
176
     1
 90
        1
176
     1
 90
        6
176
     1
 90
        2
176
     1
 62
     7
176
     1
 90
        3
176
     1
 90
        0
176
     1
 90
        0
176
     1
290
     0
176
     1
 90
       13
176
     1
 40
0.0
176
     1
 90
        0
176
     1
290
     0
176
     1
290
     1
176
     1
290
     1
176
     1
290
     0
176
     1
290
     0
176
     1
290
     0
176
     1
290
     0
176
     1
290
     0
176
     1
290
     0
176
     1
 90
       50
176
     1
 40
0.0
176
     1
 40
1.0
176
     1
 90
        0
176
     1
 62
    18
420
        0
176
     1
 90
       50
176
     1
 90
        3
176
     1
 62
     5
420
      255
176
     1
290
     0
176
     1
 90
       50
176
     1
 90
       50
176
     1
 90
       50
176
     1
290
     0
176
     1
 90
       50
176
     1
 62
   256
176
     0
 40
1.0
176
     0
 90
        2
176
     1
  1
strokes_ogs.tif
176
     1
290
     0
176
     1
 40
1.0
176
     1
 40
1.0
176
     1
  0
VISUALSTYLE
  5
42
102
{ACAD_REACTORS
330
2A
102
}
330
2A
100
AcDbVisualStyle
  2
Shaded
 70
    27
177
     3
291
     0
 70
    58
 90
        2
176
     1
 90
        2
176
     1
 90
        1
176
     1
 90
        2
176
     1
 40
0.6
176
     1
 40
30.0
176
     1
 62
     7
420
 16777215
176
     1
 90
        0
176
     1
 90
        4
176
     1
 62
     7
176
     1
 62
   257
176
     1
 90
        1
176
     1
 90
        1
176
     1
 40
1.0
176
     1
 90
        8
176
     1
 62
   257
176
     1
 40
1.0
176
     1
 90
        1
176
     1
 90
        6
176
     1
 90
        2
176
     1
 62
     8
420
  7895160
176
     1
 90
        3
176
     1
 90
        0
176
     1
 90
        0
176
     1
290
     0
176
     1
 90
        5
176
     1
 40
0.0
176
     1
 90
        0
176
     1
290
     0
176
     1
290
     1
176
     1
290
     1
176
     1
290
     0
176
     1
290
     0
176
     1
290
     0
176
     1
290
     0
176
     1
290
     0
176
     1
290
     0
176
     1
 90
       50
176
     1
 40
0.0
176
     1
 40
1.0
176
     1
 90
        0
176
     1
 62
    18
420
        0
176
     1
 90
       50
176
     1
 90
        3
176
     1
 62
     5
420
      255
176
     1
290
     0
176
     1
 90
       50
176
     1
 90
       50
176
     1
 90
       50
176
     1
290
     0
176
     1
 90
       50
176
     1
 62
   256
176
     0
 40
1.0
176
     0
 90
        2
176
     1
  1
strokes_ogs.tif
176
     1
290
     0
176
     1
 40
1.0
176
     1
 40
1.0
176
     1
  0
VISUALSTYLE
  5
41
102
{ACAD_REACTORS
330
2A
102
}
330
2A
100
AcDbVisualStyle
  2
Shaded with edges
 70
    26
177
     3
291
     0
 70
    58
 90
        2
176
     1
 90
        2
176
     1
 90
        1
176
     1
 90
        2
176
     1
 40
0.6
176
     1
 40
30.0
176
     1
 62
     7
420
 16777215
176
     1
 90
        1
176
     1
 90
       10
176
     1
 62
     7
176
     1
 62
   257
176
     1
 90
        2
176
     1
 90
        1
176
     1
 40
1.0
176
     1
 90
        8
176
     1
 62
   257
176
     1
 40
1.0
176
     1
 90
        1
176
     1
 90
        6
176
     1
 90
        2
176
     1
 62
     7
176
     1
 90
        3
176
     1
 90
        0
176
     1
 90
        0
176
     1
290
     0
176
     1
 90
        5
176
     1
 40
0.0
176
     1
 90
        0
176
     1
290
     0
176
     1
290
     1
176
     1
290
     1
176
     1
290
     0
176
     1
290
     0
176
     1
290
     0
176
     1
290
     0
176
     1
290
     0
176
     1
290
     0
176
     1
 90
       50
176
     1
 40
0.0
176
     1
 40
1.0
176
     1
 90
        0
176
     1
 62
    18
420
        0
176
     1
 90
       50
176
     1
 90
        3
176
     1
 62
     5
420
      255
176
     1
290
     0
176
     1
 90
       50
176
     1
 90
       50
176
     1
 90
       50
176
     1
290
     0
176
     1
 90
       50
176
     1
 62
   256
176
     0
 40
1.0
176
     0
 90
        2
176
     1
  1
strokes_ogs.tif
176
     1
290
     0
176
     1
 40
1.0
176
     1
 40
1.0
176
     1
  0
VISUALSTYLE
  5
3E
102
{ACAD_REACTORS
330
2A
102
}
330
2A
100
AcDbVisualStyle
  2
Shades of Gray
 70
    23
177
     3
291
     0
 70
    58
 90
        2
176
     1
 90
        2
176
     1
 90
        3
176
     1
 90
        0
176
     1
 40
0.6
176
     1
 40
30.0
176
     1
 62
     7
420
 16777215
176
     1
 90
        2
176
     1
 90
        2
176
     1
 62
     7
176
     1
 62
     7
176
     1
 90
        1
176
     1
 90
        1
176
     1
 40
40.0
176
     1
 90
        8
176
     1
 62
     7
176
     1
 40
1.0
176
     1
 90
        1
176
     1
 90
        6
176
     1
 90
        2
176
     1
 62
     7
176
     1
 90
        3
176
     1
 90
        0
176
     1
 90
        0
176
     1
290
     0
176
     1
 90
        1
176
     1
 40
0.0
176
     1
 90
        0
176
     1
290
     0
176
     1
290
     1
176
     1
290
     1
176
     1
290
     0
176
     1
290
     0
176
     1
290
     0
176
     1
290
     0
176
     1
290
     0
176
     1
290
     0
176
     1
 90
       50
176
     1
 40
0.0
176
     1
 40
1.0
176
     1
 90
        0
176
     1
 62
    18
420
        0
176
     1
 90
       50
176
     1
 90
        3
176
     1
 62
     5
420
      255
176
     1
290
     0
176
     1
 90
       50
176
     1
 90
       50
176
     1
 90
       50
176
     1
290
     0
176
     1
 90
       50
176
     1
 62
   256
176
     0
 40
1.0
176
     0
 90
        2
176
     1
  1
strokes_ogs.tif
176
     1
290
     0
176
     1
 40
1.0
176
     1
 40
1.0
176
     1
  0
VISUALSTYLE
  5
3F
102
{ACAD_REACTORS
330
2A
102
}
330
2A
100
AcDbVisualStyle
  2
Sketchy
 70
    24
177
     3
291
     0
 70
    58
 90
        1
176
     1
 90
        2
176
     1
 90
        2
176
     1
 90
        0
176
     1
 40
0.6
176
     1
 40
30.0
176
     1
 62
     7
420
 16777215
176
     1
 90
        2
176
     1
 90
        2
176
     1
 62
     7
176
     1
 62
     7
176
     1
 90
        1
176
     1
 90
        1
176
     1
 40
40.0
176
     1
 90
       11
176
     1
 62
     7
176
     1
 40
1.0
176
     1
 90
        1
176
     1
 90
        6
176
     1
 90
        2
176
     1
 62
     7
176
     1
 90
        6
176
     1
 90
        0
176
     1
 90
        0
176
     1
290
     0
176
     1
 90
        1
176
     1
 40
0.0
176
     1
 90
        0
176
     1
290
     0
176
     1
290
     1
176
     1
290
     1
176
     1
290
     0
176
     1
290
     0
176
     1
290
     0
176
     1
290
     0
176
     1
290
     0
176
     1
290
     0
176
     1
 90
       50
176
     1
 40
0.0
176
     1
 40
1.0
176
     1
 90
        0
176
     1
 62
    18
420
        0
176
     1
 90
       50
176
     1
 90
        3
176
     1
 62
     5
420
      255
176
     1
290
     0
176
     1
 90
       50
176
     1
 90
       50
176
     1
 90
       50
176
     1
290
     0
176
     1
 90
       50
176
     1
 62
   256
176
     0
 40
1.0
176
     0
 90
        2
176
     1
  1
strokes_ogs.tif
176
     1
290
     0
176
     1
 40
1.0
176
     1
 40
1.0
176
     1
  0
VISUALSTYLE
  5
37
102
{ACAD_REACTORS
330
2A
102
}
330
2A
100
AcDbVisualStyle
  2
Thicken
 70
    13
177
     3
291
     1
 70
    58
 90
        2
176
     1
 90
        2
176
     1
 90
        0
176
     1
 90
        0
176
     1
 40
0.6
176
     1
 40
30.0
176
     1
 62
     7
420
 16777215
176
     1
 90
        1
176
     1
 90
        4
176
     1
 62
     7
176
     1
 62
   257
176
     1
 90
        1
176
     1
 90
        1
176
     1
 40
1.0
176
     1
 90
       12
176
     1
 62
     7
176
     1
 40
1.0
176
     1
 90
        1
176
     1
 90
        6
176
     1
 90
        2
176
     1
 62
     7
176
     1
 90
        5
176
     1
 90
        0
176
     1
 90
        0
176
     1
290
     0
176
     1
 90
        1
176
     1
 40
0.0
176
     1
 90
        0
176
     1
290
     0
176
     1
290
     1
176
     1
290
     1
176
     1
290
     0
176
     1
290
     0
176
     1
290
     0
176
     1
290
     0
176
     1
290
     0
176
     1
290
     0
176
     1
 90
       50
176
     1
 40
0.0
176
     1
 40
1.0
176
     1
 90
        0
176
     1
 62
    18
420
        0
176
     1
 90
       50
176
     1
 90
        3
176
     1
 62
     5
420
      255
176
     1
290
     0
176
     1
 90
       50
176
     1
 90
       50
176
     1
 90
       50
176
     1
290
     0
176
     1
 90
       50
176
     1
 62
   256
176
     0
 40
1.0
176
     0
 90
        2
176
     1
  1
strokes_ogs.tif
176
     1
290
     0
176
     1
 40
1.0
176
     1
 40
1.0
176
     1
  0
VISUALSTYLE
  5
30
102
{ACAD_REACTORS
330
2A
102
}
330
2A
100
AcDbVisualStyle
  2
Wireframe
 70
     5
177
     3
291
     0
 70
    58
 90
        0
176
     1
 90
        2
176
     1
 90
        0
176
     1
 90
        0
176
     1
 40
0.6
176
     1
 40
30.0
176
     1
 62
     7
420
 16777215
176
     1
 90
        1
176
     1
 90
        4
176
     1
 62
     7
176
     1
 62
   257
176
     1
 90
        1
176
     1
 90
        1
176
     1
 40
1.0
176
     1
 90
        0
176
     1
 62
   257
176
     1
 40
1.0
176
     1
 90
        1
176
     1
 90
        6
176
     1
 90
        2
176
     1
 62
     7
176
     1
 90
        3
176
     1
 90
        0
176
     1
 90
        0
176
     1
290
     0
176
     1
 90
        1
176
     1
 40
0.0
176
     1
 90
        0
176
     1
290
     0
176
     1
290
     1
176
     1
290
     1
176
     1
290
     0
176
     1
290
     0
176
     1
290
     0
176
     1
290
     0
176
     1
290
     0
176
     1
290
     0
176
     1
 90
       50
176
     1
 40
0.0
176
     1
 40
1.0
176
     1
 90
        0
176
     1
 62
    18
420
        0
176
     1
 90
       50
176
     1
 90
        3
176
     1
 62
     5
420
      255
176
     1
290
     0
176
     1
 90
       50
176
     1
 90
       50
176
     1
 90
       50
176
     1
290
     0
176
     1
 90
       50
176
     1
 62
   256
176
     0
 40
1.0
176
     0
 90
        2
176
     1
  1
strokes_ogs.tif
176
     1
290
     0
176
     1
 40
1.0
176
     1
 40
1.0
176
     1
  0
VISUALSTYLE
  5
40
102
{ACAD_REACTORS
330
2A
102
}
330
2A
100
AcDbVisualStyle
  2
X-Ray
 70
    25
177
     3
291
     0
 70
    58
 90
        2
176
     1
 90
        2
176
     1
 90
        1
176
     1
 90
        1
176
     1
 40
0.5
176
     1
 40
30.0
176
     1
 62
     7
420
 16777215
176
     1
 90
        1
176
     1
 90
        0
176
     1
 62
     7
176
     1
 62
   257
176
     1
 90
        1
176
     1
 90
        1
176
     1
 40
1.0
176
     1
 90
        8
176
     1
 62
     7
176
     1
 40
1.0
176
     1
 90
        1
176
     1
 90
        6
176
     1
 90
        2
176
     1
 62
     7
176
     1
 90
        3
176
     1
 90
        0
176
     1
 90
        0
176
     1
290
     0
176
     1
 90
       13
176
     1
 40
0.0
176
     1
 90
        0
176
     1
290
     0
176
     1
290
     1
176
     1
290
     1
176
     1
290
     0
176
     1
290
     0
176
     1
290
     0
176
     1
290
     0
176
     1
290
     0
176
     1
290
     0
176
     1
 90
       50
176
     1
 40
0.0
176
     1
 40
1.0
176
     1
 90
        0
176
     1
 62
    18
420
        0
176
     1
 90
       50
176
     1
 90
        3
176
     1
 62
     5
420
      255
176
     1
290
     0
176
     1
 90
       50
176
     1
 90
       50
176
     1
 90
       50
176
     1
290
     0
176
     1
 90
       50
176
     1
 62
   256
176
     0
 40
1.0
176
     0
 90
        2
176
     1
  1
strokes_ogs.tif
176
     1
290
     0
176
     1
 40
1.0
176
     1
 40
1.0
176
     1
  0
DICTIONARYVAR
  5
AC
102
{ACAD_REACTORS
330
AB
102
}
330
AB
100
DictionaryVariables
280
     0
  1
1:1
  0
DICTIONARYVAR
  5
B1
102
{ACAD_REACTORS
330
AB
102
}
330
AB
100
DictionaryVariables
280
     0
  1
Standard
  0
DICTIONARYVAR
  5
B0
102
{ACAD_REACTORS
330
AB
102
}
330
AB
100
DictionaryVariables
280
     0
  1
Standard
  0
DICTIONARY
  5
AD
330
5A
100
AcDbDictionary
280
     1
281
     1
  3
ACAD_ROUNDTRIP_2008_TABLESTYLE_CELLSTYLEMAP
360
AE
  0
CELLSTYLEMAP
  5
AE
102
{ACAD_REACTORS
330
AD
102
}
330
AD
100
AcDbCellStyleMap
 90
        3
300
CELLSTYLE
  1
TABLEFORMAT_BEGIN
 90
        5
170
     1
 91
        0
 92
    32768
 62
   257
 93
        1
300
CONTENTFORMAT
  1
CONTENTFORMAT_BEGIN
 90
        0
 91
        0
 92
        4
 93
        0
300

 40
0.0
140
1.0
 94
        5
 62
     0
340
11
144
0.25
309
CONTENTFORMAT_END
171
     1
301
MARGIN
  1
CELLMARGIN_BEGIN
 40
0.06
 40
0.06
 40
0.06
 40
0.06
 40
0.06
 40
0.06
309
CELLMARGIN_END
 94
        6
 95
        1
302
GRIDFORMAT
  1
GRIDFORMAT_BEGIN
 90
        0
 91
        1
 62
     0
 92
       -2
340
14
 93
        0
 40
0.045
309
GRIDFORMAT_END
 95
        2
302
GRIDFORMAT
  1
GRIDFORMAT_BEGIN
 90
        0
 91
        1
 62
     0
 92
       -2
340
14
 93
        0
 40
0.045
309
GRIDFORMAT_END
 95
        4
302
GRIDFORMAT
  1
GRIDFORMAT_BEGIN
 90
        0
 91
        1
 62
     0
 92
       -2
340
14
 93
        0
 40
0.045
309
GRIDFORMAT_END
 95
        8
302
GRIDFORMAT
  1
GRIDFORMAT_BEGIN
 90
        0
 91
        1
 62
     0
 92
       -2
340
14
 93
        0
 40
0.045
309
GRIDFORMAT_END
 95
       16
302
GRIDFORMAT
  1
GRIDFORMAT_BEGIN
 90
        0
 91
        1
 62
     0
 92
       -2
340
14
 93
        0
 40
0.045
309
GRIDFORMAT_END
 95
       32
302
GRIDFORMAT
  1
GRIDFORMAT_BEGIN
 90
        0
 91
        1
 62
     0
 92
       -2
340
14
 93
        0
 40
0.045
309
GRIDFORMAT_END
309
TABLEFORMAT_END
  1
CELLSTYLE_BEGIN
 90
        1
 91
        1
300
_TITLE
309
CELLSTYLE_END
300
CELLSTYLE
  1
TABLEFORMAT_BEGIN
 90
        5
170
     1
 91
        0
 92
        0
 62
   257
 93
        1
300
CONTENTFORMAT
  1
CONTENTFORMAT_BEGIN
 90
        0
 91
        0
 92
        4
 93
        0
300

 40
0.0
140
1.0
 94
        5
 62
     0
340
11
144
0.18
309
CONTENTFORMAT_END
171
     1
301
MARGIN
  1
CELLMARGIN_BEGIN
 40
0.06
 40
0.06
 40
0.06
 40
0.06
 40
0.06
 40
0.06
309
CELLMARGIN_END
 94
        6
 95
        1
302
GRIDFORMAT
  1
GRIDFORMAT_BEGIN
 90
        0
 91
        1
 62
     0
 92
       -2
340
14
 93
        0
 40
0.045
309
GRIDFORMAT_END
 95
        2
302
GRIDFORMAT
  1
GRIDFORMAT_BEGIN
 90
        0
 91
        1
 62
     0
 92
       -2
340
14
 93
        0
 40
0.045
309
GRIDFORMAT_END
 95
        4
302
GRIDFORMAT
  1
GRIDFORMAT_BEGIN
 90
        0
 91
        1
 62
     0
 92
       -2
340
14
 93
        0
 40
0.045
309
GRIDFORMAT_END
 95
        8
302
GRIDFORMAT
  1
GRIDFORMAT_BEGIN
 90
        0
 91
        1
 62
     0
 92
       -2
340
14
 93
        0
 40
0.045
309
GRIDFORMAT_END
 95
       16
302
GRIDFORMAT
  1
GRIDFORMAT_BEGIN
 90
        0
 91
        1
 62
     0
 92
       -2
340
14
 93
        0
 40
0.045
309
GRIDFORMAT_END
 95
       32
302
GRIDFORMAT
  1
GRIDFORMAT_BEGIN
 90
        0
 91
        1
 62
     0
 92
       -2
340
14
 93
        0
 40
0.045
309
GRIDFORMAT_END
309
TABLEFORMAT_END
  1
CELLSTYLE_BEGIN
 90
        2
 91
        1
300
_HEADER
309
CELLSTYLE_END
300
CELLSTYLE
  1
TABLEFORMAT_BEGIN
 90
        5
170
     1
 91
        0
 92
        0
 62
   257
 93
        1
300
CONTENTFORMAT
  1
CONTENTFORMAT_BEGIN
 90
        0
 91
        0
 92
        4
 93
        0
300

 40
0.0
140
1.0
 94
        2
 62
     0
340
11
144
0.18
309
CONTENTFORMAT_END
171
     1
301
MARGIN
  1
CELLMARGIN_BEGIN
 40
0.06
 40
0.06
 40
0.06
 40
0.06
 40
0.06
 40
0.06
309
CELLMARGIN_END
 94
        6
 95
        1
302
GRIDFORMAT
  1
GRIDFORMAT_BEGIN
 90
        0
 91
        1
 62
     0
 92
       -2
340
14
 93
        0
 40
0.045
309
GRIDFORMAT_END
 95
        2
302
GRIDFORMAT
  1
GRIDFORMAT_BEGIN
 90
        0
 91
        1
 62
     0
 92
       -2
340
14
 93
        0
 40
0.045
309
GRIDFORMAT_END
 95
        4
302
GRIDFORMAT
  1
GRIDFORMAT_BEGIN
 90
        0
 91
        1
 62
     0
 92
       -2
340
14
 93
        0
 40
0.045
309
GRIDFORMAT_END
 95
        8
302
GRIDFORMAT
  1
GRIDFORMAT_BEGIN
 90
        0
 91
        1
 62
     0
 92
       -2
340
14
 93
        0
 40
0.045
309
GRIDFORMAT_END
 95
       16
302
GRIDFORMAT
  1
GRIDFORMAT_BEGIN
 90
        0
 91
        1
 62
     0
 92
       -2
340
14
 93
        0
 40
0.045
309
GRIDFORMAT_END
 95
       32
302
GRIDFORMAT
  1
GRIDFORMAT_BEGIN
 90
        0
 91
        1
 62
     0
 92
       -2
340
14
 93
        0
 40
0.045
309
GRIDFORMAT_END
309
TABLEFORMAT_END
  1
CELLSTYLE_BEGIN
 90
        3
 91
        2
300
_DATA
309
CELLSTYLE_END
  0
ENDSEC
  0
EOF
